%TF.GenerationSoftware,KiCad,Pcbnew,8.0.1*%
%TF.CreationDate,2024-10-18T10:30:41+02:00*%
%TF.ProjectId,Curmea,4375726d-6561-42e6-9b69-6361645f7063,rev?*%
%TF.SameCoordinates,Original*%
%TF.FileFunction,Legend,Top*%
%TF.FilePolarity,Positive*%
%FSLAX46Y46*%
G04 Gerber Fmt 4.6, Leading zero omitted, Abs format (unit mm)*
G04 Created by KiCad (PCBNEW 8.0.1) date 2024-10-18 10:30:41*
%MOMM*%
%LPD*%
G01*
G04 APERTURE LIST*
%ADD10C,0.150000*%
%ADD11C,0.125000*%
%ADD12C,0.120000*%
%ADD13C,0.000000*%
G04 APERTURE END LIST*
D10*
X149658207Y-86524580D02*
X149610588Y-86572200D01*
X149610588Y-86572200D02*
X149467731Y-86619819D01*
X149467731Y-86619819D02*
X149372493Y-86619819D01*
X149372493Y-86619819D02*
X149229636Y-86572200D01*
X149229636Y-86572200D02*
X149134398Y-86476961D01*
X149134398Y-86476961D02*
X149086779Y-86381723D01*
X149086779Y-86381723D02*
X149039160Y-86191247D01*
X149039160Y-86191247D02*
X149039160Y-86048390D01*
X149039160Y-86048390D02*
X149086779Y-85857914D01*
X149086779Y-85857914D02*
X149134398Y-85762676D01*
X149134398Y-85762676D02*
X149229636Y-85667438D01*
X149229636Y-85667438D02*
X149372493Y-85619819D01*
X149372493Y-85619819D02*
X149467731Y-85619819D01*
X149467731Y-85619819D02*
X149610588Y-85667438D01*
X149610588Y-85667438D02*
X149658207Y-85715057D01*
X150515350Y-85953152D02*
X150515350Y-86619819D01*
X150086779Y-85953152D02*
X150086779Y-86476961D01*
X150086779Y-86476961D02*
X150134398Y-86572200D01*
X150134398Y-86572200D02*
X150229636Y-86619819D01*
X150229636Y-86619819D02*
X150372493Y-86619819D01*
X150372493Y-86619819D02*
X150467731Y-86572200D01*
X150467731Y-86572200D02*
X150515350Y-86524580D01*
X150991541Y-86619819D02*
X150991541Y-85953152D01*
X150991541Y-86143628D02*
X151039160Y-86048390D01*
X151039160Y-86048390D02*
X151086779Y-86000771D01*
X151086779Y-86000771D02*
X151182017Y-85953152D01*
X151182017Y-85953152D02*
X151277255Y-85953152D01*
X151610589Y-86619819D02*
X151610589Y-85953152D01*
X151610589Y-86048390D02*
X151658208Y-86000771D01*
X151658208Y-86000771D02*
X151753446Y-85953152D01*
X151753446Y-85953152D02*
X151896303Y-85953152D01*
X151896303Y-85953152D02*
X151991541Y-86000771D01*
X151991541Y-86000771D02*
X152039160Y-86096009D01*
X152039160Y-86096009D02*
X152039160Y-86619819D01*
X152039160Y-86096009D02*
X152086779Y-86000771D01*
X152086779Y-86000771D02*
X152182017Y-85953152D01*
X152182017Y-85953152D02*
X152324874Y-85953152D01*
X152324874Y-85953152D02*
X152420113Y-86000771D01*
X152420113Y-86000771D02*
X152467732Y-86096009D01*
X152467732Y-86096009D02*
X152467732Y-86619819D01*
X153324874Y-86572200D02*
X153229636Y-86619819D01*
X153229636Y-86619819D02*
X153039160Y-86619819D01*
X153039160Y-86619819D02*
X152943922Y-86572200D01*
X152943922Y-86572200D02*
X152896303Y-86476961D01*
X152896303Y-86476961D02*
X152896303Y-86096009D01*
X152896303Y-86096009D02*
X152943922Y-86000771D01*
X152943922Y-86000771D02*
X153039160Y-85953152D01*
X153039160Y-85953152D02*
X153229636Y-85953152D01*
X153229636Y-85953152D02*
X153324874Y-86000771D01*
X153324874Y-86000771D02*
X153372493Y-86096009D01*
X153372493Y-86096009D02*
X153372493Y-86191247D01*
X153372493Y-86191247D02*
X152896303Y-86286485D01*
X154229636Y-86619819D02*
X154229636Y-86096009D01*
X154229636Y-86096009D02*
X154182017Y-86000771D01*
X154182017Y-86000771D02*
X154086779Y-85953152D01*
X154086779Y-85953152D02*
X153896303Y-85953152D01*
X153896303Y-85953152D02*
X153801065Y-86000771D01*
X154229636Y-86572200D02*
X154134398Y-86619819D01*
X154134398Y-86619819D02*
X153896303Y-86619819D01*
X153896303Y-86619819D02*
X153801065Y-86572200D01*
X153801065Y-86572200D02*
X153753446Y-86476961D01*
X153753446Y-86476961D02*
X153753446Y-86381723D01*
X153753446Y-86381723D02*
X153801065Y-86286485D01*
X153801065Y-86286485D02*
X153896303Y-86238866D01*
X153896303Y-86238866D02*
X154134398Y-86238866D01*
X154134398Y-86238866D02*
X154229636Y-86191247D01*
X155372494Y-85953152D02*
X155610589Y-86619819D01*
X155610589Y-86619819D02*
X155848684Y-85953152D01*
X156420113Y-85619819D02*
X156515351Y-85619819D01*
X156515351Y-85619819D02*
X156610589Y-85667438D01*
X156610589Y-85667438D02*
X156658208Y-85715057D01*
X156658208Y-85715057D02*
X156705827Y-85810295D01*
X156705827Y-85810295D02*
X156753446Y-86000771D01*
X156753446Y-86000771D02*
X156753446Y-86238866D01*
X156753446Y-86238866D02*
X156705827Y-86429342D01*
X156705827Y-86429342D02*
X156658208Y-86524580D01*
X156658208Y-86524580D02*
X156610589Y-86572200D01*
X156610589Y-86572200D02*
X156515351Y-86619819D01*
X156515351Y-86619819D02*
X156420113Y-86619819D01*
X156420113Y-86619819D02*
X156324875Y-86572200D01*
X156324875Y-86572200D02*
X156277256Y-86524580D01*
X156277256Y-86524580D02*
X156229637Y-86429342D01*
X156229637Y-86429342D02*
X156182018Y-86238866D01*
X156182018Y-86238866D02*
X156182018Y-86000771D01*
X156182018Y-86000771D02*
X156229637Y-85810295D01*
X156229637Y-85810295D02*
X156277256Y-85715057D01*
X156277256Y-85715057D02*
X156324875Y-85667438D01*
X156324875Y-85667438D02*
X156420113Y-85619819D01*
X157182018Y-86524580D02*
X157229637Y-86572200D01*
X157229637Y-86572200D02*
X157182018Y-86619819D01*
X157182018Y-86619819D02*
X157134399Y-86572200D01*
X157134399Y-86572200D02*
X157182018Y-86524580D01*
X157182018Y-86524580D02*
X157182018Y-86619819D01*
X157610589Y-85715057D02*
X157658208Y-85667438D01*
X157658208Y-85667438D02*
X157753446Y-85619819D01*
X157753446Y-85619819D02*
X157991541Y-85619819D01*
X157991541Y-85619819D02*
X158086779Y-85667438D01*
X158086779Y-85667438D02*
X158134398Y-85715057D01*
X158134398Y-85715057D02*
X158182017Y-85810295D01*
X158182017Y-85810295D02*
X158182017Y-85905533D01*
X158182017Y-85905533D02*
X158134398Y-86048390D01*
X158134398Y-86048390D02*
X157562970Y-86619819D01*
X157562970Y-86619819D02*
X158182017Y-86619819D01*
X128505704Y-79189160D02*
X129305704Y-79189160D01*
X128505704Y-79570112D02*
X129305704Y-79570112D01*
X129305704Y-79570112D02*
X128505704Y-80027255D01*
X128505704Y-80027255D02*
X129305704Y-80027255D01*
X128810466Y-80408207D02*
X128810466Y-81017731D01*
X128505704Y-80712969D02*
X129115228Y-80712969D01*
X114760466Y-74729160D02*
X114760466Y-75338684D01*
X114455704Y-75033922D02*
X115065228Y-75033922D01*
X115255704Y-76100588D02*
X115255704Y-75719636D01*
X115255704Y-75719636D02*
X114874752Y-75681540D01*
X114874752Y-75681540D02*
X114912847Y-75719636D01*
X114912847Y-75719636D02*
X114950942Y-75795826D01*
X114950942Y-75795826D02*
X114950942Y-75986302D01*
X114950942Y-75986302D02*
X114912847Y-76062493D01*
X114912847Y-76062493D02*
X114874752Y-76100588D01*
X114874752Y-76100588D02*
X114798561Y-76138683D01*
X114798561Y-76138683D02*
X114608085Y-76138683D01*
X114608085Y-76138683D02*
X114531895Y-76100588D01*
X114531895Y-76100588D02*
X114493800Y-76062493D01*
X114493800Y-76062493D02*
X114455704Y-75986302D01*
X114455704Y-75986302D02*
X114455704Y-75795826D01*
X114455704Y-75795826D02*
X114493800Y-75719636D01*
X114493800Y-75719636D02*
X114531895Y-75681540D01*
X115255704Y-76367255D02*
X114455704Y-76633922D01*
X114455704Y-76633922D02*
X115255704Y-76900588D01*
X128505704Y-76589160D02*
X129305704Y-76589160D01*
X128505704Y-76970112D02*
X129305704Y-76970112D01*
X129305704Y-76970112D02*
X128505704Y-77427255D01*
X128505704Y-77427255D02*
X129305704Y-77427255D01*
X128810466Y-77808207D02*
X128810466Y-78417731D01*
X114760466Y-80329160D02*
X114760466Y-80938684D01*
X115255704Y-81700588D02*
X115255704Y-81319636D01*
X115255704Y-81319636D02*
X114874752Y-81281540D01*
X114874752Y-81281540D02*
X114912847Y-81319636D01*
X114912847Y-81319636D02*
X114950942Y-81395826D01*
X114950942Y-81395826D02*
X114950942Y-81586302D01*
X114950942Y-81586302D02*
X114912847Y-81662493D01*
X114912847Y-81662493D02*
X114874752Y-81700588D01*
X114874752Y-81700588D02*
X114798561Y-81738683D01*
X114798561Y-81738683D02*
X114608085Y-81738683D01*
X114608085Y-81738683D02*
X114531895Y-81700588D01*
X114531895Y-81700588D02*
X114493800Y-81662493D01*
X114493800Y-81662493D02*
X114455704Y-81586302D01*
X114455704Y-81586302D02*
X114455704Y-81395826D01*
X114455704Y-81395826D02*
X114493800Y-81319636D01*
X114493800Y-81319636D02*
X114531895Y-81281540D01*
X115255704Y-81967255D02*
X114455704Y-82233922D01*
X114455704Y-82233922D02*
X115255704Y-82500588D01*
X115217609Y-77948207D02*
X115255704Y-77872017D01*
X115255704Y-77872017D02*
X115255704Y-77757731D01*
X115255704Y-77757731D02*
X115217609Y-77643445D01*
X115217609Y-77643445D02*
X115141419Y-77567255D01*
X115141419Y-77567255D02*
X115065228Y-77529160D01*
X115065228Y-77529160D02*
X114912847Y-77491064D01*
X114912847Y-77491064D02*
X114798561Y-77491064D01*
X114798561Y-77491064D02*
X114646180Y-77529160D01*
X114646180Y-77529160D02*
X114569990Y-77567255D01*
X114569990Y-77567255D02*
X114493800Y-77643445D01*
X114493800Y-77643445D02*
X114455704Y-77757731D01*
X114455704Y-77757731D02*
X114455704Y-77833922D01*
X114455704Y-77833922D02*
X114493800Y-77948207D01*
X114493800Y-77948207D02*
X114531895Y-77986303D01*
X114531895Y-77986303D02*
X114798561Y-77986303D01*
X114798561Y-77986303D02*
X114798561Y-77833922D01*
X114455704Y-78329160D02*
X115255704Y-78329160D01*
X115255704Y-78329160D02*
X114455704Y-78786303D01*
X114455704Y-78786303D02*
X115255704Y-78786303D01*
X114455704Y-79167255D02*
X115255704Y-79167255D01*
X115255704Y-79167255D02*
X115255704Y-79357731D01*
X115255704Y-79357731D02*
X115217609Y-79472017D01*
X115217609Y-79472017D02*
X115141419Y-79548207D01*
X115141419Y-79548207D02*
X115065228Y-79586302D01*
X115065228Y-79586302D02*
X114912847Y-79624398D01*
X114912847Y-79624398D02*
X114798561Y-79624398D01*
X114798561Y-79624398D02*
X114646180Y-79586302D01*
X114646180Y-79586302D02*
X114569990Y-79548207D01*
X114569990Y-79548207D02*
X114493800Y-79472017D01*
X114493800Y-79472017D02*
X114455704Y-79357731D01*
X114455704Y-79357731D02*
X114455704Y-79167255D01*
D11*
X127290476Y-85563595D02*
X127290476Y-86211214D01*
X127290476Y-86211214D02*
X127328571Y-86287404D01*
X127328571Y-86287404D02*
X127366666Y-86325500D01*
X127366666Y-86325500D02*
X127442857Y-86363595D01*
X127442857Y-86363595D02*
X127595238Y-86363595D01*
X127595238Y-86363595D02*
X127671428Y-86325500D01*
X127671428Y-86325500D02*
X127709523Y-86287404D01*
X127709523Y-86287404D02*
X127747619Y-86211214D01*
X127747619Y-86211214D02*
X127747619Y-85563595D01*
X128471428Y-85563595D02*
X128319047Y-85563595D01*
X128319047Y-85563595D02*
X128242856Y-85601690D01*
X128242856Y-85601690D02*
X128204761Y-85639785D01*
X128204761Y-85639785D02*
X128128571Y-85754071D01*
X128128571Y-85754071D02*
X128090475Y-85906452D01*
X128090475Y-85906452D02*
X128090475Y-86211214D01*
X128090475Y-86211214D02*
X128128571Y-86287404D01*
X128128571Y-86287404D02*
X128166666Y-86325500D01*
X128166666Y-86325500D02*
X128242856Y-86363595D01*
X128242856Y-86363595D02*
X128395237Y-86363595D01*
X128395237Y-86363595D02*
X128471428Y-86325500D01*
X128471428Y-86325500D02*
X128509523Y-86287404D01*
X128509523Y-86287404D02*
X128547618Y-86211214D01*
X128547618Y-86211214D02*
X128547618Y-86020738D01*
X128547618Y-86020738D02*
X128509523Y-85944547D01*
X128509523Y-85944547D02*
X128471428Y-85906452D01*
X128471428Y-85906452D02*
X128395237Y-85868357D01*
X128395237Y-85868357D02*
X128242856Y-85868357D01*
X128242856Y-85868357D02*
X128166666Y-85906452D01*
X128166666Y-85906452D02*
X128128571Y-85944547D01*
X128128571Y-85944547D02*
X128090475Y-86020738D01*
D10*
X121023810Y-73862295D02*
X120757143Y-73481342D01*
X120566667Y-73862295D02*
X120566667Y-73062295D01*
X120566667Y-73062295D02*
X120871429Y-73062295D01*
X120871429Y-73062295D02*
X120947619Y-73100390D01*
X120947619Y-73100390D02*
X120985714Y-73138485D01*
X120985714Y-73138485D02*
X121023810Y-73214676D01*
X121023810Y-73214676D02*
X121023810Y-73328961D01*
X121023810Y-73328961D02*
X120985714Y-73405152D01*
X120985714Y-73405152D02*
X120947619Y-73443247D01*
X120947619Y-73443247D02*
X120871429Y-73481342D01*
X120871429Y-73481342D02*
X120566667Y-73481342D01*
X121252381Y-73062295D02*
X121519048Y-73862295D01*
X121519048Y-73862295D02*
X121785714Y-73062295D01*
X122471428Y-73862295D02*
X122014285Y-73862295D01*
X122242857Y-73862295D02*
X122242857Y-73062295D01*
X122242857Y-73062295D02*
X122166666Y-73176580D01*
X122166666Y-73176580D02*
X122090476Y-73252771D01*
X122090476Y-73252771D02*
X122014285Y-73290866D01*
X133564468Y-78610005D02*
X133183515Y-78876672D01*
X133564468Y-79067148D02*
X132764468Y-79067148D01*
X132764468Y-79067148D02*
X132764468Y-78762386D01*
X132764468Y-78762386D02*
X132802563Y-78686196D01*
X132802563Y-78686196D02*
X132840658Y-78648101D01*
X132840658Y-78648101D02*
X132916849Y-78610005D01*
X132916849Y-78610005D02*
X133031134Y-78610005D01*
X133031134Y-78610005D02*
X133107325Y-78648101D01*
X133107325Y-78648101D02*
X133145420Y-78686196D01*
X133145420Y-78686196D02*
X133183515Y-78762386D01*
X133183515Y-78762386D02*
X133183515Y-79067148D01*
X133564468Y-77848101D02*
X133564468Y-78305244D01*
X133564468Y-78076672D02*
X132764468Y-78076672D01*
X132764468Y-78076672D02*
X132878753Y-78152863D01*
X132878753Y-78152863D02*
X132954944Y-78229053D01*
X132954944Y-78229053D02*
X132993039Y-78305244D01*
X151786104Y-75133332D02*
X151824200Y-75171428D01*
X151824200Y-75171428D02*
X151862295Y-75285713D01*
X151862295Y-75285713D02*
X151862295Y-75361904D01*
X151862295Y-75361904D02*
X151824200Y-75476190D01*
X151824200Y-75476190D02*
X151748009Y-75552380D01*
X151748009Y-75552380D02*
X151671819Y-75590475D01*
X151671819Y-75590475D02*
X151519438Y-75628571D01*
X151519438Y-75628571D02*
X151405152Y-75628571D01*
X151405152Y-75628571D02*
X151252771Y-75590475D01*
X151252771Y-75590475D02*
X151176580Y-75552380D01*
X151176580Y-75552380D02*
X151100390Y-75476190D01*
X151100390Y-75476190D02*
X151062295Y-75361904D01*
X151062295Y-75361904D02*
X151062295Y-75285713D01*
X151062295Y-75285713D02*
X151100390Y-75171428D01*
X151100390Y-75171428D02*
X151138485Y-75133332D01*
X151062295Y-74409523D02*
X151062295Y-74790475D01*
X151062295Y-74790475D02*
X151443247Y-74828571D01*
X151443247Y-74828571D02*
X151405152Y-74790475D01*
X151405152Y-74790475D02*
X151367057Y-74714285D01*
X151367057Y-74714285D02*
X151367057Y-74523809D01*
X151367057Y-74523809D02*
X151405152Y-74447618D01*
X151405152Y-74447618D02*
X151443247Y-74409523D01*
X151443247Y-74409523D02*
X151519438Y-74371428D01*
X151519438Y-74371428D02*
X151709914Y-74371428D01*
X151709914Y-74371428D02*
X151786104Y-74409523D01*
X151786104Y-74409523D02*
X151824200Y-74447618D01*
X151824200Y-74447618D02*
X151862295Y-74523809D01*
X151862295Y-74523809D02*
X151862295Y-74714285D01*
X151862295Y-74714285D02*
X151824200Y-74790475D01*
X151824200Y-74790475D02*
X151786104Y-74828571D01*
X139366667Y-79862295D02*
X139100000Y-79481342D01*
X138909524Y-79862295D02*
X138909524Y-79062295D01*
X138909524Y-79062295D02*
X139214286Y-79062295D01*
X139214286Y-79062295D02*
X139290476Y-79100390D01*
X139290476Y-79100390D02*
X139328571Y-79138485D01*
X139328571Y-79138485D02*
X139366667Y-79214676D01*
X139366667Y-79214676D02*
X139366667Y-79328961D01*
X139366667Y-79328961D02*
X139328571Y-79405152D01*
X139328571Y-79405152D02*
X139290476Y-79443247D01*
X139290476Y-79443247D02*
X139214286Y-79481342D01*
X139214286Y-79481342D02*
X138909524Y-79481342D01*
X139671428Y-79138485D02*
X139709524Y-79100390D01*
X139709524Y-79100390D02*
X139785714Y-79062295D01*
X139785714Y-79062295D02*
X139976190Y-79062295D01*
X139976190Y-79062295D02*
X140052381Y-79100390D01*
X140052381Y-79100390D02*
X140090476Y-79138485D01*
X140090476Y-79138485D02*
X140128571Y-79214676D01*
X140128571Y-79214676D02*
X140128571Y-79290866D01*
X140128571Y-79290866D02*
X140090476Y-79405152D01*
X140090476Y-79405152D02*
X139633333Y-79862295D01*
X139633333Y-79862295D02*
X140128571Y-79862295D01*
X143866667Y-74862295D02*
X143600000Y-74481342D01*
X143409524Y-74862295D02*
X143409524Y-74062295D01*
X143409524Y-74062295D02*
X143714286Y-74062295D01*
X143714286Y-74062295D02*
X143790476Y-74100390D01*
X143790476Y-74100390D02*
X143828571Y-74138485D01*
X143828571Y-74138485D02*
X143866667Y-74214676D01*
X143866667Y-74214676D02*
X143866667Y-74328961D01*
X143866667Y-74328961D02*
X143828571Y-74405152D01*
X143828571Y-74405152D02*
X143790476Y-74443247D01*
X143790476Y-74443247D02*
X143714286Y-74481342D01*
X143714286Y-74481342D02*
X143409524Y-74481342D01*
X144590476Y-74062295D02*
X144209524Y-74062295D01*
X144209524Y-74062295D02*
X144171428Y-74443247D01*
X144171428Y-74443247D02*
X144209524Y-74405152D01*
X144209524Y-74405152D02*
X144285714Y-74367057D01*
X144285714Y-74367057D02*
X144476190Y-74367057D01*
X144476190Y-74367057D02*
X144552381Y-74405152D01*
X144552381Y-74405152D02*
X144590476Y-74443247D01*
X144590476Y-74443247D02*
X144628571Y-74519438D01*
X144628571Y-74519438D02*
X144628571Y-74709914D01*
X144628571Y-74709914D02*
X144590476Y-74786104D01*
X144590476Y-74786104D02*
X144552381Y-74824200D01*
X144552381Y-74824200D02*
X144476190Y-74862295D01*
X144476190Y-74862295D02*
X144285714Y-74862295D01*
X144285714Y-74862295D02*
X144209524Y-74824200D01*
X144209524Y-74824200D02*
X144171428Y-74786104D01*
X139366667Y-77862295D02*
X139100000Y-77481342D01*
X138909524Y-77862295D02*
X138909524Y-77062295D01*
X138909524Y-77062295D02*
X139214286Y-77062295D01*
X139214286Y-77062295D02*
X139290476Y-77100390D01*
X139290476Y-77100390D02*
X139328571Y-77138485D01*
X139328571Y-77138485D02*
X139366667Y-77214676D01*
X139366667Y-77214676D02*
X139366667Y-77328961D01*
X139366667Y-77328961D02*
X139328571Y-77405152D01*
X139328571Y-77405152D02*
X139290476Y-77443247D01*
X139290476Y-77443247D02*
X139214286Y-77481342D01*
X139214286Y-77481342D02*
X138909524Y-77481342D01*
X139633333Y-77062295D02*
X140128571Y-77062295D01*
X140128571Y-77062295D02*
X139861905Y-77367057D01*
X139861905Y-77367057D02*
X139976190Y-77367057D01*
X139976190Y-77367057D02*
X140052381Y-77405152D01*
X140052381Y-77405152D02*
X140090476Y-77443247D01*
X140090476Y-77443247D02*
X140128571Y-77519438D01*
X140128571Y-77519438D02*
X140128571Y-77709914D01*
X140128571Y-77709914D02*
X140090476Y-77786104D01*
X140090476Y-77786104D02*
X140052381Y-77824200D01*
X140052381Y-77824200D02*
X139976190Y-77862295D01*
X139976190Y-77862295D02*
X139747619Y-77862295D01*
X139747619Y-77862295D02*
X139671428Y-77824200D01*
X139671428Y-77824200D02*
X139633333Y-77786104D01*
X125333333Y-82062295D02*
X125333333Y-82633723D01*
X125333333Y-82633723D02*
X125295238Y-82748009D01*
X125295238Y-82748009D02*
X125219047Y-82824200D01*
X125219047Y-82824200D02*
X125104762Y-82862295D01*
X125104762Y-82862295D02*
X125028571Y-82862295D01*
X125714286Y-82862295D02*
X125714286Y-82062295D01*
X125714286Y-82062295D02*
X126019048Y-82062295D01*
X126019048Y-82062295D02*
X126095238Y-82100390D01*
X126095238Y-82100390D02*
X126133333Y-82138485D01*
X126133333Y-82138485D02*
X126171429Y-82214676D01*
X126171429Y-82214676D02*
X126171429Y-82328961D01*
X126171429Y-82328961D02*
X126133333Y-82405152D01*
X126133333Y-82405152D02*
X126095238Y-82443247D01*
X126095238Y-82443247D02*
X126019048Y-82481342D01*
X126019048Y-82481342D02*
X125714286Y-82481342D01*
X126933333Y-82862295D02*
X126476190Y-82862295D01*
X126704762Y-82862295D02*
X126704762Y-82062295D01*
X126704762Y-82062295D02*
X126628571Y-82176580D01*
X126628571Y-82176580D02*
X126552381Y-82252771D01*
X126552381Y-82252771D02*
X126476190Y-82290866D01*
X125269258Y-85544927D02*
X125307354Y-85583023D01*
X125307354Y-85583023D02*
X125345449Y-85697308D01*
X125345449Y-85697308D02*
X125345449Y-85773499D01*
X125345449Y-85773499D02*
X125307354Y-85887785D01*
X125307354Y-85887785D02*
X125231163Y-85963975D01*
X125231163Y-85963975D02*
X125154973Y-86002070D01*
X125154973Y-86002070D02*
X125002592Y-86040166D01*
X125002592Y-86040166D02*
X124888306Y-86040166D01*
X124888306Y-86040166D02*
X124735925Y-86002070D01*
X124735925Y-86002070D02*
X124659734Y-85963975D01*
X124659734Y-85963975D02*
X124583544Y-85887785D01*
X124583544Y-85887785D02*
X124545449Y-85773499D01*
X124545449Y-85773499D02*
X124545449Y-85697308D01*
X124545449Y-85697308D02*
X124583544Y-85583023D01*
X124583544Y-85583023D02*
X124621639Y-85544927D01*
X125345449Y-84783023D02*
X125345449Y-85240166D01*
X125345449Y-85011594D02*
X124545449Y-85011594D01*
X124545449Y-85011594D02*
X124659734Y-85087785D01*
X124659734Y-85087785D02*
X124735925Y-85163975D01*
X124735925Y-85163975D02*
X124774020Y-85240166D01*
X124545449Y-84287784D02*
X124545449Y-84211594D01*
X124545449Y-84211594D02*
X124583544Y-84135403D01*
X124583544Y-84135403D02*
X124621639Y-84097308D01*
X124621639Y-84097308D02*
X124697830Y-84059213D01*
X124697830Y-84059213D02*
X124850211Y-84021118D01*
X124850211Y-84021118D02*
X125040687Y-84021118D01*
X125040687Y-84021118D02*
X125193068Y-84059213D01*
X125193068Y-84059213D02*
X125269258Y-84097308D01*
X125269258Y-84097308D02*
X125307354Y-84135403D01*
X125307354Y-84135403D02*
X125345449Y-84211594D01*
X125345449Y-84211594D02*
X125345449Y-84287784D01*
X125345449Y-84287784D02*
X125307354Y-84363975D01*
X125307354Y-84363975D02*
X125269258Y-84402070D01*
X125269258Y-84402070D02*
X125193068Y-84440165D01*
X125193068Y-84440165D02*
X125040687Y-84478261D01*
X125040687Y-84478261D02*
X124850211Y-84478261D01*
X124850211Y-84478261D02*
X124697830Y-84440165D01*
X124697830Y-84440165D02*
X124621639Y-84402070D01*
X124621639Y-84402070D02*
X124583544Y-84363975D01*
X124583544Y-84363975D02*
X124545449Y-84287784D01*
X144890476Y-74657295D02*
X144890476Y-75304914D01*
X144890476Y-75304914D02*
X144928571Y-75381104D01*
X144928571Y-75381104D02*
X144966666Y-75419200D01*
X144966666Y-75419200D02*
X145042857Y-75457295D01*
X145042857Y-75457295D02*
X145195238Y-75457295D01*
X145195238Y-75457295D02*
X145271428Y-75419200D01*
X145271428Y-75419200D02*
X145309523Y-75381104D01*
X145309523Y-75381104D02*
X145347619Y-75304914D01*
X145347619Y-75304914D02*
X145347619Y-74657295D01*
X145652380Y-74657295D02*
X146147618Y-74657295D01*
X146147618Y-74657295D02*
X145880952Y-74962057D01*
X145880952Y-74962057D02*
X145995237Y-74962057D01*
X145995237Y-74962057D02*
X146071428Y-75000152D01*
X146071428Y-75000152D02*
X146109523Y-75038247D01*
X146109523Y-75038247D02*
X146147618Y-75114438D01*
X146147618Y-75114438D02*
X146147618Y-75304914D01*
X146147618Y-75304914D02*
X146109523Y-75381104D01*
X146109523Y-75381104D02*
X146071428Y-75419200D01*
X146071428Y-75419200D02*
X145995237Y-75457295D01*
X145995237Y-75457295D02*
X145766666Y-75457295D01*
X145766666Y-75457295D02*
X145690475Y-75419200D01*
X145690475Y-75419200D02*
X145652380Y-75381104D01*
D11*
X143866667Y-83931841D02*
X143600000Y-83550888D01*
X143409524Y-83931841D02*
X143409524Y-83131841D01*
X143409524Y-83131841D02*
X143714286Y-83131841D01*
X143714286Y-83131841D02*
X143790476Y-83169936D01*
X143790476Y-83169936D02*
X143828571Y-83208031D01*
X143828571Y-83208031D02*
X143866667Y-83284222D01*
X143866667Y-83284222D02*
X143866667Y-83398507D01*
X143866667Y-83398507D02*
X143828571Y-83474698D01*
X143828571Y-83474698D02*
X143790476Y-83512793D01*
X143790476Y-83512793D02*
X143714286Y-83550888D01*
X143714286Y-83550888D02*
X143409524Y-83550888D01*
X144552381Y-83398507D02*
X144552381Y-83931841D01*
X144361905Y-83093746D02*
X144171428Y-83665174D01*
X144171428Y-83665174D02*
X144666667Y-83665174D01*
D10*
X141666667Y-71486104D02*
X141628571Y-71524200D01*
X141628571Y-71524200D02*
X141514286Y-71562295D01*
X141514286Y-71562295D02*
X141438095Y-71562295D01*
X141438095Y-71562295D02*
X141323809Y-71524200D01*
X141323809Y-71524200D02*
X141247619Y-71448009D01*
X141247619Y-71448009D02*
X141209524Y-71371819D01*
X141209524Y-71371819D02*
X141171428Y-71219438D01*
X141171428Y-71219438D02*
X141171428Y-71105152D01*
X141171428Y-71105152D02*
X141209524Y-70952771D01*
X141209524Y-70952771D02*
X141247619Y-70876580D01*
X141247619Y-70876580D02*
X141323809Y-70800390D01*
X141323809Y-70800390D02*
X141438095Y-70762295D01*
X141438095Y-70762295D02*
X141514286Y-70762295D01*
X141514286Y-70762295D02*
X141628571Y-70800390D01*
X141628571Y-70800390D02*
X141666667Y-70838485D01*
X142428571Y-71562295D02*
X141971428Y-71562295D01*
X142200000Y-71562295D02*
X142200000Y-70762295D01*
X142200000Y-70762295D02*
X142123809Y-70876580D01*
X142123809Y-70876580D02*
X142047619Y-70952771D01*
X142047619Y-70952771D02*
X141971428Y-70990866D01*
D11*
X133390476Y-70063595D02*
X133390476Y-70711214D01*
X133390476Y-70711214D02*
X133428571Y-70787404D01*
X133428571Y-70787404D02*
X133466666Y-70825500D01*
X133466666Y-70825500D02*
X133542857Y-70863595D01*
X133542857Y-70863595D02*
X133695238Y-70863595D01*
X133695238Y-70863595D02*
X133771428Y-70825500D01*
X133771428Y-70825500D02*
X133809523Y-70787404D01*
X133809523Y-70787404D02*
X133847619Y-70711214D01*
X133847619Y-70711214D02*
X133847619Y-70063595D01*
X134190475Y-70139785D02*
X134228571Y-70101690D01*
X134228571Y-70101690D02*
X134304761Y-70063595D01*
X134304761Y-70063595D02*
X134495237Y-70063595D01*
X134495237Y-70063595D02*
X134571428Y-70101690D01*
X134571428Y-70101690D02*
X134609523Y-70139785D01*
X134609523Y-70139785D02*
X134647618Y-70215976D01*
X134647618Y-70215976D02*
X134647618Y-70292166D01*
X134647618Y-70292166D02*
X134609523Y-70406452D01*
X134609523Y-70406452D02*
X134152380Y-70863595D01*
X134152380Y-70863595D02*
X134647618Y-70863595D01*
D10*
X147866667Y-73932295D02*
X147600000Y-73551342D01*
X147409524Y-73932295D02*
X147409524Y-73132295D01*
X147409524Y-73132295D02*
X147714286Y-73132295D01*
X147714286Y-73132295D02*
X147790476Y-73170390D01*
X147790476Y-73170390D02*
X147828571Y-73208485D01*
X147828571Y-73208485D02*
X147866667Y-73284676D01*
X147866667Y-73284676D02*
X147866667Y-73398961D01*
X147866667Y-73398961D02*
X147828571Y-73475152D01*
X147828571Y-73475152D02*
X147790476Y-73513247D01*
X147790476Y-73513247D02*
X147714286Y-73551342D01*
X147714286Y-73551342D02*
X147409524Y-73551342D01*
X148552381Y-73132295D02*
X148400000Y-73132295D01*
X148400000Y-73132295D02*
X148323809Y-73170390D01*
X148323809Y-73170390D02*
X148285714Y-73208485D01*
X148285714Y-73208485D02*
X148209524Y-73322771D01*
X148209524Y-73322771D02*
X148171428Y-73475152D01*
X148171428Y-73475152D02*
X148171428Y-73779914D01*
X148171428Y-73779914D02*
X148209524Y-73856104D01*
X148209524Y-73856104D02*
X148247619Y-73894200D01*
X148247619Y-73894200D02*
X148323809Y-73932295D01*
X148323809Y-73932295D02*
X148476190Y-73932295D01*
X148476190Y-73932295D02*
X148552381Y-73894200D01*
X148552381Y-73894200D02*
X148590476Y-73856104D01*
X148590476Y-73856104D02*
X148628571Y-73779914D01*
X148628571Y-73779914D02*
X148628571Y-73589438D01*
X148628571Y-73589438D02*
X148590476Y-73513247D01*
X148590476Y-73513247D02*
X148552381Y-73475152D01*
X148552381Y-73475152D02*
X148476190Y-73437057D01*
X148476190Y-73437057D02*
X148323809Y-73437057D01*
X148323809Y-73437057D02*
X148247619Y-73475152D01*
X148247619Y-73475152D02*
X148209524Y-73513247D01*
X148209524Y-73513247D02*
X148171428Y-73589438D01*
X141688851Y-81054350D02*
X141650755Y-81092446D01*
X141650755Y-81092446D02*
X141536470Y-81130541D01*
X141536470Y-81130541D02*
X141460279Y-81130541D01*
X141460279Y-81130541D02*
X141345993Y-81092446D01*
X141345993Y-81092446D02*
X141269803Y-81016255D01*
X141269803Y-81016255D02*
X141231708Y-80940065D01*
X141231708Y-80940065D02*
X141193612Y-80787684D01*
X141193612Y-80787684D02*
X141193612Y-80673398D01*
X141193612Y-80673398D02*
X141231708Y-80521017D01*
X141231708Y-80521017D02*
X141269803Y-80444826D01*
X141269803Y-80444826D02*
X141345993Y-80368636D01*
X141345993Y-80368636D02*
X141460279Y-80330541D01*
X141460279Y-80330541D02*
X141536470Y-80330541D01*
X141536470Y-80330541D02*
X141650755Y-80368636D01*
X141650755Y-80368636D02*
X141688851Y-80406731D01*
X142374565Y-80597207D02*
X142374565Y-81130541D01*
X142184089Y-80292446D02*
X141993612Y-80863874D01*
X141993612Y-80863874D02*
X142488851Y-80863874D01*
D11*
X155333333Y-72313595D02*
X155333333Y-72885023D01*
X155333333Y-72885023D02*
X155295238Y-72999309D01*
X155295238Y-72999309D02*
X155219047Y-73075500D01*
X155219047Y-73075500D02*
X155104762Y-73113595D01*
X155104762Y-73113595D02*
X155028571Y-73113595D01*
X156133333Y-73113595D02*
X155676190Y-73113595D01*
X155904762Y-73113595D02*
X155904762Y-72313595D01*
X155904762Y-72313595D02*
X155828571Y-72427880D01*
X155828571Y-72427880D02*
X155752381Y-72504071D01*
X155752381Y-72504071D02*
X155676190Y-72542166D01*
D10*
X116909524Y-72362295D02*
X116909524Y-71562295D01*
X116909524Y-71562295D02*
X117100000Y-71562295D01*
X117100000Y-71562295D02*
X117214286Y-71600390D01*
X117214286Y-71600390D02*
X117290476Y-71676580D01*
X117290476Y-71676580D02*
X117328571Y-71752771D01*
X117328571Y-71752771D02*
X117366667Y-71905152D01*
X117366667Y-71905152D02*
X117366667Y-72019438D01*
X117366667Y-72019438D02*
X117328571Y-72171819D01*
X117328571Y-72171819D02*
X117290476Y-72248009D01*
X117290476Y-72248009D02*
X117214286Y-72324200D01*
X117214286Y-72324200D02*
X117100000Y-72362295D01*
X117100000Y-72362295D02*
X116909524Y-72362295D01*
X117671428Y-71638485D02*
X117709524Y-71600390D01*
X117709524Y-71600390D02*
X117785714Y-71562295D01*
X117785714Y-71562295D02*
X117976190Y-71562295D01*
X117976190Y-71562295D02*
X118052381Y-71600390D01*
X118052381Y-71600390D02*
X118090476Y-71638485D01*
X118090476Y-71638485D02*
X118128571Y-71714676D01*
X118128571Y-71714676D02*
X118128571Y-71790866D01*
X118128571Y-71790866D02*
X118090476Y-71905152D01*
X118090476Y-71905152D02*
X117633333Y-72362295D01*
X117633333Y-72362295D02*
X118128571Y-72362295D01*
X151366667Y-83523819D02*
X151328571Y-83561915D01*
X151328571Y-83561915D02*
X151214286Y-83600010D01*
X151214286Y-83600010D02*
X151138095Y-83600010D01*
X151138095Y-83600010D02*
X151023809Y-83561915D01*
X151023809Y-83561915D02*
X150947619Y-83485724D01*
X150947619Y-83485724D02*
X150909524Y-83409534D01*
X150909524Y-83409534D02*
X150871428Y-83257153D01*
X150871428Y-83257153D02*
X150871428Y-83142867D01*
X150871428Y-83142867D02*
X150909524Y-82990486D01*
X150909524Y-82990486D02*
X150947619Y-82914295D01*
X150947619Y-82914295D02*
X151023809Y-82838105D01*
X151023809Y-82838105D02*
X151138095Y-82800010D01*
X151138095Y-82800010D02*
X151214286Y-82800010D01*
X151214286Y-82800010D02*
X151328571Y-82838105D01*
X151328571Y-82838105D02*
X151366667Y-82876200D01*
X152052381Y-82800010D02*
X151900000Y-82800010D01*
X151900000Y-82800010D02*
X151823809Y-82838105D01*
X151823809Y-82838105D02*
X151785714Y-82876200D01*
X151785714Y-82876200D02*
X151709524Y-82990486D01*
X151709524Y-82990486D02*
X151671428Y-83142867D01*
X151671428Y-83142867D02*
X151671428Y-83447629D01*
X151671428Y-83447629D02*
X151709524Y-83523819D01*
X151709524Y-83523819D02*
X151747619Y-83561915D01*
X151747619Y-83561915D02*
X151823809Y-83600010D01*
X151823809Y-83600010D02*
X151976190Y-83600010D01*
X151976190Y-83600010D02*
X152052381Y-83561915D01*
X152052381Y-83561915D02*
X152090476Y-83523819D01*
X152090476Y-83523819D02*
X152128571Y-83447629D01*
X152128571Y-83447629D02*
X152128571Y-83257153D01*
X152128571Y-83257153D02*
X152090476Y-83180962D01*
X152090476Y-83180962D02*
X152052381Y-83142867D01*
X152052381Y-83142867D02*
X151976190Y-83104772D01*
X151976190Y-83104772D02*
X151823809Y-83104772D01*
X151823809Y-83104772D02*
X151747619Y-83142867D01*
X151747619Y-83142867D02*
X151709524Y-83180962D01*
X151709524Y-83180962D02*
X151671428Y-83257153D01*
D11*
X127290476Y-70663595D02*
X127290476Y-71311214D01*
X127290476Y-71311214D02*
X127328571Y-71387404D01*
X127328571Y-71387404D02*
X127366666Y-71425500D01*
X127366666Y-71425500D02*
X127442857Y-71463595D01*
X127442857Y-71463595D02*
X127595238Y-71463595D01*
X127595238Y-71463595D02*
X127671428Y-71425500D01*
X127671428Y-71425500D02*
X127709523Y-71387404D01*
X127709523Y-71387404D02*
X127747619Y-71311214D01*
X127747619Y-71311214D02*
X127747619Y-70663595D01*
X128052380Y-70663595D02*
X128585714Y-70663595D01*
X128585714Y-70663595D02*
X128242856Y-71463595D01*
D10*
X141638851Y-86854350D02*
X141600755Y-86892446D01*
X141600755Y-86892446D02*
X141486470Y-86930541D01*
X141486470Y-86930541D02*
X141410279Y-86930541D01*
X141410279Y-86930541D02*
X141295993Y-86892446D01*
X141295993Y-86892446D02*
X141219803Y-86816255D01*
X141219803Y-86816255D02*
X141181708Y-86740065D01*
X141181708Y-86740065D02*
X141143612Y-86587684D01*
X141143612Y-86587684D02*
X141143612Y-86473398D01*
X141143612Y-86473398D02*
X141181708Y-86321017D01*
X141181708Y-86321017D02*
X141219803Y-86244826D01*
X141219803Y-86244826D02*
X141295993Y-86168636D01*
X141295993Y-86168636D02*
X141410279Y-86130541D01*
X141410279Y-86130541D02*
X141486470Y-86130541D01*
X141486470Y-86130541D02*
X141600755Y-86168636D01*
X141600755Y-86168636D02*
X141638851Y-86206731D01*
X141905517Y-86130541D02*
X142400755Y-86130541D01*
X142400755Y-86130541D02*
X142134089Y-86435303D01*
X142134089Y-86435303D02*
X142248374Y-86435303D01*
X142248374Y-86435303D02*
X142324565Y-86473398D01*
X142324565Y-86473398D02*
X142362660Y-86511493D01*
X142362660Y-86511493D02*
X142400755Y-86587684D01*
X142400755Y-86587684D02*
X142400755Y-86778160D01*
X142400755Y-86778160D02*
X142362660Y-86854350D01*
X142362660Y-86854350D02*
X142324565Y-86892446D01*
X142324565Y-86892446D02*
X142248374Y-86930541D01*
X142248374Y-86930541D02*
X142019803Y-86930541D01*
X142019803Y-86930541D02*
X141943612Y-86892446D01*
X141943612Y-86892446D02*
X141905517Y-86854350D01*
X133390476Y-86062295D02*
X133390476Y-86709914D01*
X133390476Y-86709914D02*
X133428571Y-86786104D01*
X133428571Y-86786104D02*
X133466666Y-86824200D01*
X133466666Y-86824200D02*
X133542857Y-86862295D01*
X133542857Y-86862295D02*
X133695238Y-86862295D01*
X133695238Y-86862295D02*
X133771428Y-86824200D01*
X133771428Y-86824200D02*
X133809523Y-86786104D01*
X133809523Y-86786104D02*
X133847619Y-86709914D01*
X133847619Y-86709914D02*
X133847619Y-86062295D01*
X134647618Y-86862295D02*
X134190475Y-86862295D01*
X134419047Y-86862295D02*
X134419047Y-86062295D01*
X134419047Y-86062295D02*
X134342856Y-86176580D01*
X134342856Y-86176580D02*
X134266666Y-86252771D01*
X134266666Y-86252771D02*
X134190475Y-86290866D01*
X141666667Y-77986104D02*
X141628571Y-78024200D01*
X141628571Y-78024200D02*
X141514286Y-78062295D01*
X141514286Y-78062295D02*
X141438095Y-78062295D01*
X141438095Y-78062295D02*
X141323809Y-78024200D01*
X141323809Y-78024200D02*
X141247619Y-77948009D01*
X141247619Y-77948009D02*
X141209524Y-77871819D01*
X141209524Y-77871819D02*
X141171428Y-77719438D01*
X141171428Y-77719438D02*
X141171428Y-77605152D01*
X141171428Y-77605152D02*
X141209524Y-77452771D01*
X141209524Y-77452771D02*
X141247619Y-77376580D01*
X141247619Y-77376580D02*
X141323809Y-77300390D01*
X141323809Y-77300390D02*
X141438095Y-77262295D01*
X141438095Y-77262295D02*
X141514286Y-77262295D01*
X141514286Y-77262295D02*
X141628571Y-77300390D01*
X141628571Y-77300390D02*
X141666667Y-77338485D01*
X141971428Y-77338485D02*
X142009524Y-77300390D01*
X142009524Y-77300390D02*
X142085714Y-77262295D01*
X142085714Y-77262295D02*
X142276190Y-77262295D01*
X142276190Y-77262295D02*
X142352381Y-77300390D01*
X142352381Y-77300390D02*
X142390476Y-77338485D01*
X142390476Y-77338485D02*
X142428571Y-77414676D01*
X142428571Y-77414676D02*
X142428571Y-77490866D01*
X142428571Y-77490866D02*
X142390476Y-77605152D01*
X142390476Y-77605152D02*
X141933333Y-78062295D01*
X141933333Y-78062295D02*
X142428571Y-78062295D01*
X131109154Y-86530289D02*
X131147250Y-86568385D01*
X131147250Y-86568385D02*
X131185345Y-86682670D01*
X131185345Y-86682670D02*
X131185345Y-86758861D01*
X131185345Y-86758861D02*
X131147250Y-86873147D01*
X131147250Y-86873147D02*
X131071059Y-86949337D01*
X131071059Y-86949337D02*
X130994869Y-86987432D01*
X130994869Y-86987432D02*
X130842488Y-87025528D01*
X130842488Y-87025528D02*
X130728202Y-87025528D01*
X130728202Y-87025528D02*
X130575821Y-86987432D01*
X130575821Y-86987432D02*
X130499630Y-86949337D01*
X130499630Y-86949337D02*
X130423440Y-86873147D01*
X130423440Y-86873147D02*
X130385345Y-86758861D01*
X130385345Y-86758861D02*
X130385345Y-86682670D01*
X130385345Y-86682670D02*
X130423440Y-86568385D01*
X130423440Y-86568385D02*
X130461535Y-86530289D01*
X130385345Y-86263623D02*
X130385345Y-85730289D01*
X130385345Y-85730289D02*
X131185345Y-86073147D01*
X117122024Y-85862295D02*
X117122024Y-85062295D01*
X117122024Y-85062295D02*
X117312500Y-85062295D01*
X117312500Y-85062295D02*
X117426786Y-85100390D01*
X117426786Y-85100390D02*
X117502976Y-85176580D01*
X117502976Y-85176580D02*
X117541071Y-85252771D01*
X117541071Y-85252771D02*
X117579167Y-85405152D01*
X117579167Y-85405152D02*
X117579167Y-85519438D01*
X117579167Y-85519438D02*
X117541071Y-85671819D01*
X117541071Y-85671819D02*
X117502976Y-85748009D01*
X117502976Y-85748009D02*
X117426786Y-85824200D01*
X117426786Y-85824200D02*
X117312500Y-85862295D01*
X117312500Y-85862295D02*
X117122024Y-85862295D01*
X118341071Y-85862295D02*
X117883928Y-85862295D01*
X118112500Y-85862295D02*
X118112500Y-85062295D01*
X118112500Y-85062295D02*
X118036309Y-85176580D01*
X118036309Y-85176580D02*
X117960119Y-85252771D01*
X117960119Y-85252771D02*
X117883928Y-85290866D01*
X147868828Y-83666895D02*
X147602161Y-83285942D01*
X147411685Y-83666895D02*
X147411685Y-82866895D01*
X147411685Y-82866895D02*
X147716447Y-82866895D01*
X147716447Y-82866895D02*
X147792637Y-82904990D01*
X147792637Y-82904990D02*
X147830732Y-82943085D01*
X147830732Y-82943085D02*
X147868828Y-83019276D01*
X147868828Y-83019276D02*
X147868828Y-83133561D01*
X147868828Y-83133561D02*
X147830732Y-83209752D01*
X147830732Y-83209752D02*
X147792637Y-83247847D01*
X147792637Y-83247847D02*
X147716447Y-83285942D01*
X147716447Y-83285942D02*
X147411685Y-83285942D01*
X148135494Y-82866895D02*
X148668828Y-82866895D01*
X148668828Y-82866895D02*
X148325970Y-83666895D01*
X131086104Y-71233332D02*
X131124200Y-71271428D01*
X131124200Y-71271428D02*
X131162295Y-71385713D01*
X131162295Y-71385713D02*
X131162295Y-71461904D01*
X131162295Y-71461904D02*
X131124200Y-71576190D01*
X131124200Y-71576190D02*
X131048009Y-71652380D01*
X131048009Y-71652380D02*
X130971819Y-71690475D01*
X130971819Y-71690475D02*
X130819438Y-71728571D01*
X130819438Y-71728571D02*
X130705152Y-71728571D01*
X130705152Y-71728571D02*
X130552771Y-71690475D01*
X130552771Y-71690475D02*
X130476580Y-71652380D01*
X130476580Y-71652380D02*
X130400390Y-71576190D01*
X130400390Y-71576190D02*
X130362295Y-71461904D01*
X130362295Y-71461904D02*
X130362295Y-71385713D01*
X130362295Y-71385713D02*
X130400390Y-71271428D01*
X130400390Y-71271428D02*
X130438485Y-71233332D01*
X130705152Y-70776190D02*
X130667057Y-70852380D01*
X130667057Y-70852380D02*
X130628961Y-70890475D01*
X130628961Y-70890475D02*
X130552771Y-70928571D01*
X130552771Y-70928571D02*
X130514676Y-70928571D01*
X130514676Y-70928571D02*
X130438485Y-70890475D01*
X130438485Y-70890475D02*
X130400390Y-70852380D01*
X130400390Y-70852380D02*
X130362295Y-70776190D01*
X130362295Y-70776190D02*
X130362295Y-70623809D01*
X130362295Y-70623809D02*
X130400390Y-70547618D01*
X130400390Y-70547618D02*
X130438485Y-70509523D01*
X130438485Y-70509523D02*
X130514676Y-70471428D01*
X130514676Y-70471428D02*
X130552771Y-70471428D01*
X130552771Y-70471428D02*
X130628961Y-70509523D01*
X130628961Y-70509523D02*
X130667057Y-70547618D01*
X130667057Y-70547618D02*
X130705152Y-70623809D01*
X130705152Y-70623809D02*
X130705152Y-70776190D01*
X130705152Y-70776190D02*
X130743247Y-70852380D01*
X130743247Y-70852380D02*
X130781342Y-70890475D01*
X130781342Y-70890475D02*
X130857533Y-70928571D01*
X130857533Y-70928571D02*
X131009914Y-70928571D01*
X131009914Y-70928571D02*
X131086104Y-70890475D01*
X131086104Y-70890475D02*
X131124200Y-70852380D01*
X131124200Y-70852380D02*
X131162295Y-70776190D01*
X131162295Y-70776190D02*
X131162295Y-70623809D01*
X131162295Y-70623809D02*
X131124200Y-70547618D01*
X131124200Y-70547618D02*
X131086104Y-70509523D01*
X131086104Y-70509523D02*
X131009914Y-70471428D01*
X131009914Y-70471428D02*
X130857533Y-70471428D01*
X130857533Y-70471428D02*
X130781342Y-70509523D01*
X130781342Y-70509523D02*
X130743247Y-70547618D01*
X130743247Y-70547618D02*
X130705152Y-70623809D01*
X125366667Y-71536104D02*
X125328571Y-71574200D01*
X125328571Y-71574200D02*
X125214286Y-71612295D01*
X125214286Y-71612295D02*
X125138095Y-71612295D01*
X125138095Y-71612295D02*
X125023809Y-71574200D01*
X125023809Y-71574200D02*
X124947619Y-71498009D01*
X124947619Y-71498009D02*
X124909524Y-71421819D01*
X124909524Y-71421819D02*
X124871428Y-71269438D01*
X124871428Y-71269438D02*
X124871428Y-71155152D01*
X124871428Y-71155152D02*
X124909524Y-71002771D01*
X124909524Y-71002771D02*
X124947619Y-70926580D01*
X124947619Y-70926580D02*
X125023809Y-70850390D01*
X125023809Y-70850390D02*
X125138095Y-70812295D01*
X125138095Y-70812295D02*
X125214286Y-70812295D01*
X125214286Y-70812295D02*
X125328571Y-70850390D01*
X125328571Y-70850390D02*
X125366667Y-70888485D01*
X125747619Y-71612295D02*
X125900000Y-71612295D01*
X125900000Y-71612295D02*
X125976190Y-71574200D01*
X125976190Y-71574200D02*
X126014286Y-71536104D01*
X126014286Y-71536104D02*
X126090476Y-71421819D01*
X126090476Y-71421819D02*
X126128571Y-71269438D01*
X126128571Y-71269438D02*
X126128571Y-70964676D01*
X126128571Y-70964676D02*
X126090476Y-70888485D01*
X126090476Y-70888485D02*
X126052381Y-70850390D01*
X126052381Y-70850390D02*
X125976190Y-70812295D01*
X125976190Y-70812295D02*
X125823809Y-70812295D01*
X125823809Y-70812295D02*
X125747619Y-70850390D01*
X125747619Y-70850390D02*
X125709524Y-70888485D01*
X125709524Y-70888485D02*
X125671428Y-70964676D01*
X125671428Y-70964676D02*
X125671428Y-71155152D01*
X125671428Y-71155152D02*
X125709524Y-71231342D01*
X125709524Y-71231342D02*
X125747619Y-71269438D01*
X125747619Y-71269438D02*
X125823809Y-71307533D01*
X125823809Y-71307533D02*
X125976190Y-71307533D01*
X125976190Y-71307533D02*
X126052381Y-71269438D01*
X126052381Y-71269438D02*
X126090476Y-71231342D01*
X126090476Y-71231342D02*
X126128571Y-71155152D01*
D12*
%TO.C,U6*%
X129200000Y-82140000D02*
X128400000Y-82140000D01*
X129200000Y-82140000D02*
X130000000Y-82140000D01*
X129200000Y-85260000D02*
X128400000Y-85260000D01*
X129200000Y-85260000D02*
X130000000Y-85260000D01*
X127900000Y-82190000D02*
X127660000Y-81860000D01*
X128140000Y-81860000D01*
X127900000Y-82190000D01*
G36*
X127900000Y-82190000D02*
G01*
X127660000Y-81860000D01*
X128140000Y-81860000D01*
X127900000Y-82190000D01*
G37*
%TO.C,J3*%
X129670000Y-78770000D02*
X129670000Y-76170000D01*
X132330000Y-76170000D02*
X129670000Y-76170000D01*
X132330000Y-78770000D02*
X129670000Y-78770000D01*
X132330000Y-78770000D02*
X132330000Y-76170000D01*
X132330000Y-80040000D02*
X132330000Y-81370000D01*
X132330000Y-81370000D02*
X131000000Y-81370000D01*
%TO.C,RV1*%
X119470000Y-74155000D02*
X124540000Y-74155000D01*
X119470000Y-83925000D02*
X119470000Y-74155000D01*
X119470000Y-83925000D02*
X124540000Y-83925000D01*
X121935000Y-83926000D02*
X124365000Y-83926000D01*
X121935000Y-85445000D02*
X121935000Y-83926000D01*
X121935000Y-85445000D02*
X124365000Y-85445000D01*
X123150000Y-85445000D02*
X123150000Y-84686000D01*
X124365000Y-85445000D02*
X124365000Y-83926000D01*
X124540000Y-83925000D02*
X124540000Y-74155000D01*
%TO.C,R1*%
X133977500Y-78262742D02*
X133977500Y-78737258D01*
X135022500Y-78262742D02*
X135022500Y-78737258D01*
%TO.C,C5*%
X152240000Y-75640580D02*
X152240000Y-75359420D01*
X153260000Y-75640580D02*
X153260000Y-75359420D01*
%TO.C,R2*%
X136762742Y-78977500D02*
X137237258Y-78977500D01*
X136762742Y-80022500D02*
X137237258Y-80022500D01*
D13*
%TO.C,G\u002A\u002A\u002A*%
G36*
X148093121Y-85777373D02*
G01*
X148091796Y-85780372D01*
X148087617Y-85788457D01*
X148080916Y-85801025D01*
X148072028Y-85817475D01*
X148061286Y-85837205D01*
X148049022Y-85859613D01*
X148035572Y-85884097D01*
X148021267Y-85910055D01*
X148006441Y-85936884D01*
X147991429Y-85963983D01*
X147976562Y-85990750D01*
X147962175Y-86016583D01*
X147948601Y-86040880D01*
X147936174Y-86063039D01*
X147925226Y-86082458D01*
X147916092Y-86098534D01*
X147909104Y-86110666D01*
X147904597Y-86118252D01*
X147903000Y-86120644D01*
X147900198Y-86121708D01*
X147899647Y-86118854D01*
X147899451Y-86115598D01*
X147898495Y-86112882D01*
X147896228Y-86110648D01*
X147892101Y-86108841D01*
X147885563Y-86107403D01*
X147876062Y-86106277D01*
X147863050Y-86105406D01*
X147845975Y-86104733D01*
X147824287Y-86104201D01*
X147797435Y-86103753D01*
X147764869Y-86103333D01*
X147747660Y-86103132D01*
X147606450Y-86101502D01*
X147689132Y-85951534D01*
X147771814Y-85801566D01*
X147916420Y-85799936D01*
X147951690Y-85799532D01*
X147981055Y-85799145D01*
X148005128Y-85798712D01*
X148024524Y-85798169D01*
X148039858Y-85797454D01*
X148051742Y-85796504D01*
X148060792Y-85795255D01*
X148067622Y-85793645D01*
X148072846Y-85791610D01*
X148077079Y-85789088D01*
X148080934Y-85786015D01*
X148084649Y-85782671D01*
X148090095Y-85778404D01*
X148093093Y-85777344D01*
X148093121Y-85777373D01*
G37*
G36*
X147754875Y-86386257D02*
G01*
X147750861Y-86394104D01*
X147744350Y-86406440D01*
X147735675Y-86422660D01*
X147725169Y-86442156D01*
X147713163Y-86464321D01*
X147699991Y-86488549D01*
X147685984Y-86514234D01*
X147671474Y-86540767D01*
X147656794Y-86567544D01*
X147642277Y-86593956D01*
X147628253Y-86619398D01*
X147615057Y-86643262D01*
X147603019Y-86664942D01*
X147592472Y-86683831D01*
X147583749Y-86699323D01*
X147577181Y-86710810D01*
X147573101Y-86717686D01*
X147572726Y-86718279D01*
X147569356Y-86719512D01*
X147563594Y-86715457D01*
X147562305Y-86714204D01*
X147554365Y-86706264D01*
X147415660Y-86706264D01*
X147380553Y-86706225D01*
X147351490Y-86706100D01*
X147327998Y-86705876D01*
X147309600Y-86705537D01*
X147295821Y-86705069D01*
X147286187Y-86704460D01*
X147280223Y-86703695D01*
X147277452Y-86702759D01*
X147277116Y-86702188D01*
X147278679Y-86698620D01*
X147283107Y-86689900D01*
X147290103Y-86676582D01*
X147299370Y-86659218D01*
X147310612Y-86638359D01*
X147323531Y-86614558D01*
X147337832Y-86588367D01*
X147353218Y-86560337D01*
X147358137Y-86551405D01*
X147438996Y-86404698D01*
X147583742Y-86403068D01*
X147618651Y-86402654D01*
X147647638Y-86402252D01*
X147671304Y-86401833D01*
X147690248Y-86401370D01*
X147705068Y-86400833D01*
X147716364Y-86400195D01*
X147724736Y-86399427D01*
X147730782Y-86398501D01*
X147735102Y-86397389D01*
X147738295Y-86396063D01*
X147738877Y-86395755D01*
X147746348Y-86391108D01*
X147751010Y-86387184D01*
X147751295Y-86386790D01*
X147755205Y-86383641D01*
X147756062Y-86383507D01*
X147754875Y-86386257D01*
G37*
G36*
X145556716Y-85960996D02*
G01*
X145565866Y-85961169D01*
X145580289Y-85961486D01*
X145599362Y-85961930D01*
X145622463Y-85962487D01*
X145648970Y-85963143D01*
X145678259Y-85963882D01*
X145709708Y-85964689D01*
X145715332Y-85964835D01*
X145755274Y-85965902D01*
X145789314Y-85966911D01*
X145818070Y-85967925D01*
X145842158Y-85969011D01*
X145862195Y-85970232D01*
X145878799Y-85971655D01*
X145892587Y-85973345D01*
X145904176Y-85975366D01*
X145914183Y-85977784D01*
X145923226Y-85980663D01*
X145931921Y-85984070D01*
X145940885Y-85988069D01*
X145942471Y-85988808D01*
X145961938Y-86000214D01*
X145980398Y-86015188D01*
X145996074Y-86032069D01*
X146007190Y-86049196D01*
X146007298Y-86049416D01*
X146015712Y-86073796D01*
X146017934Y-86099479D01*
X146014068Y-86126082D01*
X146004219Y-86153220D01*
X145988493Y-86180507D01*
X145966994Y-86207559D01*
X145962945Y-86211925D01*
X145929348Y-86242810D01*
X145891119Y-86269650D01*
X145849037Y-86292041D01*
X145803878Y-86309580D01*
X145756419Y-86321866D01*
X145747806Y-86323468D01*
X145738720Y-86324913D01*
X145729299Y-86326042D01*
X145718738Y-86326873D01*
X145706233Y-86327424D01*
X145690977Y-86327713D01*
X145672167Y-86327758D01*
X145648998Y-86327577D01*
X145620665Y-86327187D01*
X145597966Y-86326811D01*
X145551819Y-86325942D01*
X145511120Y-86325029D01*
X145476017Y-86324078D01*
X145446658Y-86323093D01*
X145423190Y-86322082D01*
X145405760Y-86321049D01*
X145394516Y-86320001D01*
X145389606Y-86318943D01*
X145389385Y-86318661D01*
X145390724Y-86315422D01*
X145394557Y-86306781D01*
X145400647Y-86293259D01*
X145408759Y-86275373D01*
X145418656Y-86253643D01*
X145430101Y-86228588D01*
X145442858Y-86200728D01*
X145456690Y-86170583D01*
X145471212Y-86138994D01*
X145485872Y-86107146D01*
X145499705Y-86077118D01*
X145512473Y-86049422D01*
X145523941Y-86024573D01*
X145533871Y-86003082D01*
X145542025Y-85985464D01*
X145548166Y-85972232D01*
X145552057Y-85963900D01*
X145553461Y-85960980D01*
X145556716Y-85960996D01*
G37*
G36*
X146288572Y-84204178D02*
G01*
X146294940Y-84204640D01*
X146295844Y-84204962D01*
X146297771Y-84208210D01*
X146302664Y-84216840D01*
X146310352Y-84230541D01*
X146320663Y-84249003D01*
X146333426Y-84271915D01*
X146348469Y-84298968D01*
X146365621Y-84329849D01*
X146384709Y-84364249D01*
X146405563Y-84401857D01*
X146428011Y-84442363D01*
X146451881Y-84485455D01*
X146477001Y-84530825D01*
X146503200Y-84578160D01*
X146530306Y-84627150D01*
X146558149Y-84677485D01*
X146586555Y-84728854D01*
X146615353Y-84780947D01*
X146644373Y-84833453D01*
X146673442Y-84886061D01*
X146702388Y-84938462D01*
X146731041Y-84990344D01*
X146759227Y-85041396D01*
X146786777Y-85091309D01*
X146813518Y-85139772D01*
X146839279Y-85186474D01*
X146863888Y-85231105D01*
X146887173Y-85273353D01*
X146908963Y-85312909D01*
X146929086Y-85349462D01*
X146947371Y-85382702D01*
X146963645Y-85412317D01*
X146977738Y-85437998D01*
X146989478Y-85459433D01*
X146998694Y-85476312D01*
X147005212Y-85488325D01*
X147008863Y-85495162D01*
X147009620Y-85496699D01*
X147006543Y-85497010D01*
X146997298Y-85497304D01*
X146981870Y-85497583D01*
X146960239Y-85497847D01*
X146932389Y-85498095D01*
X146898300Y-85498328D01*
X146857957Y-85498545D01*
X146811341Y-85498747D01*
X146758433Y-85498934D01*
X146699218Y-85499105D01*
X146633676Y-85499262D01*
X146561791Y-85499403D01*
X146483544Y-85499529D01*
X146398918Y-85499640D01*
X146307895Y-85499736D01*
X146210457Y-85499817D01*
X146106587Y-85499884D01*
X145996267Y-85499935D01*
X145879480Y-85499971D01*
X145756206Y-85499993D01*
X145630567Y-85500000D01*
X144251515Y-85500000D01*
X144251786Y-85482884D01*
X144252788Y-85469603D01*
X144255050Y-85454463D01*
X144256744Y-85446390D01*
X144260657Y-85433333D01*
X144267060Y-85415635D01*
X144275461Y-85394454D01*
X144285366Y-85370950D01*
X144296283Y-85346279D01*
X144307719Y-85321599D01*
X144319181Y-85298069D01*
X144323416Y-85289719D01*
X144366960Y-85211355D01*
X144416742Y-85133559D01*
X144472485Y-85056657D01*
X144533911Y-84980973D01*
X144600743Y-84906834D01*
X144672703Y-84834566D01*
X144749514Y-84764493D01*
X144824101Y-84702344D01*
X144920957Y-84629125D01*
X145020724Y-84561725D01*
X145123411Y-84500141D01*
X145229032Y-84444368D01*
X145337599Y-84394401D01*
X145449124Y-84350236D01*
X145563618Y-84311867D01*
X145681094Y-84279290D01*
X145801563Y-84252502D01*
X145925038Y-84231495D01*
X146051530Y-84216267D01*
X146077211Y-84213913D01*
X146097497Y-84212295D01*
X146120271Y-84210726D01*
X146144671Y-84209241D01*
X146169835Y-84207876D01*
X146194900Y-84206666D01*
X146219005Y-84205647D01*
X146241286Y-84204853D01*
X146260883Y-84204320D01*
X146276932Y-84204084D01*
X146288572Y-84204178D01*
G37*
G36*
X147405760Y-84001545D02*
G01*
X147417173Y-84008113D01*
X147427182Y-84016134D01*
X147430950Y-84020303D01*
X147434664Y-84026020D01*
X147440916Y-84036500D01*
X147449302Y-84051011D01*
X147459419Y-84068816D01*
X147470861Y-84089181D01*
X147483227Y-84111372D01*
X147496111Y-84134655D01*
X147509111Y-84158293D01*
X147521822Y-84181554D01*
X147533841Y-84203702D01*
X147544764Y-84224002D01*
X147554188Y-84241721D01*
X147561709Y-84256123D01*
X147566922Y-84266473D01*
X147569425Y-84272038D01*
X147569571Y-84272543D01*
X147568277Y-84280098D01*
X147562071Y-84286750D01*
X147559768Y-84288450D01*
X147557178Y-84289849D01*
X147553684Y-84290977D01*
X147548671Y-84291862D01*
X147541521Y-84292534D01*
X147531620Y-84293023D01*
X147518350Y-84293357D01*
X147501096Y-84293567D01*
X147479241Y-84293680D01*
X147452169Y-84293727D01*
X147419263Y-84293736D01*
X147415072Y-84293736D01*
X147385774Y-84293776D01*
X147358595Y-84293889D01*
X147334207Y-84294068D01*
X147313279Y-84294303D01*
X147296483Y-84294587D01*
X147284488Y-84294911D01*
X147277966Y-84295266D01*
X147276954Y-84295476D01*
X147278475Y-84298586D01*
X147282845Y-84306874D01*
X147289772Y-84319804D01*
X147298966Y-84336840D01*
X147310138Y-84357446D01*
X147322995Y-84381083D01*
X147337248Y-84407217D01*
X147352607Y-84435311D01*
X147359048Y-84447074D01*
X147441141Y-84596932D01*
X147582970Y-84596932D01*
X147617198Y-84596945D01*
X147645533Y-84596999D01*
X147668602Y-84597122D01*
X147687031Y-84597339D01*
X147701449Y-84597677D01*
X147712481Y-84598163D01*
X147720756Y-84598822D01*
X147726899Y-84599681D01*
X147731539Y-84600766D01*
X147735302Y-84602103D01*
X147738251Y-84603444D01*
X147748776Y-84609685D01*
X147758191Y-84617089D01*
X147760039Y-84618930D01*
X147763204Y-84623466D01*
X147768983Y-84632877D01*
X147776979Y-84646450D01*
X147786797Y-84663472D01*
X147798042Y-84683229D01*
X147810318Y-84705007D01*
X147823230Y-84728092D01*
X147836383Y-84751771D01*
X147849381Y-84775330D01*
X147861829Y-84798056D01*
X147873331Y-84819235D01*
X147883492Y-84838153D01*
X147891918Y-84854097D01*
X147898211Y-84866353D01*
X147901978Y-84874207D01*
X147902907Y-84876807D01*
X147900769Y-84881698D01*
X147895556Y-84888201D01*
X147894905Y-84888866D01*
X147886903Y-84896868D01*
X147748197Y-84896868D01*
X147718837Y-84896924D01*
X147691596Y-84897082D01*
X147667144Y-84897332D01*
X147646149Y-84897662D01*
X147629280Y-84898059D01*
X147617207Y-84898512D01*
X147610598Y-84899010D01*
X147609532Y-84899313D01*
X147611069Y-84902560D01*
X147615469Y-84910968D01*
X147622434Y-84923991D01*
X147631671Y-84941086D01*
X147642883Y-84961709D01*
X147655775Y-84985315D01*
X147670051Y-85011359D01*
X147685417Y-85039297D01*
X147690471Y-85048466D01*
X147771369Y-85195174D01*
X147912937Y-85196804D01*
X147947041Y-85197205D01*
X147975257Y-85197574D01*
X147998221Y-85197948D01*
X148016563Y-85198363D01*
X148030919Y-85198855D01*
X148041921Y-85199461D01*
X148050202Y-85200217D01*
X148056395Y-85201160D01*
X148061135Y-85202325D01*
X148065053Y-85203750D01*
X148068783Y-85205471D01*
X148069450Y-85205798D01*
X148079949Y-85211838D01*
X148089102Y-85218535D01*
X148091884Y-85221135D01*
X148094952Y-85225556D01*
X148100802Y-85235094D01*
X148109090Y-85249147D01*
X148119468Y-85267111D01*
X148131592Y-85288383D01*
X148145114Y-85312360D01*
X148159689Y-85338440D01*
X148173713Y-85363739D01*
X148248051Y-85498370D01*
X147806232Y-85500000D01*
X147364412Y-85501630D01*
X146952978Y-86248209D01*
X146917171Y-86313183D01*
X146882170Y-86376692D01*
X146848107Y-86438498D01*
X146815113Y-86498362D01*
X146783320Y-86556045D01*
X146752860Y-86611309D01*
X146723865Y-86663913D01*
X146696466Y-86713619D01*
X146670795Y-86760189D01*
X146646984Y-86803383D01*
X146625164Y-86842962D01*
X146605467Y-86878687D01*
X146588026Y-86910320D01*
X146572971Y-86937621D01*
X146560435Y-86960351D01*
X146550548Y-86978272D01*
X146543444Y-86991144D01*
X146539253Y-86998729D01*
X146538094Y-87000816D01*
X146536882Y-87001833D01*
X146534699Y-87001656D01*
X146531141Y-86999960D01*
X146525806Y-86996420D01*
X146518288Y-86990710D01*
X146508185Y-86982507D01*
X146495093Y-86971484D01*
X146478608Y-86957317D01*
X146458326Y-86939680D01*
X146433844Y-86918249D01*
X146415144Y-86901830D01*
X146391452Y-86880968D01*
X146369322Y-86861400D01*
X146349226Y-86843550D01*
X146331634Y-86827838D01*
X146317015Y-86814685D01*
X146305841Y-86804515D01*
X146298583Y-86797749D01*
X146295710Y-86794808D01*
X146295682Y-86794737D01*
X146297242Y-86791731D01*
X146301821Y-86783277D01*
X146309279Y-86769628D01*
X146319475Y-86751040D01*
X146332268Y-86727768D01*
X146347519Y-86700065D01*
X146365085Y-86668187D01*
X146384827Y-86632389D01*
X146406605Y-86592925D01*
X146430277Y-86550049D01*
X146455703Y-86504017D01*
X146482742Y-86455084D01*
X146511254Y-86403504D01*
X146541098Y-86349531D01*
X146572134Y-86293421D01*
X146604221Y-86235428D01*
X146637219Y-86175807D01*
X146653485Y-86146422D01*
X147011250Y-85500186D01*
X147186484Y-85500093D01*
X147219601Y-85500031D01*
X147250670Y-85499888D01*
X147279098Y-85499672D01*
X147304290Y-85499391D01*
X147325650Y-85499055D01*
X147342583Y-85498672D01*
X147354494Y-85498250D01*
X147360789Y-85497798D01*
X147361646Y-85497555D01*
X147360086Y-85494525D01*
X147355508Y-85486023D01*
X147348042Y-85472285D01*
X147337817Y-85453547D01*
X147324963Y-85430048D01*
X147309611Y-85402024D01*
X147291891Y-85369710D01*
X147271933Y-85333346D01*
X147249868Y-85293166D01*
X147225824Y-85249409D01*
X147199933Y-85202311D01*
X147172325Y-85152108D01*
X147143129Y-85099039D01*
X147112476Y-85043338D01*
X147080496Y-84985245D01*
X147047320Y-84924994D01*
X147013076Y-84862824D01*
X146977896Y-84798970D01*
X146948303Y-84745270D01*
X146535034Y-83995431D01*
X146961913Y-83994603D01*
X147388791Y-83993777D01*
X147405760Y-84001545D01*
G37*
D12*
%TO.C,R5*%
X142060129Y-74153675D02*
X141585613Y-74153675D01*
X142060129Y-75198675D02*
X141585613Y-75198675D01*
%TO.C,R3*%
X137237258Y-76977500D02*
X136762742Y-76977500D01*
X137237258Y-78022500D02*
X136762742Y-78022500D01*
%TO.C,JP1*%
X125420000Y-76170000D02*
X126750000Y-76170000D01*
X125420000Y-77500000D02*
X125420000Y-76170000D01*
X125420000Y-78770000D02*
X125420000Y-81370000D01*
X125420000Y-78770000D02*
X128080000Y-78770000D01*
X125420000Y-81370000D02*
X128080000Y-81370000D01*
X128080000Y-78770000D02*
X128080000Y-81370000D01*
%TO.C,C10*%
X125740000Y-85109420D02*
X125740000Y-85390580D01*
X126760000Y-85109420D02*
X126760000Y-85390580D01*
%TO.C,U3*%
X148075000Y-75940000D02*
X146125000Y-75940000D01*
X148075000Y-75940000D02*
X150025000Y-75940000D01*
X148075000Y-81060000D02*
X146125000Y-81060000D01*
X148075000Y-81060000D02*
X150025000Y-81060000D01*
X145375000Y-76035000D02*
X145135000Y-75705000D01*
X145615000Y-75705000D01*
X145375000Y-76035000D01*
G36*
X145375000Y-76035000D02*
G01*
X145135000Y-75705000D01*
X145615000Y-75705000D01*
X145375000Y-76035000D01*
G37*
%TO.C,R4*%
X141584926Y-83045746D02*
X142059442Y-83045746D01*
X141584926Y-84090746D02*
X142059442Y-84090746D01*
%TO.C,C1*%
X141940580Y-72490000D02*
X141659420Y-72490000D01*
X141940580Y-73510000D02*
X141659420Y-73510000D01*
%TO.C,U2*%
X136575000Y-71345000D02*
X134625000Y-71345000D01*
X136575000Y-71345000D02*
X138525000Y-71345000D01*
X136575000Y-76465000D02*
X134625000Y-76465000D01*
X136575000Y-76465000D02*
X138525000Y-76465000D01*
X133875000Y-71440000D02*
X133635000Y-71110000D01*
X134115000Y-71110000D01*
X133875000Y-71440000D01*
G36*
X133875000Y-71440000D02*
G01*
X133635000Y-71110000D01*
X134115000Y-71110000D01*
X133875000Y-71440000D01*
G37*
%TO.C,R6*%
X147762742Y-74477500D02*
X148237258Y-74477500D01*
X147762742Y-75522500D02*
X148237258Y-75522500D01*
%TO.C,C4*%
X141962764Y-81558246D02*
X141681604Y-81558246D01*
X141962764Y-82578246D02*
X141681604Y-82578246D01*
%TO.C,J5*%
X115920000Y-79810000D02*
X115920000Y-74670000D01*
X118580000Y-74670000D02*
X115920000Y-74670000D01*
X118580000Y-79810000D02*
X115920000Y-79810000D01*
X118580000Y-79810000D02*
X118580000Y-74670000D01*
X118580000Y-81080000D02*
X118580000Y-82410000D01*
X118580000Y-82410000D02*
X117250000Y-82410000D01*
%TO.C,D2*%
X116700000Y-74235000D02*
X118985000Y-74235000D01*
X118985000Y-72765000D02*
X116700000Y-72765000D01*
X118985000Y-74235000D02*
X118985000Y-72765000D01*
%TO.C,C6*%
X151359420Y-81490000D02*
X151640580Y-81490000D01*
X151359420Y-82510000D02*
X151640580Y-82510000D01*
%TO.C,U7*%
X129262500Y-71990000D02*
X128462500Y-71990000D01*
X129262500Y-71990000D02*
X130062500Y-71990000D01*
X129262500Y-75110000D02*
X128462500Y-75110000D01*
X129262500Y-75110000D02*
X130062500Y-75110000D01*
X127962500Y-72040000D02*
X127722500Y-71710000D01*
X128202500Y-71710000D01*
X127962500Y-72040000D01*
G36*
X127962500Y-72040000D02*
G01*
X127722500Y-71710000D01*
X128202500Y-71710000D01*
X127962500Y-72040000D01*
G37*
%TO.C,C3*%
X141962764Y-84558246D02*
X141681604Y-84558246D01*
X141962764Y-85578246D02*
X141681604Y-85578246D01*
%TO.C,U1*%
X136575000Y-80535000D02*
X134625000Y-80535000D01*
X136575000Y-80535000D02*
X138525000Y-80535000D01*
X136575000Y-85655000D02*
X134625000Y-85655000D01*
X136575000Y-85655000D02*
X138525000Y-85655000D01*
X133875000Y-80630000D02*
X133635000Y-80300000D01*
X134115000Y-80300000D01*
X133875000Y-80630000D01*
G36*
X133875000Y-80630000D02*
G01*
X133635000Y-80300000D01*
X134115000Y-80300000D01*
X133875000Y-80630000D01*
G37*
%TO.C,C2*%
X141940580Y-75890000D02*
X141659420Y-75890000D01*
X141940580Y-76910000D02*
X141659420Y-76910000D01*
%TO.C,C7*%
X131590000Y-84859420D02*
X131590000Y-85140580D01*
X132610000Y-84859420D02*
X132610000Y-85140580D01*
%TO.C,D1*%
X116227500Y-83265000D02*
X116227500Y-84735000D01*
X116227500Y-84735000D02*
X118512500Y-84735000D01*
X118512500Y-83265000D02*
X116227500Y-83265000D01*
%TO.C,R7*%
X147762742Y-81477500D02*
X148237258Y-81477500D01*
X147762742Y-82522500D02*
X148237258Y-82522500D01*
%TO.C,C8*%
X131590000Y-71659420D02*
X131590000Y-71940580D01*
X132610000Y-71659420D02*
X132610000Y-71940580D01*
%TO.C,C9*%
X125359420Y-71990000D02*
X125640580Y-71990000D01*
X125359420Y-73010000D02*
X125640580Y-73010000D01*
%TD*%
M02*
