%TF.GenerationSoftware,KiCad,Pcbnew,8.0.1*%
%TF.CreationDate,2024-10-18T10:30:41+02:00*%
%TF.ProjectId,Curmea,4375726d-6561-42e6-9b69-6361645f7063,rev?*%
%TF.SameCoordinates,Original*%
%TF.FileFunction,Soldermask,Top*%
%TF.FilePolarity,Negative*%
%FSLAX46Y46*%
G04 Gerber Fmt 4.6, Leading zero omitted, Abs format (unit mm)*
G04 Created by KiCad (PCBNEW 8.0.1) date 2024-10-18 10:30:41*
%MOMM*%
%LPD*%
G01*
G04 APERTURE LIST*
G04 Aperture macros list*
%AMRoundRect*
0 Rectangle with rounded corners*
0 $1 Rounding radius*
0 $2 $3 $4 $5 $6 $7 $8 $9 X,Y pos of 4 corners*
0 Add a 4 corners polygon primitive as box body*
4,1,4,$2,$3,$4,$5,$6,$7,$8,$9,$2,$3,0*
0 Add four circle primitives for the rounded corners*
1,1,$1+$1,$2,$3*
1,1,$1+$1,$4,$5*
1,1,$1+$1,$6,$7*
1,1,$1+$1,$8,$9*
0 Add four rect primitives between the rounded corners*
20,1,$1+$1,$2,$3,$4,$5,0*
20,1,$1+$1,$4,$5,$6,$7,0*
20,1,$1+$1,$6,$7,$8,$9,0*
20,1,$1+$1,$8,$9,$2,$3,0*%
G04 Aperture macros list end*
%ADD10RoundRect,0.150000X-0.512500X-0.150000X0.512500X-0.150000X0.512500X0.150000X-0.512500X0.150000X0*%
%ADD11R,1.700000X1.700000*%
%ADD12O,1.700000X1.700000*%
%ADD13C,1.440000*%
%ADD14RoundRect,0.200000X-0.275000X0.200000X-0.275000X-0.200000X0.275000X-0.200000X0.275000X0.200000X0*%
%ADD15RoundRect,0.225000X0.250000X-0.225000X0.250000X0.225000X-0.250000X0.225000X-0.250000X-0.225000X0*%
%ADD16RoundRect,0.200000X-0.200000X-0.275000X0.200000X-0.275000X0.200000X0.275000X-0.200000X0.275000X0*%
%ADD17RoundRect,0.200000X0.200000X0.275000X-0.200000X0.275000X-0.200000X-0.275000X0.200000X-0.275000X0*%
%ADD18RoundRect,0.225000X-0.250000X0.225000X-0.250000X-0.225000X0.250000X-0.225000X0.250000X0.225000X0*%
%ADD19RoundRect,0.150000X-0.725000X-0.150000X0.725000X-0.150000X0.725000X0.150000X-0.725000X0.150000X0*%
%ADD20RoundRect,0.225000X0.225000X0.250000X-0.225000X0.250000X-0.225000X-0.250000X0.225000X-0.250000X0*%
%ADD21C,0.800000*%
%ADD22R,2.500000X1.000000*%
%ADD23R,6.400000X1.440000*%
%ADD24RoundRect,0.218750X0.218750X0.256250X-0.218750X0.256250X-0.218750X-0.256250X0.218750X-0.256250X0*%
%ADD25RoundRect,0.225000X-0.225000X-0.250000X0.225000X-0.250000X0.225000X0.250000X-0.225000X0.250000X0*%
%ADD26RoundRect,0.218750X-0.218750X-0.256250X0.218750X-0.256250X0.218750X0.256250X-0.218750X0.256250X0*%
G04 APERTURE END LIST*
D10*
%TO.C,U6*%
X128062500Y-82750000D03*
X128062500Y-83700000D03*
X128062500Y-84650000D03*
X130337500Y-84650000D03*
X130337500Y-82750000D03*
%TD*%
D11*
%TO.C,J3*%
X131000000Y-80040000D03*
D12*
X131000000Y-77500000D03*
%TD*%
D13*
%TO.C,RV1*%
X122000000Y-76500000D03*
X122000000Y-79040000D03*
X122000000Y-81580000D03*
%TD*%
D14*
%TO.C,R1*%
X134500000Y-77675000D03*
X134500000Y-79325000D03*
%TD*%
D15*
%TO.C,C5*%
X152750000Y-76275000D03*
X152750000Y-74725000D03*
%TD*%
D16*
%TO.C,R2*%
X136175000Y-79500000D03*
X137825000Y-79500000D03*
%TD*%
D17*
%TO.C,R5*%
X142647871Y-74676175D03*
X140997871Y-74676175D03*
%TD*%
%TO.C,R3*%
X137825000Y-77500000D03*
X136175000Y-77500000D03*
%TD*%
D11*
%TO.C,JP1*%
X126750000Y-77500000D03*
D12*
X126750000Y-80040000D03*
%TD*%
D18*
%TO.C,C10*%
X126250000Y-84475000D03*
X126250000Y-86025000D03*
%TD*%
D19*
%TO.C,U3*%
X145500000Y-76595000D03*
X145500000Y-77865000D03*
X145500000Y-79135000D03*
X145500000Y-80405000D03*
X150650000Y-80405000D03*
X150650000Y-79135000D03*
X150650000Y-77865000D03*
X150650000Y-76595000D03*
%TD*%
D16*
%TO.C,R4*%
X140997184Y-83568246D03*
X142647184Y-83568246D03*
%TD*%
D20*
%TO.C,C1*%
X142575000Y-73000000D03*
X141025000Y-73000000D03*
%TD*%
D19*
%TO.C,U2*%
X134000000Y-72000000D03*
X134000000Y-73270000D03*
X134000000Y-74540000D03*
X134000000Y-75810000D03*
X139150000Y-75810000D03*
X139150000Y-74540000D03*
X139150000Y-73270000D03*
X139150000Y-72000000D03*
%TD*%
D16*
%TO.C,R6*%
X147175000Y-75000000D03*
X148825000Y-75000000D03*
%TD*%
D20*
%TO.C,C4*%
X142597184Y-82068246D03*
X141047184Y-82068246D03*
%TD*%
D21*
%TO.C,J1*%
X154700000Y-82340000D03*
X154700000Y-75220000D03*
D22*
X153250000Y-78780000D03*
D23*
X158500000Y-83060000D03*
X158500000Y-74500000D03*
%TD*%
D11*
%TO.C,J5*%
X117250000Y-81080000D03*
D12*
X117250000Y-78540000D03*
X117250000Y-76000000D03*
%TD*%
D24*
%TO.C,D2*%
X118287500Y-73500000D03*
X116712500Y-73500000D03*
%TD*%
D25*
%TO.C,C6*%
X150725000Y-82000000D03*
X152275000Y-82000000D03*
%TD*%
D10*
%TO.C,U7*%
X128125000Y-72600000D03*
X128125000Y-73550000D03*
X128125000Y-74500000D03*
X130400000Y-74500000D03*
X130400000Y-72600000D03*
%TD*%
D20*
%TO.C,C3*%
X142597184Y-85068246D03*
X141047184Y-85068246D03*
%TD*%
D19*
%TO.C,U1*%
X134000000Y-81190000D03*
X134000000Y-82460000D03*
X134000000Y-83730000D03*
X134000000Y-85000000D03*
X139150000Y-85000000D03*
X139150000Y-83730000D03*
X139150000Y-82460000D03*
X139150000Y-81190000D03*
%TD*%
D20*
%TO.C,C2*%
X142575000Y-76400000D03*
X141025000Y-76400000D03*
%TD*%
D18*
%TO.C,C7*%
X132100000Y-84225000D03*
X132100000Y-85775000D03*
%TD*%
D26*
%TO.C,D1*%
X116925000Y-84000000D03*
X118500000Y-84000000D03*
%TD*%
D16*
%TO.C,R7*%
X147175000Y-82000000D03*
X148825000Y-82000000D03*
%TD*%
D18*
%TO.C,C8*%
X132100000Y-71025000D03*
X132100000Y-72575000D03*
%TD*%
D25*
%TO.C,C9*%
X124725000Y-72500000D03*
X126275000Y-72500000D03*
%TD*%
M02*
