%TF.GenerationSoftware,KiCad,Pcbnew,8.0.1*%
%TF.CreationDate,2024-10-18T10:30:41+02:00*%
%TF.ProjectId,Curmea,4375726d-6561-42e6-9b69-6361645f7063,rev?*%
%TF.SameCoordinates,Original*%
%TF.FileFunction,Copper,L2,Bot*%
%TF.FilePolarity,Positive*%
%FSLAX46Y46*%
G04 Gerber Fmt 4.6, Leading zero omitted, Abs format (unit mm)*
G04 Created by KiCad (PCBNEW 8.0.1) date 2024-10-18 10:30:41*
%MOMM*%
%LPD*%
G01*
G04 APERTURE LIST*
%TA.AperFunction,ComponentPad*%
%ADD10R,1.700000X1.700000*%
%TD*%
%TA.AperFunction,ComponentPad*%
%ADD11O,1.700000X1.700000*%
%TD*%
%TA.AperFunction,ComponentPad*%
%ADD12C,1.440000*%
%TD*%
%TA.AperFunction,ViaPad*%
%ADD13C,0.600000*%
%TD*%
%TA.AperFunction,Conductor*%
%ADD14C,1.000000*%
%TD*%
G04 APERTURE END LIST*
D10*
%TO.P,J3,1,Pin_1*%
%TO.N,/IN+*%
X131000000Y-80040000D03*
D11*
%TO.P,J3,2,Pin_2*%
%TO.N,/IN-*%
X131000000Y-77500000D03*
%TD*%
D12*
%TO.P,RV1,1,1*%
%TO.N,/IN-*%
X122000000Y-76500000D03*
%TO.P,RV1,2,2*%
%TO.N,/IN+*%
X122000000Y-79040000D03*
%TO.P,RV1,3,3*%
%TO.N,unconnected-(RV1-Pad3)*%
X122000000Y-81580000D03*
%TD*%
D10*
%TO.P,JP1,1,A*%
%TO.N,/IN-*%
X126750000Y-77500000D03*
D11*
%TO.P,JP1,2,B*%
%TO.N,/IN+*%
X126750000Y-80040000D03*
%TD*%
D10*
%TO.P,J5,1,Pin_1*%
%TO.N,Net-(D1-K)*%
X117250000Y-81080000D03*
D11*
%TO.P,J5,2,Pin_2*%
%TO.N,GND*%
X117250000Y-78540000D03*
%TO.P,J5,3,Pin_3*%
%TO.N,Net-(D2-A)*%
X117250000Y-76000000D03*
%TD*%
D13*
%TO.N,GND*%
X149500000Y-83000000D03*
X123000000Y-71500000D03*
X120500000Y-81500000D03*
X135500000Y-70500000D03*
X136750080Y-80737321D03*
X129500000Y-70500000D03*
X127500000Y-87000000D03*
X133309020Y-79758839D03*
X153500000Y-81000000D03*
X158000000Y-72500000D03*
X143550000Y-81500000D03*
X156500000Y-85000000D03*
X143500763Y-86079765D03*
X119000000Y-77000000D03*
X143530000Y-85000000D03*
X123000000Y-72500000D03*
X120500000Y-79000000D03*
X152000000Y-73500000D03*
X119000000Y-80000000D03*
X132000000Y-86750000D03*
X143000000Y-80000000D03*
X128000000Y-86500000D03*
X124000000Y-71000000D03*
X143561323Y-76400000D03*
X136763746Y-76054803D03*
X124500000Y-86500000D03*
X153250000Y-73750000D03*
X156500000Y-72500000D03*
X125000000Y-87000000D03*
X152500000Y-80500000D03*
X151500000Y-75000000D03*
X158000000Y-85000000D03*
X159500000Y-85000000D03*
X133000000Y-71000000D03*
X140300083Y-86158004D03*
X123500000Y-76000000D03*
X159500000Y-72500000D03*
X123500000Y-73500000D03*
X133273404Y-77230122D03*
X153250000Y-82750000D03*
X120500000Y-76500000D03*
X123500000Y-83000000D03*
X143520000Y-73000000D03*
%TO.N,+2V5*%
X149340000Y-77840000D03*
X136900000Y-73600000D03*
X140750000Y-79500000D03*
X132100000Y-73600000D03*
%TO.N,-2V5*%
X149200000Y-80400000D03*
X137750000Y-84300000D03*
X139000000Y-79500000D03*
X130250000Y-83750000D03*
%TD*%
D14*
%TO.N,+2V5*%
X140750000Y-79500000D02*
X140750000Y-77552944D01*
X140750000Y-77552944D02*
X140750000Y-77450000D01*
X149340000Y-77840000D02*
X141037056Y-77840000D01*
X141037056Y-77840000D02*
X140750000Y-77552944D01*
X140750000Y-77450000D02*
X136900000Y-73600000D01*
X136900000Y-73600000D02*
X132100000Y-73600000D01*
%TO.N,-2V5*%
X137750000Y-80750000D02*
X137750000Y-84300000D01*
X137750000Y-84300000D02*
X142315786Y-84300000D01*
X130800000Y-84300000D02*
X130250000Y-83750000D01*
X142315786Y-84300000D02*
X146215786Y-80400000D01*
X146215786Y-80400000D02*
X149200000Y-80400000D01*
X137750000Y-84300000D02*
X130800000Y-84300000D01*
X139000000Y-79500000D02*
X137750000Y-80750000D01*
%TD*%
%TA.AperFunction,Conductor*%
%TO.N,GND*%
G36*
X159016177Y-70020185D02*
G01*
X159036819Y-70036819D01*
X161713181Y-72713181D01*
X161746666Y-72774504D01*
X161749500Y-72800862D01*
X161749500Y-74625500D01*
X161729815Y-74692539D01*
X161677011Y-74738294D01*
X161625500Y-74749500D01*
X155200808Y-74749500D01*
X155133769Y-74729815D01*
X155119561Y-74718366D01*
X155119379Y-74718589D01*
X155114668Y-74714723D01*
X155008133Y-74643538D01*
X155008124Y-74643533D01*
X154889744Y-74594499D01*
X154889738Y-74594497D01*
X154764071Y-74569500D01*
X154764069Y-74569500D01*
X154635931Y-74569500D01*
X154635929Y-74569500D01*
X154510261Y-74594497D01*
X154510255Y-74594499D01*
X154391875Y-74643533D01*
X154391866Y-74643538D01*
X154285331Y-74714723D01*
X154285327Y-74714726D01*
X154194726Y-74805327D01*
X154194723Y-74805331D01*
X154123538Y-74911866D01*
X154123533Y-74911875D01*
X154074499Y-75030255D01*
X154074497Y-75030261D01*
X154049500Y-75155928D01*
X154049500Y-75155931D01*
X154049500Y-75284069D01*
X154049500Y-75284071D01*
X154049499Y-75284071D01*
X154074497Y-75409738D01*
X154074499Y-75409744D01*
X154123533Y-75528124D01*
X154123538Y-75528133D01*
X154194723Y-75634668D01*
X154194725Y-75634671D01*
X154213179Y-75653124D01*
X154246666Y-75714446D01*
X154249500Y-75740807D01*
X154249500Y-81819192D01*
X154229815Y-81886231D01*
X154213181Y-81906873D01*
X154194726Y-81925327D01*
X154194723Y-81925331D01*
X154123538Y-82031866D01*
X154123533Y-82031875D01*
X154074499Y-82150255D01*
X154074497Y-82150261D01*
X154049500Y-82275928D01*
X154049500Y-82275931D01*
X154049500Y-82404069D01*
X154049500Y-82404071D01*
X154049499Y-82404071D01*
X154074497Y-82529738D01*
X154074499Y-82529744D01*
X154123533Y-82648124D01*
X154123538Y-82648133D01*
X154194723Y-82754668D01*
X154194726Y-82754672D01*
X154285327Y-82845273D01*
X154285331Y-82845276D01*
X154391866Y-82916461D01*
X154391872Y-82916464D01*
X154391873Y-82916465D01*
X154510256Y-82965501D01*
X154510260Y-82965501D01*
X154510261Y-82965502D01*
X154635928Y-82990500D01*
X154635931Y-82990500D01*
X154764071Y-82990500D01*
X154848615Y-82973682D01*
X154889744Y-82965501D01*
X155008127Y-82916465D01*
X155114669Y-82845276D01*
X155173127Y-82786817D01*
X155234448Y-82753334D01*
X155260807Y-82750500D01*
X161625500Y-82750500D01*
X161692539Y-82770185D01*
X161738294Y-82822989D01*
X161749500Y-82874500D01*
X161749500Y-84699138D01*
X161729815Y-84766177D01*
X161713181Y-84786819D01*
X159036819Y-87463181D01*
X158975496Y-87496666D01*
X158949138Y-87499500D01*
X117050862Y-87499500D01*
X116983823Y-87479815D01*
X116963181Y-87463181D01*
X114036819Y-84536819D01*
X114003334Y-84475496D01*
X114000500Y-84449138D01*
X114000500Y-83818996D01*
X129549499Y-83818996D01*
X129576418Y-83954322D01*
X129576421Y-83954332D01*
X129629222Y-84081807D01*
X129705887Y-84196545D01*
X129705888Y-84196546D01*
X130255886Y-84746542D01*
X130353456Y-84844112D01*
X130353459Y-84844115D01*
X130468182Y-84920771D01*
X130468186Y-84920773D01*
X130468189Y-84920775D01*
X130542866Y-84951707D01*
X130542867Y-84951707D01*
X130542869Y-84951709D01*
X130595666Y-84973578D01*
X130595671Y-84973580D01*
X130595680Y-84973581D01*
X130595681Y-84973582D01*
X130622545Y-84978925D01*
X130622551Y-84978926D01*
X130622591Y-84978934D01*
X130712937Y-84996905D01*
X130731006Y-85000500D01*
X130731007Y-85000500D01*
X142384782Y-85000500D01*
X142493243Y-84978925D01*
X142520114Y-84973580D01*
X142583855Y-84947177D01*
X142647593Y-84920777D01*
X142647594Y-84920776D01*
X142647597Y-84920775D01*
X142762329Y-84844114D01*
X146469624Y-81136819D01*
X146530947Y-81103334D01*
X146557305Y-81100500D01*
X149268995Y-81100500D01*
X149360041Y-81082389D01*
X149404328Y-81073580D01*
X149531811Y-81020775D01*
X149646542Y-80944114D01*
X149744114Y-80846542D01*
X149820775Y-80731811D01*
X149873580Y-80604328D01*
X149885246Y-80545679D01*
X149900500Y-80468995D01*
X149900500Y-80331004D01*
X149873581Y-80195677D01*
X149873580Y-80195676D01*
X149873580Y-80195672D01*
X149864429Y-80173580D01*
X149820778Y-80068195D01*
X149820771Y-80068182D01*
X149744114Y-79953458D01*
X149744111Y-79953454D01*
X149646545Y-79855888D01*
X149646541Y-79855885D01*
X149531817Y-79779228D01*
X149531804Y-79779221D01*
X149404332Y-79726421D01*
X149404322Y-79726418D01*
X149268995Y-79699500D01*
X149268993Y-79699500D01*
X146284780Y-79699500D01*
X146146792Y-79699500D01*
X146146790Y-79699500D01*
X146011463Y-79726418D01*
X146011453Y-79726421D01*
X145883978Y-79779222D01*
X145769240Y-79855887D01*
X145769239Y-79855888D01*
X142061948Y-83563181D01*
X142000625Y-83596666D01*
X141974267Y-83599500D01*
X138574500Y-83599500D01*
X138507461Y-83579815D01*
X138461706Y-83527011D01*
X138450500Y-83475500D01*
X138450500Y-81091519D01*
X138470185Y-81024480D01*
X138486819Y-81003838D01*
X139544112Y-79946545D01*
X139544114Y-79946543D01*
X139620775Y-79831811D01*
X139623888Y-79824297D01*
X139647177Y-79768069D01*
X139673580Y-79704328D01*
X139700500Y-79568994D01*
X139700500Y-79431006D01*
X139700500Y-79431003D01*
X139673581Y-79295677D01*
X139673580Y-79295676D01*
X139673580Y-79295672D01*
X139647389Y-79232441D01*
X139620777Y-79168192D01*
X139544112Y-79053454D01*
X139446545Y-78955887D01*
X139331807Y-78879222D01*
X139204332Y-78826421D01*
X139204322Y-78826418D01*
X139068996Y-78799500D01*
X139068994Y-78799500D01*
X138931006Y-78799500D01*
X138931004Y-78799500D01*
X138795677Y-78826418D01*
X138795667Y-78826421D01*
X138668192Y-78879222D01*
X138553454Y-78955887D01*
X137205887Y-80303454D01*
X137129222Y-80418192D01*
X137076421Y-80545667D01*
X137076418Y-80545679D01*
X137051020Y-80673365D01*
X137051019Y-80673370D01*
X137049500Y-80681004D01*
X137049500Y-83475500D01*
X137029815Y-83542539D01*
X136977011Y-83588294D01*
X136925500Y-83599500D01*
X131141518Y-83599500D01*
X131074479Y-83579815D01*
X131053837Y-83563181D01*
X130696546Y-83205888D01*
X130696545Y-83205887D01*
X130581807Y-83129222D01*
X130454332Y-83076421D01*
X130454322Y-83076418D01*
X130318996Y-83049500D01*
X130318994Y-83049500D01*
X130181006Y-83049500D01*
X130181004Y-83049500D01*
X130045677Y-83076418D01*
X130045667Y-83076421D01*
X129918192Y-83129222D01*
X129803454Y-83205887D01*
X129705887Y-83303454D01*
X129629222Y-83418192D01*
X129576421Y-83545667D01*
X129576418Y-83545677D01*
X129549500Y-83681003D01*
X129549500Y-83681006D01*
X129549500Y-83818994D01*
X129549500Y-83818996D01*
X129549499Y-83818996D01*
X114000500Y-83818996D01*
X114000500Y-78790000D01*
X115919364Y-78790000D01*
X115976567Y-79003486D01*
X115976570Y-79003492D01*
X116076399Y-79217578D01*
X116211894Y-79411082D01*
X116378917Y-79578105D01*
X116572421Y-79713600D01*
X116742948Y-79793118D01*
X116795387Y-79839290D01*
X116814539Y-79906484D01*
X116794323Y-79973365D01*
X116741158Y-80018700D01*
X116690543Y-80029500D01*
X116380247Y-80029500D01*
X116321770Y-80041131D01*
X116321769Y-80041132D01*
X116255447Y-80085447D01*
X116211132Y-80151769D01*
X116211131Y-80151770D01*
X116199500Y-80210247D01*
X116199500Y-81949752D01*
X116211131Y-82008229D01*
X116211132Y-82008230D01*
X116255447Y-82074552D01*
X116321769Y-82118867D01*
X116321770Y-82118868D01*
X116380247Y-82130499D01*
X116380250Y-82130500D01*
X116380252Y-82130500D01*
X118119750Y-82130500D01*
X118119751Y-82130499D01*
X118134568Y-82127552D01*
X118178229Y-82118868D01*
X118178229Y-82118867D01*
X118178231Y-82118867D01*
X118244552Y-82074552D01*
X118288867Y-82008231D01*
X118288867Y-82008229D01*
X118288868Y-82008229D01*
X118300499Y-81949752D01*
X118300500Y-81949750D01*
X118300500Y-81580000D01*
X121074430Y-81580000D01*
X121094656Y-81772439D01*
X121094657Y-81772441D01*
X121154447Y-81956456D01*
X121154450Y-81956463D01*
X121251197Y-82124035D01*
X121380667Y-82267828D01*
X121380674Y-82267834D01*
X121537210Y-82381564D01*
X121537211Y-82381564D01*
X121537215Y-82381567D01*
X121681377Y-82445752D01*
X121713978Y-82460267D01*
X121713983Y-82460269D01*
X121903252Y-82500500D01*
X122096748Y-82500500D01*
X122286017Y-82460269D01*
X122462785Y-82381567D01*
X122619327Y-82267833D01*
X122748802Y-82124036D01*
X122845550Y-81956463D01*
X122905344Y-81772437D01*
X122925570Y-81580000D01*
X122905344Y-81387563D01*
X122845550Y-81203537D01*
X122748802Y-81035964D01*
X122719876Y-81003838D01*
X122619332Y-80892171D01*
X122619325Y-80892165D01*
X122462789Y-80778435D01*
X122462786Y-80778433D01*
X122462785Y-80778433D01*
X122358084Y-80731817D01*
X122286021Y-80699732D01*
X122286016Y-80699730D01*
X122096748Y-80659500D01*
X121903252Y-80659500D01*
X121713983Y-80699730D01*
X121713978Y-80699732D01*
X121537215Y-80778433D01*
X121537210Y-80778435D01*
X121380674Y-80892165D01*
X121380667Y-80892171D01*
X121251197Y-81035964D01*
X121154450Y-81203536D01*
X121154447Y-81203543D01*
X121094657Y-81387558D01*
X121094656Y-81387560D01*
X121074430Y-81580000D01*
X118300500Y-81580000D01*
X118300500Y-80210249D01*
X118300499Y-80210247D01*
X118288868Y-80151770D01*
X118288867Y-80151769D01*
X118244552Y-80085447D01*
X118178230Y-80041132D01*
X118178229Y-80041131D01*
X118172543Y-80040000D01*
X125694417Y-80040000D01*
X125714699Y-80245932D01*
X125714700Y-80245934D01*
X125774768Y-80443954D01*
X125872315Y-80626450D01*
X125872317Y-80626452D01*
X126003589Y-80786410D01*
X126076860Y-80846541D01*
X126163550Y-80917685D01*
X126346046Y-81015232D01*
X126544066Y-81075300D01*
X126544065Y-81075300D01*
X126562529Y-81077118D01*
X126750000Y-81095583D01*
X126955934Y-81075300D01*
X127153954Y-81015232D01*
X127336450Y-80917685D01*
X127346116Y-80909752D01*
X129949500Y-80909752D01*
X129961131Y-80968229D01*
X129961132Y-80968230D01*
X130005447Y-81034552D01*
X130071769Y-81078867D01*
X130071770Y-81078868D01*
X130130247Y-81090499D01*
X130130250Y-81090500D01*
X130130252Y-81090500D01*
X131869750Y-81090500D01*
X131869751Y-81090499D01*
X131884568Y-81087552D01*
X131928229Y-81078868D01*
X131928229Y-81078867D01*
X131928231Y-81078867D01*
X131994552Y-81034552D01*
X132038867Y-80968231D01*
X132038867Y-80968229D01*
X132038868Y-80968229D01*
X132050499Y-80909752D01*
X132050500Y-80909750D01*
X132050500Y-79170249D01*
X132050499Y-79170247D01*
X132038868Y-79111770D01*
X132038867Y-79111769D01*
X131994552Y-79045447D01*
X131928230Y-79001132D01*
X131928229Y-79001131D01*
X131869752Y-78989500D01*
X131869748Y-78989500D01*
X130130252Y-78989500D01*
X130130247Y-78989500D01*
X130071770Y-79001131D01*
X130071769Y-79001132D01*
X130005447Y-79045447D01*
X129961132Y-79111769D01*
X129961131Y-79111770D01*
X129949500Y-79170247D01*
X129949500Y-80909752D01*
X127346116Y-80909752D01*
X127496410Y-80786410D01*
X127627685Y-80626450D01*
X127725232Y-80443954D01*
X127785300Y-80245934D01*
X127805583Y-80040000D01*
X127785300Y-79834066D01*
X127725232Y-79636046D01*
X127627685Y-79453550D01*
X127575702Y-79390209D01*
X127496410Y-79293589D01*
X127346121Y-79170252D01*
X127336450Y-79162315D01*
X127153954Y-79064768D01*
X126955934Y-79004700D01*
X126955932Y-79004699D01*
X126955934Y-79004699D01*
X126750000Y-78984417D01*
X126544067Y-79004699D01*
X126346043Y-79064769D01*
X126258114Y-79111769D01*
X126163550Y-79162315D01*
X126163548Y-79162316D01*
X126163547Y-79162317D01*
X126003589Y-79293589D01*
X125872317Y-79453547D01*
X125774769Y-79636043D01*
X125714699Y-79834067D01*
X125694417Y-80040000D01*
X118172543Y-80040000D01*
X118119752Y-80029500D01*
X118119748Y-80029500D01*
X117809457Y-80029500D01*
X117742418Y-80009815D01*
X117696663Y-79957011D01*
X117686719Y-79887853D01*
X117715744Y-79824297D01*
X117757052Y-79793118D01*
X117927578Y-79713600D01*
X118121082Y-79578105D01*
X118288105Y-79411082D01*
X118423600Y-79217578D01*
X118506405Y-79040000D01*
X121074430Y-79040000D01*
X121094656Y-79232439D01*
X121094657Y-79232441D01*
X121154447Y-79416456D01*
X121154450Y-79416463D01*
X121251197Y-79584035D01*
X121380667Y-79727828D01*
X121380674Y-79727834D01*
X121537210Y-79841564D01*
X121537211Y-79841564D01*
X121537215Y-79841567D01*
X121681377Y-79905752D01*
X121713978Y-79920267D01*
X121713983Y-79920269D01*
X121903252Y-79960500D01*
X122096748Y-79960500D01*
X122286017Y-79920269D01*
X122462785Y-79841567D01*
X122619327Y-79727833D01*
X122620599Y-79726421D01*
X122701972Y-79636046D01*
X122748802Y-79584036D01*
X122845550Y-79416463D01*
X122905344Y-79232437D01*
X122925570Y-79040000D01*
X122905344Y-78847563D01*
X122845550Y-78663537D01*
X122748802Y-78495964D01*
X122729182Y-78474174D01*
X122635162Y-78369752D01*
X125699500Y-78369752D01*
X125711131Y-78428229D01*
X125711132Y-78428230D01*
X125755447Y-78494552D01*
X125821769Y-78538867D01*
X125821770Y-78538868D01*
X125880247Y-78550499D01*
X125880250Y-78550500D01*
X125880252Y-78550500D01*
X127619750Y-78550500D01*
X127619751Y-78550499D01*
X127634568Y-78547552D01*
X127678229Y-78538868D01*
X127678229Y-78538867D01*
X127678231Y-78538867D01*
X127744552Y-78494552D01*
X127788867Y-78428231D01*
X127788867Y-78428229D01*
X127788868Y-78428229D01*
X127800499Y-78369752D01*
X127800500Y-78369750D01*
X127800500Y-77500000D01*
X129944417Y-77500000D01*
X129964699Y-77705932D01*
X129984439Y-77771007D01*
X130024768Y-77903954D01*
X130122315Y-78086450D01*
X130122317Y-78086452D01*
X130253589Y-78246410D01*
X130350209Y-78325702D01*
X130413550Y-78377685D01*
X130596046Y-78475232D01*
X130794066Y-78535300D01*
X130794065Y-78535300D01*
X130812529Y-78537118D01*
X131000000Y-78555583D01*
X131205934Y-78535300D01*
X131403954Y-78475232D01*
X131586450Y-78377685D01*
X131746410Y-78246410D01*
X131877685Y-78086450D01*
X131975232Y-77903954D01*
X132035300Y-77705934D01*
X132055583Y-77500000D01*
X132035300Y-77294066D01*
X131975232Y-77096046D01*
X131877685Y-76913550D01*
X131825702Y-76850209D01*
X131746410Y-76753589D01*
X131596121Y-76630252D01*
X131586450Y-76622315D01*
X131403954Y-76524768D01*
X131205934Y-76464700D01*
X131205932Y-76464699D01*
X131205934Y-76464699D01*
X131000000Y-76444417D01*
X130794067Y-76464699D01*
X130596043Y-76524769D01*
X130508114Y-76571769D01*
X130413550Y-76622315D01*
X130413548Y-76622316D01*
X130413547Y-76622317D01*
X130253589Y-76753589D01*
X130122317Y-76913547D01*
X130024769Y-77096043D01*
X129964699Y-77294067D01*
X129944417Y-77500000D01*
X127800500Y-77500000D01*
X127800500Y-76630249D01*
X127800499Y-76630247D01*
X127788868Y-76571770D01*
X127788867Y-76571769D01*
X127744552Y-76505447D01*
X127678230Y-76461132D01*
X127678229Y-76461131D01*
X127619752Y-76449500D01*
X127619748Y-76449500D01*
X125880252Y-76449500D01*
X125880247Y-76449500D01*
X125821770Y-76461131D01*
X125821769Y-76461132D01*
X125755447Y-76505447D01*
X125711132Y-76571769D01*
X125711131Y-76571770D01*
X125699500Y-76630247D01*
X125699500Y-78369752D01*
X122635162Y-78369752D01*
X122619332Y-78352171D01*
X122619325Y-78352165D01*
X122462789Y-78238435D01*
X122462786Y-78238433D01*
X122462785Y-78238433D01*
X122398598Y-78209855D01*
X122286021Y-78159732D01*
X122286016Y-78159730D01*
X122096748Y-78119500D01*
X121903252Y-78119500D01*
X121713983Y-78159730D01*
X121713978Y-78159732D01*
X121537215Y-78238433D01*
X121537210Y-78238435D01*
X121380674Y-78352165D01*
X121380667Y-78352171D01*
X121251197Y-78495964D01*
X121154450Y-78663536D01*
X121154447Y-78663543D01*
X121094657Y-78847558D01*
X121094656Y-78847560D01*
X121074430Y-79040000D01*
X118506405Y-79040000D01*
X118523429Y-79003492D01*
X118523432Y-79003486D01*
X118580636Y-78790000D01*
X117683012Y-78790000D01*
X117715925Y-78732993D01*
X117750000Y-78605826D01*
X117750000Y-78474174D01*
X117715925Y-78347007D01*
X117683012Y-78290000D01*
X118580636Y-78290000D01*
X118580635Y-78289999D01*
X118523432Y-78076513D01*
X118523429Y-78076507D01*
X118423600Y-77862422D01*
X118423599Y-77862420D01*
X118288113Y-77668926D01*
X118288108Y-77668920D01*
X118121082Y-77501894D01*
X117927578Y-77366399D01*
X117713492Y-77266570D01*
X117713486Y-77266567D01*
X117591349Y-77233841D01*
X117531689Y-77197476D01*
X117501160Y-77134629D01*
X117509455Y-77065253D01*
X117553940Y-77011375D01*
X117587444Y-76995407D01*
X117653954Y-76975232D01*
X117836450Y-76877685D01*
X117996410Y-76746410D01*
X118127685Y-76586450D01*
X118173894Y-76500000D01*
X121074430Y-76500000D01*
X121094656Y-76692439D01*
X121094657Y-76692441D01*
X121154447Y-76876456D01*
X121154450Y-76876463D01*
X121251197Y-77044035D01*
X121380667Y-77187828D01*
X121380674Y-77187834D01*
X121537210Y-77301564D01*
X121537211Y-77301564D01*
X121537215Y-77301567D01*
X121681377Y-77365752D01*
X121713978Y-77380267D01*
X121713983Y-77380269D01*
X121903252Y-77420500D01*
X122096748Y-77420500D01*
X122286017Y-77380269D01*
X122462785Y-77301567D01*
X122619327Y-77187833D01*
X122638463Y-77166581D01*
X122680570Y-77119815D01*
X122748802Y-77044036D01*
X122845550Y-76876463D01*
X122905344Y-76692437D01*
X122925570Y-76500000D01*
X122905344Y-76307563D01*
X122845550Y-76123537D01*
X122748802Y-75955964D01*
X122619332Y-75812171D01*
X122619325Y-75812165D01*
X122462789Y-75698435D01*
X122462786Y-75698433D01*
X122462785Y-75698433D01*
X122398598Y-75669855D01*
X122286021Y-75619732D01*
X122286016Y-75619730D01*
X122096748Y-75579500D01*
X121903252Y-75579500D01*
X121713983Y-75619730D01*
X121713978Y-75619732D01*
X121537215Y-75698433D01*
X121537210Y-75698435D01*
X121380674Y-75812165D01*
X121380667Y-75812171D01*
X121251197Y-75955964D01*
X121154450Y-76123536D01*
X121154447Y-76123543D01*
X121094657Y-76307558D01*
X121094656Y-76307560D01*
X121074430Y-76500000D01*
X118173894Y-76500000D01*
X118225232Y-76403954D01*
X118285300Y-76205934D01*
X118305583Y-76000000D01*
X118285300Y-75794066D01*
X118225232Y-75596046D01*
X118127685Y-75413550D01*
X118047540Y-75315892D01*
X117996410Y-75253589D01*
X117836452Y-75122317D01*
X117836453Y-75122317D01*
X117836450Y-75122315D01*
X117653954Y-75024768D01*
X117455934Y-74964700D01*
X117455932Y-74964699D01*
X117455934Y-74964699D01*
X117250000Y-74944417D01*
X117044067Y-74964699D01*
X116846043Y-75024769D01*
X116735898Y-75083643D01*
X116663550Y-75122315D01*
X116663548Y-75122316D01*
X116663547Y-75122317D01*
X116503589Y-75253589D01*
X116372317Y-75413547D01*
X116274769Y-75596043D01*
X116214699Y-75794067D01*
X116194417Y-76000000D01*
X116214699Y-76205932D01*
X116214700Y-76205934D01*
X116274768Y-76403954D01*
X116372315Y-76586450D01*
X116401750Y-76622317D01*
X116503589Y-76746410D01*
X116600209Y-76825702D01*
X116663550Y-76877685D01*
X116846046Y-76975232D01*
X116912551Y-76995405D01*
X116970989Y-77033702D01*
X116999446Y-77097514D01*
X116988887Y-77166581D01*
X116942663Y-77218975D01*
X116908650Y-77233841D01*
X116786514Y-77266567D01*
X116786507Y-77266570D01*
X116572422Y-77366399D01*
X116572420Y-77366400D01*
X116378926Y-77501886D01*
X116378920Y-77501891D01*
X116211891Y-77668920D01*
X116211886Y-77668926D01*
X116076400Y-77862420D01*
X116076399Y-77862422D01*
X115976570Y-78076507D01*
X115976567Y-78076513D01*
X115919364Y-78289999D01*
X115919364Y-78290000D01*
X116816988Y-78290000D01*
X116784075Y-78347007D01*
X116750000Y-78474174D01*
X116750000Y-78605826D01*
X116784075Y-78732993D01*
X116816988Y-78790000D01*
X115919364Y-78790000D01*
X114000500Y-78790000D01*
X114000500Y-73668995D01*
X131399499Y-73668995D01*
X131426418Y-73804322D01*
X131426421Y-73804332D01*
X131479221Y-73931804D01*
X131479228Y-73931817D01*
X131555885Y-74046541D01*
X131555888Y-74046545D01*
X131653454Y-74144111D01*
X131653458Y-74144114D01*
X131768182Y-74220771D01*
X131768195Y-74220778D01*
X131895667Y-74273578D01*
X131895672Y-74273580D01*
X131895676Y-74273580D01*
X131895677Y-74273581D01*
X132031004Y-74300500D01*
X132031007Y-74300500D01*
X136558481Y-74300500D01*
X136625520Y-74320185D01*
X136646162Y-74336819D01*
X140013181Y-77703838D01*
X140046666Y-77765161D01*
X140049500Y-77791519D01*
X140049500Y-79568993D01*
X140049500Y-79568995D01*
X140049499Y-79568995D01*
X140076418Y-79704322D01*
X140076421Y-79704332D01*
X140129221Y-79831804D01*
X140129228Y-79831817D01*
X140205885Y-79946541D01*
X140205888Y-79946545D01*
X140303454Y-80044111D01*
X140303458Y-80044114D01*
X140418182Y-80120771D01*
X140418195Y-80120778D01*
X140545667Y-80173578D01*
X140545672Y-80173580D01*
X140545676Y-80173580D01*
X140545677Y-80173581D01*
X140681004Y-80200500D01*
X140681007Y-80200500D01*
X140818995Y-80200500D01*
X140910041Y-80182389D01*
X140954328Y-80173580D01*
X141081811Y-80120775D01*
X141196542Y-80044114D01*
X141294114Y-79946542D01*
X141370775Y-79831811D01*
X141423580Y-79704328D01*
X141447508Y-79584035D01*
X141450500Y-79568995D01*
X141450500Y-78664500D01*
X141470185Y-78597461D01*
X141522989Y-78551706D01*
X141574500Y-78540500D01*
X149408995Y-78540500D01*
X149500041Y-78522389D01*
X149544328Y-78513580D01*
X149671811Y-78460775D01*
X149786542Y-78384114D01*
X149884114Y-78286542D01*
X149960775Y-78171811D01*
X150013580Y-78044328D01*
X150040500Y-77908993D01*
X150040500Y-77771007D01*
X150040500Y-77771004D01*
X150013581Y-77635677D01*
X150013580Y-77635676D01*
X150013580Y-77635672D01*
X150013578Y-77635667D01*
X149960778Y-77508195D01*
X149960771Y-77508182D01*
X149884114Y-77393458D01*
X149884111Y-77393454D01*
X149786545Y-77295888D01*
X149786541Y-77295885D01*
X149671817Y-77219228D01*
X149671804Y-77219221D01*
X149544332Y-77166421D01*
X149544322Y-77166418D01*
X149408995Y-77139500D01*
X149408993Y-77139500D01*
X141451294Y-77139500D01*
X141384255Y-77119815D01*
X141348191Y-77084390D01*
X141335404Y-77065253D01*
X141294114Y-77003457D01*
X141294112Y-77003454D01*
X137346545Y-73055887D01*
X137231807Y-72979222D01*
X137104332Y-72926421D01*
X137104322Y-72926418D01*
X136968996Y-72899500D01*
X136968994Y-72899500D01*
X136968993Y-72899500D01*
X132031007Y-72899500D01*
X132031005Y-72899500D01*
X131895677Y-72926418D01*
X131895667Y-72926421D01*
X131768195Y-72979221D01*
X131768182Y-72979228D01*
X131653458Y-73055885D01*
X131653454Y-73055888D01*
X131555888Y-73153454D01*
X131555885Y-73153458D01*
X131479228Y-73268182D01*
X131479221Y-73268195D01*
X131426421Y-73395667D01*
X131426418Y-73395677D01*
X131399500Y-73531004D01*
X131399500Y-73531007D01*
X131399500Y-73668993D01*
X131399500Y-73668995D01*
X131399499Y-73668995D01*
X114000500Y-73668995D01*
X114000500Y-73050862D01*
X114020185Y-72983823D01*
X114036819Y-72963181D01*
X116963181Y-70036819D01*
X117024504Y-70003334D01*
X117050862Y-70000500D01*
X158949138Y-70000500D01*
X159016177Y-70020185D01*
G37*
%TD.AperFunction*%
%TD*%
M02*
