M48
; DRILL file {KiCad 8.0.1} date 2024-10-18T10:30:46+0200
; FORMAT={-:-/ absolute / inch / decimal}
; #@! TF.CreationDate,2024-10-18T10:30:46+02:00
; #@! TF.GenerationSoftware,Kicad,Pcbnew,8.0.1
; #@! TF.FileFunction,Plated,1,2,PTH
FMAT,2
INCH
; #@! TA.AperFunction,Plated,PTH,ViaDrill
T1C0.0118
; #@! TA.AperFunction,Plated,PTH,ComponentDrill
T2C0.0315
; #@! TA.AperFunction,Plated,PTH,ComponentDrill
T3C0.0394
%
G90
G05
T1
X4.685Y-3.0315
X4.685Y-3.1496
X4.7441Y-3.0118
X4.7441Y-3.1102
X4.7441Y-3.2087
X4.8425Y-2.815
X4.8425Y-2.8543
X4.8622Y-2.8937
X4.8622Y-2.9921
X4.8622Y-3.2677
X4.8819Y-2.7953
X4.9016Y-3.4055
X4.9213Y-3.4252
X5.0197Y-3.4252
X5.0394Y-3.4055
X5.0984Y-2.7756
X5.128Y-3.2972
X5.1969Y-3.4154
X5.2008Y-2.8976
X5.2362Y-2.7953
X5.247Y-3.0406
X5.2484Y-3.1401
X5.3346Y-2.7756
X5.3839Y-3.1786
X5.3844Y-2.9943
X5.3898Y-2.8976
X5.4232Y-3.3189
X5.4724Y-3.1299
X5.5236Y-3.392
X5.5413Y-3.1299
X5.6299Y-3.1496
X5.6496Y-3.389
X5.6504Y-2.874
X5.6508Y-3.3465
X5.6516Y-3.2087
X5.652Y-3.0079
X5.874Y-3.1654
X5.8795Y-3.0646
X5.8858Y-3.2677
X5.9646Y-2.9528
X5.9843Y-2.8937
X6.0039Y-3.1693
X6.0335Y-2.9035
X6.0335Y-3.2579
X6.0433Y-3.189
X6.1614Y-2.8543
X6.1614Y-3.3465
X6.2205Y-2.8543
X6.2205Y-3.3465
X6.2795Y-2.8543
X6.2795Y-3.3465
T2
X4.8031Y-3.0118
X4.8031Y-3.1118
X4.8031Y-3.2118
T3
X4.6161Y-2.9921
X4.6161Y-3.0921
X4.6161Y-3.1921
X4.9902Y-3.0512
X4.9902Y-3.1512
X5.1575Y-3.0512
X5.1575Y-3.1512
M30
