%TF.GenerationSoftware,KiCad,Pcbnew,8.0.1*%
%TF.CreationDate,2024-10-18T10:30:48+02:00*%
%TF.ProjectId,Curmea,4375726d-6561-42e6-9b69-6361645f7063,rev?*%
%TF.SameCoordinates,Original*%
%TF.FileFunction,Drillmap*%
%TF.FilePolarity,Positive*%
%FSLAX45Y45*%
G04 Gerber Fmt 4.5, Leading zero omitted, Abs format (unit mm)*
G04 Created by KiCad (PCBNEW 8.0.1) date 2024-10-18 10:30:48*
%MOMM*%
%LPD*%
G01*
G04 APERTURE LIST*
%ADD10C,0.050000*%
%ADD11C,0.200000*%
%ADD12C,0.100000*%
G04 APERTURE END LIST*
D10*
X15475000Y-7525000D02*
X15475000Y-8225000D01*
X16225000Y-8500000D02*
X15925000Y-8800000D01*
X15925000Y-6950000D02*
X11650000Y-6950000D01*
X11350000Y-7250000D02*
X11350000Y-8500000D01*
X15925000Y-8800000D02*
X11650000Y-8800000D01*
X16225000Y-8225000D02*
X16225000Y-8500000D01*
X11650000Y-8800000D02*
X11350000Y-8500000D01*
X15475000Y-8225000D02*
X16225000Y-8225000D01*
X16225000Y-7250000D02*
X16225000Y-7525000D01*
X15925000Y-6950000D02*
X16225000Y-7250000D01*
X11650000Y-6950000D02*
X11350000Y-7250000D01*
X16225000Y-7525000D02*
X15475000Y-7525000D01*
D11*
D12*
X15430000Y-7482000D02*
X15510000Y-7562000D01*
X15510000Y-7482000D02*
X15430000Y-7562000D01*
X15430000Y-8194000D02*
X15510000Y-8274000D01*
X15510000Y-8194000D02*
X15430000Y-8274000D01*
D11*
X11608277Y-9113984D02*
X11608277Y-8913984D01*
X11608277Y-8913984D02*
X11655896Y-8913984D01*
X11655896Y-8913984D02*
X11684467Y-8923508D01*
X11684467Y-8923508D02*
X11703515Y-8942555D01*
X11703515Y-8942555D02*
X11713039Y-8961603D01*
X11713039Y-8961603D02*
X11722562Y-8999698D01*
X11722562Y-8999698D02*
X11722562Y-9028270D01*
X11722562Y-9028270D02*
X11713039Y-9066365D01*
X11713039Y-9066365D02*
X11703515Y-9085412D01*
X11703515Y-9085412D02*
X11684467Y-9104460D01*
X11684467Y-9104460D02*
X11655896Y-9113984D01*
X11655896Y-9113984D02*
X11608277Y-9113984D01*
X11808277Y-9113984D02*
X11808277Y-8980650D01*
X11808277Y-9018746D02*
X11817801Y-8999698D01*
X11817801Y-8999698D02*
X11827324Y-8990174D01*
X11827324Y-8990174D02*
X11846372Y-8980650D01*
X11846372Y-8980650D02*
X11865420Y-8980650D01*
X11932086Y-9113984D02*
X11932086Y-8980650D01*
X11932086Y-8913984D02*
X11922562Y-8923508D01*
X11922562Y-8923508D02*
X11932086Y-8933031D01*
X11932086Y-8933031D02*
X11941610Y-8923508D01*
X11941610Y-8923508D02*
X11932086Y-8913984D01*
X11932086Y-8913984D02*
X11932086Y-8933031D01*
X12055896Y-9113984D02*
X12036848Y-9104460D01*
X12036848Y-9104460D02*
X12027324Y-9085412D01*
X12027324Y-9085412D02*
X12027324Y-8913984D01*
X12160658Y-9113984D02*
X12141610Y-9104460D01*
X12141610Y-9104460D02*
X12132086Y-9085412D01*
X12132086Y-9085412D02*
X12132086Y-8913984D01*
X12389229Y-9113984D02*
X12389229Y-8913984D01*
X12389229Y-8913984D02*
X12455896Y-9056841D01*
X12455896Y-9056841D02*
X12522562Y-8913984D01*
X12522562Y-8913984D02*
X12522562Y-9113984D01*
X12703515Y-9113984D02*
X12703515Y-9009222D01*
X12703515Y-9009222D02*
X12693991Y-8990174D01*
X12693991Y-8990174D02*
X12674943Y-8980650D01*
X12674943Y-8980650D02*
X12636848Y-8980650D01*
X12636848Y-8980650D02*
X12617801Y-8990174D01*
X12703515Y-9104460D02*
X12684467Y-9113984D01*
X12684467Y-9113984D02*
X12636848Y-9113984D01*
X12636848Y-9113984D02*
X12617801Y-9104460D01*
X12617801Y-9104460D02*
X12608277Y-9085412D01*
X12608277Y-9085412D02*
X12608277Y-9066365D01*
X12608277Y-9066365D02*
X12617801Y-9047317D01*
X12617801Y-9047317D02*
X12636848Y-9037793D01*
X12636848Y-9037793D02*
X12684467Y-9037793D01*
X12684467Y-9037793D02*
X12703515Y-9028270D01*
X12798753Y-8980650D02*
X12798753Y-9180650D01*
X12798753Y-8990174D02*
X12817801Y-8980650D01*
X12817801Y-8980650D02*
X12855896Y-8980650D01*
X12855896Y-8980650D02*
X12874943Y-8990174D01*
X12874943Y-8990174D02*
X12884467Y-8999698D01*
X12884467Y-8999698D02*
X12893991Y-9018746D01*
X12893991Y-9018746D02*
X12893991Y-9075889D01*
X12893991Y-9075889D02*
X12884467Y-9094936D01*
X12884467Y-9094936D02*
X12874943Y-9104460D01*
X12874943Y-9104460D02*
X12855896Y-9113984D01*
X12855896Y-9113984D02*
X12817801Y-9113984D01*
X12817801Y-9113984D02*
X12798753Y-9104460D01*
X12979705Y-9094936D02*
X12989229Y-9104460D01*
X12989229Y-9104460D02*
X12979705Y-9113984D01*
X12979705Y-9113984D02*
X12970182Y-9104460D01*
X12970182Y-9104460D02*
X12979705Y-9094936D01*
X12979705Y-9094936D02*
X12979705Y-9113984D01*
X12979705Y-8990174D02*
X12989229Y-8999698D01*
X12989229Y-8999698D02*
X12979705Y-9009222D01*
X12979705Y-9009222D02*
X12970182Y-8999698D01*
X12970182Y-8999698D02*
X12979705Y-8990174D01*
X12979705Y-8990174D02*
X12979705Y-9009222D01*
D12*
X11267500Y-9402500D02*
X11347500Y-9482500D01*
X11347500Y-9402500D02*
X11267500Y-9482500D01*
D11*
X11646372Y-9333984D02*
X11665420Y-9333984D01*
X11665420Y-9333984D02*
X11684467Y-9343508D01*
X11684467Y-9343508D02*
X11693991Y-9353031D01*
X11693991Y-9353031D02*
X11703515Y-9372079D01*
X11703515Y-9372079D02*
X11713039Y-9410174D01*
X11713039Y-9410174D02*
X11713039Y-9457793D01*
X11713039Y-9457793D02*
X11703515Y-9495889D01*
X11703515Y-9495889D02*
X11693991Y-9514936D01*
X11693991Y-9514936D02*
X11684467Y-9524460D01*
X11684467Y-9524460D02*
X11665420Y-9533984D01*
X11665420Y-9533984D02*
X11646372Y-9533984D01*
X11646372Y-9533984D02*
X11627324Y-9524460D01*
X11627324Y-9524460D02*
X11617801Y-9514936D01*
X11617801Y-9514936D02*
X11608277Y-9495889D01*
X11608277Y-9495889D02*
X11598753Y-9457793D01*
X11598753Y-9457793D02*
X11598753Y-9410174D01*
X11598753Y-9410174D02*
X11608277Y-9372079D01*
X11608277Y-9372079D02*
X11617801Y-9353031D01*
X11617801Y-9353031D02*
X11627324Y-9343508D01*
X11627324Y-9343508D02*
X11646372Y-9333984D01*
X11798753Y-9514936D02*
X11808277Y-9524460D01*
X11808277Y-9524460D02*
X11798753Y-9533984D01*
X11798753Y-9533984D02*
X11789229Y-9524460D01*
X11789229Y-9524460D02*
X11798753Y-9514936D01*
X11798753Y-9514936D02*
X11798753Y-9533984D01*
X11922562Y-9419698D02*
X11903515Y-9410174D01*
X11903515Y-9410174D02*
X11893991Y-9400650D01*
X11893991Y-9400650D02*
X11884467Y-9381603D01*
X11884467Y-9381603D02*
X11884467Y-9372079D01*
X11884467Y-9372079D02*
X11893991Y-9353031D01*
X11893991Y-9353031D02*
X11903515Y-9343508D01*
X11903515Y-9343508D02*
X11922562Y-9333984D01*
X11922562Y-9333984D02*
X11960658Y-9333984D01*
X11960658Y-9333984D02*
X11979705Y-9343508D01*
X11979705Y-9343508D02*
X11989229Y-9353031D01*
X11989229Y-9353031D02*
X11998753Y-9372079D01*
X11998753Y-9372079D02*
X11998753Y-9381603D01*
X11998753Y-9381603D02*
X11989229Y-9400650D01*
X11989229Y-9400650D02*
X11979705Y-9410174D01*
X11979705Y-9410174D02*
X11960658Y-9419698D01*
X11960658Y-9419698D02*
X11922562Y-9419698D01*
X11922562Y-9419698D02*
X11903515Y-9429222D01*
X11903515Y-9429222D02*
X11893991Y-9438746D01*
X11893991Y-9438746D02*
X11884467Y-9457793D01*
X11884467Y-9457793D02*
X11884467Y-9495889D01*
X11884467Y-9495889D02*
X11893991Y-9514936D01*
X11893991Y-9514936D02*
X11903515Y-9524460D01*
X11903515Y-9524460D02*
X11922562Y-9533984D01*
X11922562Y-9533984D02*
X11960658Y-9533984D01*
X11960658Y-9533984D02*
X11979705Y-9524460D01*
X11979705Y-9524460D02*
X11989229Y-9514936D01*
X11989229Y-9514936D02*
X11998753Y-9495889D01*
X11998753Y-9495889D02*
X11998753Y-9457793D01*
X11998753Y-9457793D02*
X11989229Y-9438746D01*
X11989229Y-9438746D02*
X11979705Y-9429222D01*
X11979705Y-9429222D02*
X11960658Y-9419698D01*
X12122562Y-9333984D02*
X12141610Y-9333984D01*
X12141610Y-9333984D02*
X12160658Y-9343508D01*
X12160658Y-9343508D02*
X12170182Y-9353031D01*
X12170182Y-9353031D02*
X12179705Y-9372079D01*
X12179705Y-9372079D02*
X12189229Y-9410174D01*
X12189229Y-9410174D02*
X12189229Y-9457793D01*
X12189229Y-9457793D02*
X12179705Y-9495889D01*
X12179705Y-9495889D02*
X12170182Y-9514936D01*
X12170182Y-9514936D02*
X12160658Y-9524460D01*
X12160658Y-9524460D02*
X12141610Y-9533984D01*
X12141610Y-9533984D02*
X12122562Y-9533984D01*
X12122562Y-9533984D02*
X12103515Y-9524460D01*
X12103515Y-9524460D02*
X12093991Y-9514936D01*
X12093991Y-9514936D02*
X12084467Y-9495889D01*
X12084467Y-9495889D02*
X12074943Y-9457793D01*
X12074943Y-9457793D02*
X12074943Y-9410174D01*
X12074943Y-9410174D02*
X12084467Y-9372079D01*
X12084467Y-9372079D02*
X12093991Y-9353031D01*
X12093991Y-9353031D02*
X12103515Y-9343508D01*
X12103515Y-9343508D02*
X12122562Y-9333984D01*
X12313039Y-9333984D02*
X12332086Y-9333984D01*
X12332086Y-9333984D02*
X12351134Y-9343508D01*
X12351134Y-9343508D02*
X12360658Y-9353031D01*
X12360658Y-9353031D02*
X12370182Y-9372079D01*
X12370182Y-9372079D02*
X12379705Y-9410174D01*
X12379705Y-9410174D02*
X12379705Y-9457793D01*
X12379705Y-9457793D02*
X12370182Y-9495889D01*
X12370182Y-9495889D02*
X12360658Y-9514936D01*
X12360658Y-9514936D02*
X12351134Y-9524460D01*
X12351134Y-9524460D02*
X12332086Y-9533984D01*
X12332086Y-9533984D02*
X12313039Y-9533984D01*
X12313039Y-9533984D02*
X12293991Y-9524460D01*
X12293991Y-9524460D02*
X12284467Y-9514936D01*
X12284467Y-9514936D02*
X12274943Y-9495889D01*
X12274943Y-9495889D02*
X12265420Y-9457793D01*
X12265420Y-9457793D02*
X12265420Y-9410174D01*
X12265420Y-9410174D02*
X12274943Y-9372079D01*
X12274943Y-9372079D02*
X12284467Y-9353031D01*
X12284467Y-9353031D02*
X12293991Y-9343508D01*
X12293991Y-9343508D02*
X12313039Y-9333984D01*
X12465420Y-9533984D02*
X12465420Y-9400650D01*
X12465420Y-9419698D02*
X12474943Y-9410174D01*
X12474943Y-9410174D02*
X12493991Y-9400650D01*
X12493991Y-9400650D02*
X12522563Y-9400650D01*
X12522563Y-9400650D02*
X12541610Y-9410174D01*
X12541610Y-9410174D02*
X12551134Y-9429222D01*
X12551134Y-9429222D02*
X12551134Y-9533984D01*
X12551134Y-9429222D02*
X12560658Y-9410174D01*
X12560658Y-9410174D02*
X12579705Y-9400650D01*
X12579705Y-9400650D02*
X12608277Y-9400650D01*
X12608277Y-9400650D02*
X12627324Y-9410174D01*
X12627324Y-9410174D02*
X12636848Y-9429222D01*
X12636848Y-9429222D02*
X12636848Y-9533984D01*
X12732086Y-9533984D02*
X12732086Y-9400650D01*
X12732086Y-9419698D02*
X12741610Y-9410174D01*
X12741610Y-9410174D02*
X12760658Y-9400650D01*
X12760658Y-9400650D02*
X12789229Y-9400650D01*
X12789229Y-9400650D02*
X12808277Y-9410174D01*
X12808277Y-9410174D02*
X12817801Y-9429222D01*
X12817801Y-9429222D02*
X12817801Y-9533984D01*
X12817801Y-9429222D02*
X12827324Y-9410174D01*
X12827324Y-9410174D02*
X12846372Y-9400650D01*
X12846372Y-9400650D02*
X12874943Y-9400650D01*
X12874943Y-9400650D02*
X12893991Y-9410174D01*
X12893991Y-9410174D02*
X12903515Y-9429222D01*
X12903515Y-9429222D02*
X12903515Y-9533984D01*
X13293991Y-9324460D02*
X13122563Y-9581603D01*
X13551134Y-9333984D02*
X13570182Y-9333984D01*
X13570182Y-9333984D02*
X13589229Y-9343508D01*
X13589229Y-9343508D02*
X13598753Y-9353031D01*
X13598753Y-9353031D02*
X13608277Y-9372079D01*
X13608277Y-9372079D02*
X13617801Y-9410174D01*
X13617801Y-9410174D02*
X13617801Y-9457793D01*
X13617801Y-9457793D02*
X13608277Y-9495889D01*
X13608277Y-9495889D02*
X13598753Y-9514936D01*
X13598753Y-9514936D02*
X13589229Y-9524460D01*
X13589229Y-9524460D02*
X13570182Y-9533984D01*
X13570182Y-9533984D02*
X13551134Y-9533984D01*
X13551134Y-9533984D02*
X13532086Y-9524460D01*
X13532086Y-9524460D02*
X13522563Y-9514936D01*
X13522563Y-9514936D02*
X13513039Y-9495889D01*
X13513039Y-9495889D02*
X13503515Y-9457793D01*
X13503515Y-9457793D02*
X13503515Y-9410174D01*
X13503515Y-9410174D02*
X13513039Y-9372079D01*
X13513039Y-9372079D02*
X13522563Y-9353031D01*
X13522563Y-9353031D02*
X13532086Y-9343508D01*
X13532086Y-9343508D02*
X13551134Y-9333984D01*
X13703515Y-9514936D02*
X13713039Y-9524460D01*
X13713039Y-9524460D02*
X13703515Y-9533984D01*
X13703515Y-9533984D02*
X13693991Y-9524460D01*
X13693991Y-9524460D02*
X13703515Y-9514936D01*
X13703515Y-9514936D02*
X13703515Y-9533984D01*
X13836848Y-9333984D02*
X13855896Y-9333984D01*
X13855896Y-9333984D02*
X13874944Y-9343508D01*
X13874944Y-9343508D02*
X13884467Y-9353031D01*
X13884467Y-9353031D02*
X13893991Y-9372079D01*
X13893991Y-9372079D02*
X13903515Y-9410174D01*
X13903515Y-9410174D02*
X13903515Y-9457793D01*
X13903515Y-9457793D02*
X13893991Y-9495889D01*
X13893991Y-9495889D02*
X13884467Y-9514936D01*
X13884467Y-9514936D02*
X13874944Y-9524460D01*
X13874944Y-9524460D02*
X13855896Y-9533984D01*
X13855896Y-9533984D02*
X13836848Y-9533984D01*
X13836848Y-9533984D02*
X13817801Y-9524460D01*
X13817801Y-9524460D02*
X13808277Y-9514936D01*
X13808277Y-9514936D02*
X13798753Y-9495889D01*
X13798753Y-9495889D02*
X13789229Y-9457793D01*
X13789229Y-9457793D02*
X13789229Y-9410174D01*
X13789229Y-9410174D02*
X13798753Y-9372079D01*
X13798753Y-9372079D02*
X13808277Y-9353031D01*
X13808277Y-9353031D02*
X13817801Y-9343508D01*
X13817801Y-9343508D02*
X13836848Y-9333984D01*
X13970182Y-9333984D02*
X14093991Y-9333984D01*
X14093991Y-9333984D02*
X14027325Y-9410174D01*
X14027325Y-9410174D02*
X14055896Y-9410174D01*
X14055896Y-9410174D02*
X14074944Y-9419698D01*
X14074944Y-9419698D02*
X14084467Y-9429222D01*
X14084467Y-9429222D02*
X14093991Y-9448270D01*
X14093991Y-9448270D02*
X14093991Y-9495889D01*
X14093991Y-9495889D02*
X14084467Y-9514936D01*
X14084467Y-9514936D02*
X14074944Y-9524460D01*
X14074944Y-9524460D02*
X14055896Y-9533984D01*
X14055896Y-9533984D02*
X13998753Y-9533984D01*
X13998753Y-9533984D02*
X13979706Y-9524460D01*
X13979706Y-9524460D02*
X13970182Y-9514936D01*
X14284467Y-9533984D02*
X14170182Y-9533984D01*
X14227325Y-9533984D02*
X14227325Y-9333984D01*
X14227325Y-9333984D02*
X14208277Y-9362555D01*
X14208277Y-9362555D02*
X14189229Y-9381603D01*
X14189229Y-9381603D02*
X14170182Y-9391127D01*
X14465420Y-9333984D02*
X14370182Y-9333984D01*
X14370182Y-9333984D02*
X14360658Y-9429222D01*
X14360658Y-9429222D02*
X14370182Y-9419698D01*
X14370182Y-9419698D02*
X14389229Y-9410174D01*
X14389229Y-9410174D02*
X14436848Y-9410174D01*
X14436848Y-9410174D02*
X14455896Y-9419698D01*
X14455896Y-9419698D02*
X14465420Y-9429222D01*
X14465420Y-9429222D02*
X14474944Y-9448270D01*
X14474944Y-9448270D02*
X14474944Y-9495889D01*
X14474944Y-9495889D02*
X14465420Y-9514936D01*
X14465420Y-9514936D02*
X14455896Y-9524460D01*
X14455896Y-9524460D02*
X14436848Y-9533984D01*
X14436848Y-9533984D02*
X14389229Y-9533984D01*
X14389229Y-9533984D02*
X14370182Y-9524460D01*
X14370182Y-9524460D02*
X14360658Y-9514936D01*
X14551134Y-9333984D02*
X14551134Y-9372079D01*
X14627325Y-9333984D02*
X14627325Y-9372079D01*
X14922563Y-9610174D02*
X14913039Y-9600650D01*
X14913039Y-9600650D02*
X14893991Y-9572079D01*
X14893991Y-9572079D02*
X14884468Y-9553031D01*
X14884468Y-9553031D02*
X14874944Y-9524460D01*
X14874944Y-9524460D02*
X14865420Y-9476841D01*
X14865420Y-9476841D02*
X14865420Y-9438746D01*
X14865420Y-9438746D02*
X14874944Y-9391127D01*
X14874944Y-9391127D02*
X14884468Y-9362555D01*
X14884468Y-9362555D02*
X14893991Y-9343508D01*
X14893991Y-9343508D02*
X14913039Y-9314936D01*
X14913039Y-9314936D02*
X14922563Y-9305412D01*
X14989229Y-9353031D02*
X14998753Y-9343508D01*
X14998753Y-9343508D02*
X15017801Y-9333984D01*
X15017801Y-9333984D02*
X15065420Y-9333984D01*
X15065420Y-9333984D02*
X15084468Y-9343508D01*
X15084468Y-9343508D02*
X15093991Y-9353031D01*
X15093991Y-9353031D02*
X15103515Y-9372079D01*
X15103515Y-9372079D02*
X15103515Y-9391127D01*
X15103515Y-9391127D02*
X15093991Y-9419698D01*
X15093991Y-9419698D02*
X14979706Y-9533984D01*
X14979706Y-9533984D02*
X15103515Y-9533984D01*
X15341610Y-9533984D02*
X15341610Y-9333984D01*
X15427325Y-9533984D02*
X15427325Y-9429222D01*
X15427325Y-9429222D02*
X15417801Y-9410174D01*
X15417801Y-9410174D02*
X15398753Y-9400650D01*
X15398753Y-9400650D02*
X15370182Y-9400650D01*
X15370182Y-9400650D02*
X15351134Y-9410174D01*
X15351134Y-9410174D02*
X15341610Y-9419698D01*
X15551134Y-9533984D02*
X15532087Y-9524460D01*
X15532087Y-9524460D02*
X15522563Y-9514936D01*
X15522563Y-9514936D02*
X15513039Y-9495889D01*
X15513039Y-9495889D02*
X15513039Y-9438746D01*
X15513039Y-9438746D02*
X15522563Y-9419698D01*
X15522563Y-9419698D02*
X15532087Y-9410174D01*
X15532087Y-9410174D02*
X15551134Y-9400650D01*
X15551134Y-9400650D02*
X15579706Y-9400650D01*
X15579706Y-9400650D02*
X15598753Y-9410174D01*
X15598753Y-9410174D02*
X15608277Y-9419698D01*
X15608277Y-9419698D02*
X15617801Y-9438746D01*
X15617801Y-9438746D02*
X15617801Y-9495889D01*
X15617801Y-9495889D02*
X15608277Y-9514936D01*
X15608277Y-9514936D02*
X15598753Y-9524460D01*
X15598753Y-9524460D02*
X15579706Y-9533984D01*
X15579706Y-9533984D02*
X15551134Y-9533984D01*
X15732087Y-9533984D02*
X15713039Y-9524460D01*
X15713039Y-9524460D02*
X15703515Y-9505412D01*
X15703515Y-9505412D02*
X15703515Y-9333984D01*
X15884468Y-9524460D02*
X15865420Y-9533984D01*
X15865420Y-9533984D02*
X15827325Y-9533984D01*
X15827325Y-9533984D02*
X15808277Y-9524460D01*
X15808277Y-9524460D02*
X15798753Y-9505412D01*
X15798753Y-9505412D02*
X15798753Y-9429222D01*
X15798753Y-9429222D02*
X15808277Y-9410174D01*
X15808277Y-9410174D02*
X15827325Y-9400650D01*
X15827325Y-9400650D02*
X15865420Y-9400650D01*
X15865420Y-9400650D02*
X15884468Y-9410174D01*
X15884468Y-9410174D02*
X15893991Y-9429222D01*
X15893991Y-9429222D02*
X15893991Y-9448270D01*
X15893991Y-9448270D02*
X15798753Y-9467317D01*
X15970182Y-9524460D02*
X15989230Y-9533984D01*
X15989230Y-9533984D02*
X16027325Y-9533984D01*
X16027325Y-9533984D02*
X16046372Y-9524460D01*
X16046372Y-9524460D02*
X16055896Y-9505412D01*
X16055896Y-9505412D02*
X16055896Y-9495889D01*
X16055896Y-9495889D02*
X16046372Y-9476841D01*
X16046372Y-9476841D02*
X16027325Y-9467317D01*
X16027325Y-9467317D02*
X15998753Y-9467317D01*
X15998753Y-9467317D02*
X15979706Y-9457793D01*
X15979706Y-9457793D02*
X15970182Y-9438746D01*
X15970182Y-9438746D02*
X15970182Y-9429222D01*
X15970182Y-9429222D02*
X15979706Y-9410174D01*
X15979706Y-9410174D02*
X15998753Y-9400650D01*
X15998753Y-9400650D02*
X16027325Y-9400650D01*
X16027325Y-9400650D02*
X16046372Y-9410174D01*
X16122563Y-9610174D02*
X16132087Y-9600650D01*
X16132087Y-9600650D02*
X16151134Y-9572079D01*
X16151134Y-9572079D02*
X16160658Y-9553031D01*
X16160658Y-9553031D02*
X16170182Y-9524460D01*
X16170182Y-9524460D02*
X16179706Y-9476841D01*
X16179706Y-9476841D02*
X16179706Y-9438746D01*
X16179706Y-9438746D02*
X16170182Y-9391127D01*
X16170182Y-9391127D02*
X16160658Y-9362555D01*
X16160658Y-9362555D02*
X16151134Y-9343508D01*
X16151134Y-9343508D02*
X16132087Y-9314936D01*
X16132087Y-9314936D02*
X16122563Y-9305412D01*
X16484468Y-9610174D02*
X16474944Y-9600650D01*
X16474944Y-9600650D02*
X16455896Y-9572079D01*
X16455896Y-9572079D02*
X16446372Y-9553031D01*
X16446372Y-9553031D02*
X16436849Y-9524460D01*
X16436849Y-9524460D02*
X16427325Y-9476841D01*
X16427325Y-9476841D02*
X16427325Y-9438746D01*
X16427325Y-9438746D02*
X16436849Y-9391127D01*
X16436849Y-9391127D02*
X16446372Y-9362555D01*
X16446372Y-9362555D02*
X16455896Y-9343508D01*
X16455896Y-9343508D02*
X16474944Y-9314936D01*
X16474944Y-9314936D02*
X16484468Y-9305412D01*
X16560658Y-9400650D02*
X16560658Y-9533984D01*
X16560658Y-9419698D02*
X16570182Y-9410174D01*
X16570182Y-9410174D02*
X16589230Y-9400650D01*
X16589230Y-9400650D02*
X16617801Y-9400650D01*
X16617801Y-9400650D02*
X16636849Y-9410174D01*
X16636849Y-9410174D02*
X16646372Y-9429222D01*
X16646372Y-9429222D02*
X16646372Y-9533984D01*
X16770182Y-9533984D02*
X16751134Y-9524460D01*
X16751134Y-9524460D02*
X16741611Y-9514936D01*
X16741611Y-9514936D02*
X16732087Y-9495889D01*
X16732087Y-9495889D02*
X16732087Y-9438746D01*
X16732087Y-9438746D02*
X16741611Y-9419698D01*
X16741611Y-9419698D02*
X16751134Y-9410174D01*
X16751134Y-9410174D02*
X16770182Y-9400650D01*
X16770182Y-9400650D02*
X16798754Y-9400650D01*
X16798754Y-9400650D02*
X16817801Y-9410174D01*
X16817801Y-9410174D02*
X16827325Y-9419698D01*
X16827325Y-9419698D02*
X16836849Y-9438746D01*
X16836849Y-9438746D02*
X16836849Y-9495889D01*
X16836849Y-9495889D02*
X16827325Y-9514936D01*
X16827325Y-9514936D02*
X16817801Y-9524460D01*
X16817801Y-9524460D02*
X16798754Y-9533984D01*
X16798754Y-9533984D02*
X16770182Y-9533984D01*
X16893992Y-9400650D02*
X16970182Y-9400650D01*
X16922563Y-9333984D02*
X16922563Y-9505412D01*
X16922563Y-9505412D02*
X16932087Y-9524460D01*
X16932087Y-9524460D02*
X16951134Y-9533984D01*
X16951134Y-9533984D02*
X16970182Y-9533984D01*
X17189230Y-9400650D02*
X17189230Y-9600650D01*
X17189230Y-9410174D02*
X17208277Y-9400650D01*
X17208277Y-9400650D02*
X17246373Y-9400650D01*
X17246373Y-9400650D02*
X17265420Y-9410174D01*
X17265420Y-9410174D02*
X17274944Y-9419698D01*
X17274944Y-9419698D02*
X17284468Y-9438746D01*
X17284468Y-9438746D02*
X17284468Y-9495889D01*
X17284468Y-9495889D02*
X17274944Y-9514936D01*
X17274944Y-9514936D02*
X17265420Y-9524460D01*
X17265420Y-9524460D02*
X17246373Y-9533984D01*
X17246373Y-9533984D02*
X17208277Y-9533984D01*
X17208277Y-9533984D02*
X17189230Y-9524460D01*
X17398754Y-9533984D02*
X17379706Y-9524460D01*
X17379706Y-9524460D02*
X17370182Y-9505412D01*
X17370182Y-9505412D02*
X17370182Y-9333984D01*
X17560658Y-9533984D02*
X17560658Y-9429222D01*
X17560658Y-9429222D02*
X17551135Y-9410174D01*
X17551135Y-9410174D02*
X17532087Y-9400650D01*
X17532087Y-9400650D02*
X17493992Y-9400650D01*
X17493992Y-9400650D02*
X17474944Y-9410174D01*
X17560658Y-9524460D02*
X17541611Y-9533984D01*
X17541611Y-9533984D02*
X17493992Y-9533984D01*
X17493992Y-9533984D02*
X17474944Y-9524460D01*
X17474944Y-9524460D02*
X17465420Y-9505412D01*
X17465420Y-9505412D02*
X17465420Y-9486365D01*
X17465420Y-9486365D02*
X17474944Y-9467317D01*
X17474944Y-9467317D02*
X17493992Y-9457793D01*
X17493992Y-9457793D02*
X17541611Y-9457793D01*
X17541611Y-9457793D02*
X17560658Y-9448270D01*
X17627325Y-9400650D02*
X17703515Y-9400650D01*
X17655896Y-9333984D02*
X17655896Y-9505412D01*
X17655896Y-9505412D02*
X17665420Y-9524460D01*
X17665420Y-9524460D02*
X17684468Y-9533984D01*
X17684468Y-9533984D02*
X17703515Y-9533984D01*
X17846373Y-9524460D02*
X17827325Y-9533984D01*
X17827325Y-9533984D02*
X17789230Y-9533984D01*
X17789230Y-9533984D02*
X17770182Y-9524460D01*
X17770182Y-9524460D02*
X17760658Y-9505412D01*
X17760658Y-9505412D02*
X17760658Y-9429222D01*
X17760658Y-9429222D02*
X17770182Y-9410174D01*
X17770182Y-9410174D02*
X17789230Y-9400650D01*
X17789230Y-9400650D02*
X17827325Y-9400650D01*
X17827325Y-9400650D02*
X17846373Y-9410174D01*
X17846373Y-9410174D02*
X17855896Y-9429222D01*
X17855896Y-9429222D02*
X17855896Y-9448270D01*
X17855896Y-9448270D02*
X17760658Y-9467317D01*
X18027325Y-9533984D02*
X18027325Y-9333984D01*
X18027325Y-9524460D02*
X18008277Y-9533984D01*
X18008277Y-9533984D02*
X17970182Y-9533984D01*
X17970182Y-9533984D02*
X17951135Y-9524460D01*
X17951135Y-9524460D02*
X17941611Y-9514936D01*
X17941611Y-9514936D02*
X17932087Y-9495889D01*
X17932087Y-9495889D02*
X17932087Y-9438746D01*
X17932087Y-9438746D02*
X17941611Y-9419698D01*
X17941611Y-9419698D02*
X17951135Y-9410174D01*
X17951135Y-9410174D02*
X17970182Y-9400650D01*
X17970182Y-9400650D02*
X18008277Y-9400650D01*
X18008277Y-9400650D02*
X18027325Y-9410174D01*
X18103516Y-9610174D02*
X18113039Y-9600650D01*
X18113039Y-9600650D02*
X18132087Y-9572079D01*
X18132087Y-9572079D02*
X18141611Y-9553031D01*
X18141611Y-9553031D02*
X18151135Y-9524460D01*
X18151135Y-9524460D02*
X18160658Y-9476841D01*
X18160658Y-9476841D02*
X18160658Y-9438746D01*
X18160658Y-9438746D02*
X18151135Y-9391127D01*
X18151135Y-9391127D02*
X18141611Y-9362555D01*
X18141611Y-9362555D02*
X18132087Y-9343508D01*
X18132087Y-9343508D02*
X18113039Y-9314936D01*
X18113039Y-9314936D02*
X18103516Y-9305412D01*
M02*
