%TF.GenerationSoftware,KiCad,Pcbnew,8.0.1*%
%TF.CreationDate,2024-10-18T10:30:41+02:00*%
%TF.ProjectId,Curmea,4375726d-6561-42e6-9b69-6361645f7063,rev?*%
%TF.SameCoordinates,Original*%
%TF.FileFunction,Copper,L1,Top*%
%TF.FilePolarity,Positive*%
%FSLAX46Y46*%
G04 Gerber Fmt 4.6, Leading zero omitted, Abs format (unit mm)*
G04 Created by KiCad (PCBNEW 8.0.1) date 2024-10-18 10:30:41*
%MOMM*%
%LPD*%
G01*
G04 APERTURE LIST*
G04 Aperture macros list*
%AMRoundRect*
0 Rectangle with rounded corners*
0 $1 Rounding radius*
0 $2 $3 $4 $5 $6 $7 $8 $9 X,Y pos of 4 corners*
0 Add a 4 corners polygon primitive as box body*
4,1,4,$2,$3,$4,$5,$6,$7,$8,$9,$2,$3,0*
0 Add four circle primitives for the rounded corners*
1,1,$1+$1,$2,$3*
1,1,$1+$1,$4,$5*
1,1,$1+$1,$6,$7*
1,1,$1+$1,$8,$9*
0 Add four rect primitives between the rounded corners*
20,1,$1+$1,$2,$3,$4,$5,0*
20,1,$1+$1,$4,$5,$6,$7,0*
20,1,$1+$1,$6,$7,$8,$9,0*
20,1,$1+$1,$8,$9,$2,$3,0*%
G04 Aperture macros list end*
%TA.AperFunction,SMDPad,CuDef*%
%ADD10RoundRect,0.150000X-0.512500X-0.150000X0.512500X-0.150000X0.512500X0.150000X-0.512500X0.150000X0*%
%TD*%
%TA.AperFunction,ComponentPad*%
%ADD11R,1.700000X1.700000*%
%TD*%
%TA.AperFunction,ComponentPad*%
%ADD12O,1.700000X1.700000*%
%TD*%
%TA.AperFunction,ComponentPad*%
%ADD13C,1.440000*%
%TD*%
%TA.AperFunction,SMDPad,CuDef*%
%ADD14RoundRect,0.200000X-0.275000X0.200000X-0.275000X-0.200000X0.275000X-0.200000X0.275000X0.200000X0*%
%TD*%
%TA.AperFunction,SMDPad,CuDef*%
%ADD15RoundRect,0.225000X0.250000X-0.225000X0.250000X0.225000X-0.250000X0.225000X-0.250000X-0.225000X0*%
%TD*%
%TA.AperFunction,SMDPad,CuDef*%
%ADD16RoundRect,0.200000X-0.200000X-0.275000X0.200000X-0.275000X0.200000X0.275000X-0.200000X0.275000X0*%
%TD*%
%TA.AperFunction,SMDPad,CuDef*%
%ADD17RoundRect,0.200000X0.200000X0.275000X-0.200000X0.275000X-0.200000X-0.275000X0.200000X-0.275000X0*%
%TD*%
%TA.AperFunction,SMDPad,CuDef*%
%ADD18RoundRect,0.225000X-0.250000X0.225000X-0.250000X-0.225000X0.250000X-0.225000X0.250000X0.225000X0*%
%TD*%
%TA.AperFunction,SMDPad,CuDef*%
%ADD19RoundRect,0.150000X-0.725000X-0.150000X0.725000X-0.150000X0.725000X0.150000X-0.725000X0.150000X0*%
%TD*%
%TA.AperFunction,SMDPad,CuDef*%
%ADD20RoundRect,0.225000X0.225000X0.250000X-0.225000X0.250000X-0.225000X-0.250000X0.225000X-0.250000X0*%
%TD*%
%TA.AperFunction,SMDPad,CuDef*%
%ADD21R,2.500000X1.000000*%
%TD*%
%TA.AperFunction,SMDPad,CuDef*%
%ADD22R,6.400000X1.440000*%
%TD*%
%TA.AperFunction,SMDPad,CuDef*%
%ADD23RoundRect,0.218750X0.218750X0.256250X-0.218750X0.256250X-0.218750X-0.256250X0.218750X-0.256250X0*%
%TD*%
%TA.AperFunction,SMDPad,CuDef*%
%ADD24RoundRect,0.225000X-0.225000X-0.250000X0.225000X-0.250000X0.225000X0.250000X-0.225000X0.250000X0*%
%TD*%
%TA.AperFunction,SMDPad,CuDef*%
%ADD25RoundRect,0.218750X-0.218750X-0.256250X0.218750X-0.256250X0.218750X0.256250X-0.218750X0.256250X0*%
%TD*%
%TA.AperFunction,ViaPad*%
%ADD26C,0.600000*%
%TD*%
%TA.AperFunction,Conductor*%
%ADD27C,1.000000*%
%TD*%
%TA.AperFunction,Conductor*%
%ADD28C,0.750000*%
%TD*%
%TA.AperFunction,Conductor*%
%ADD29C,0.200000*%
%TD*%
G04 APERTURE END LIST*
D10*
%TO.P,U6,1,GND*%
%TO.N,GND*%
X128062500Y-82750000D03*
%TO.P,U6,2,VIN*%
%TO.N,Net-(D1-A)*%
X128062500Y-83700000D03*
%TO.P,U6,3,EN*%
X128062500Y-84650000D03*
%TO.P,U6,4,NC*%
%TO.N,unconnected-(U6-NC-Pad4)*%
X130337500Y-84650000D03*
%TO.P,U6,5,VOUT*%
%TO.N,-2V5*%
X130337500Y-82750000D03*
%TD*%
D11*
%TO.P,J3,1,Pin_1*%
%TO.N,/IN+*%
X131000000Y-80040000D03*
D12*
%TO.P,J3,2,Pin_2*%
%TO.N,/IN-*%
X131000000Y-77500000D03*
%TD*%
D13*
%TO.P,RV1,1,1*%
%TO.N,/IN-*%
X122000000Y-76500000D03*
%TO.P,RV1,2,2*%
%TO.N,/IN+*%
X122000000Y-79040000D03*
%TO.P,RV1,3,3*%
%TO.N,unconnected-(RV1-Pad3)*%
X122000000Y-81580000D03*
%TD*%
D14*
%TO.P,R1,1*%
%TO.N,Net-(U2--)*%
X134500000Y-77675000D03*
%TO.P,R1,2*%
%TO.N,Net-(U1--)*%
X134500000Y-79325000D03*
%TD*%
D15*
%TO.P,C5,1*%
%TO.N,+2V5*%
X152750000Y-76275000D03*
%TO.P,C5,2*%
%TO.N,GND*%
X152750000Y-74725000D03*
%TD*%
D16*
%TO.P,R2,1*%
%TO.N,Net-(U1--)*%
X136175000Y-79500000D03*
%TO.P,R2,2*%
%TO.N,Net-(R2-Pad2)*%
X137825000Y-79500000D03*
%TD*%
D17*
%TO.P,R5,1*%
%TO.N,Net-(U3--)*%
X142647871Y-74676175D03*
%TO.P,R5,2*%
%TO.N,Net-(R3-Pad1)*%
X140997871Y-74676175D03*
%TD*%
%TO.P,R3,1*%
%TO.N,Net-(R3-Pad1)*%
X137825000Y-77500000D03*
%TO.P,R3,2*%
%TO.N,Net-(U2--)*%
X136175000Y-77500000D03*
%TD*%
D11*
%TO.P,JP1,1,A*%
%TO.N,/IN-*%
X126750000Y-77500000D03*
D12*
%TO.P,JP1,2,B*%
%TO.N,/IN+*%
X126750000Y-80040000D03*
%TD*%
D18*
%TO.P,C10,1*%
%TO.N,Net-(D1-A)*%
X126250000Y-84475000D03*
%TO.P,C10,2*%
%TO.N,GND*%
X126250000Y-86025000D03*
%TD*%
D19*
%TO.P,U3,1,NC*%
%TO.N,unconnected-(U3-NC-Pad1)*%
X145500000Y-76595000D03*
%TO.P,U3,2,-*%
%TO.N,Net-(U3--)*%
X145500000Y-77865000D03*
%TO.P,U3,3,+*%
%TO.N,Net-(U3-+)*%
X145500000Y-79135000D03*
%TO.P,U3,4,NC*%
%TO.N,unconnected-(U3-NC-Pad4)*%
X145500000Y-80405000D03*
%TO.P,U3,5,V-*%
%TO.N,-2V5*%
X150650000Y-80405000D03*
%TO.P,U3,6*%
%TO.N,/OUT*%
X150650000Y-79135000D03*
%TO.P,U3,7,V+*%
%TO.N,+2V5*%
X150650000Y-77865000D03*
%TO.P,U3,8,~{SHDN}*%
%TO.N,unconnected-(U3-~{SHDN}-Pad8)*%
X150650000Y-76595000D03*
%TD*%
D16*
%TO.P,R4,1*%
%TO.N,Net-(R2-Pad2)*%
X140997184Y-83568246D03*
%TO.P,R4,2*%
%TO.N,Net-(U3-+)*%
X142647184Y-83568246D03*
%TD*%
D20*
%TO.P,C1,1*%
%TO.N,GND*%
X142575000Y-73000000D03*
%TO.P,C1,2*%
%TO.N,+2V5*%
X141025000Y-73000000D03*
%TD*%
D19*
%TO.P,U2,1,NC*%
%TO.N,unconnected-(U2-NC-Pad1)*%
X134000000Y-72000000D03*
%TO.P,U2,2,-*%
%TO.N,Net-(U2--)*%
X134000000Y-73270000D03*
%TO.P,U2,3,+*%
%TO.N,/IN-*%
X134000000Y-74540000D03*
%TO.P,U2,4,NC*%
%TO.N,unconnected-(U2-NC-Pad4)*%
X134000000Y-75810000D03*
%TO.P,U2,5,V-*%
%TO.N,-2V5*%
X139150000Y-75810000D03*
%TO.P,U2,6*%
%TO.N,Net-(R3-Pad1)*%
X139150000Y-74540000D03*
%TO.P,U2,7,V+*%
%TO.N,+2V5*%
X139150000Y-73270000D03*
%TO.P,U2,8,~{SHDN}*%
%TO.N,unconnected-(U2-~{SHDN}-Pad8)*%
X139150000Y-72000000D03*
%TD*%
D16*
%TO.P,R6,1*%
%TO.N,Net-(U3--)*%
X147175000Y-75000000D03*
%TO.P,R6,2*%
%TO.N,/OUT*%
X148825000Y-75000000D03*
%TD*%
D20*
%TO.P,C4,1*%
%TO.N,GND*%
X142597184Y-82068246D03*
%TO.P,C4,2*%
%TO.N,+2V5*%
X141047184Y-82068246D03*
%TD*%
D21*
%TO.P,J1,1,In*%
%TO.N,/OUT*%
X153250000Y-78780000D03*
D22*
%TO.P,J1,2,Ext*%
%TO.N,GND*%
X158500000Y-83060000D03*
X158500000Y-74500000D03*
%TD*%
D11*
%TO.P,J5,1,Pin_1*%
%TO.N,Net-(D1-K)*%
X117250000Y-81080000D03*
D12*
%TO.P,J5,2,Pin_2*%
%TO.N,GND*%
X117250000Y-78540000D03*
%TO.P,J5,3,Pin_3*%
%TO.N,Net-(D2-A)*%
X117250000Y-76000000D03*
%TD*%
D23*
%TO.P,D2,1,K*%
%TO.N,Net-(D2-K)*%
X118287500Y-73500000D03*
%TO.P,D2,2,A*%
%TO.N,Net-(D2-A)*%
X116712500Y-73500000D03*
%TD*%
D24*
%TO.P,C6,1*%
%TO.N,-2V5*%
X150725000Y-82000000D03*
%TO.P,C6,2*%
%TO.N,GND*%
X152275000Y-82000000D03*
%TD*%
D10*
%TO.P,U7,1,VIN*%
%TO.N,Net-(D2-K)*%
X128125000Y-72600000D03*
%TO.P,U7,2,GND*%
%TO.N,GND*%
X128125000Y-73550000D03*
%TO.P,U7,3,EN*%
%TO.N,Net-(D2-K)*%
X128125000Y-74500000D03*
%TO.P,U7,4,SENSE/ADJ*%
%TO.N,+2V5*%
X130400000Y-74500000D03*
%TO.P,U7,5,VOUT*%
X130400000Y-72600000D03*
%TD*%
D20*
%TO.P,C3,1*%
%TO.N,GND*%
X142597184Y-85068246D03*
%TO.P,C3,2*%
%TO.N,-2V5*%
X141047184Y-85068246D03*
%TD*%
D19*
%TO.P,U1,1,NC*%
%TO.N,unconnected-(U1-NC-Pad1)*%
X134000000Y-81190000D03*
%TO.P,U1,2,-*%
%TO.N,Net-(U1--)*%
X134000000Y-82460000D03*
%TO.P,U1,3,+*%
%TO.N,/IN+*%
X134000000Y-83730000D03*
%TO.P,U1,4,NC*%
%TO.N,unconnected-(U1-NC-Pad4)*%
X134000000Y-85000000D03*
%TO.P,U1,5,V-*%
%TO.N,-2V5*%
X139150000Y-85000000D03*
%TO.P,U1,6*%
%TO.N,Net-(R2-Pad2)*%
X139150000Y-83730000D03*
%TO.P,U1,7,V+*%
%TO.N,+2V5*%
X139150000Y-82460000D03*
%TO.P,U1,8,~{SHDN}*%
%TO.N,unconnected-(U1-~{SHDN}-Pad8)*%
X139150000Y-81190000D03*
%TD*%
D20*
%TO.P,C2,1*%
%TO.N,GND*%
X142575000Y-76400000D03*
%TO.P,C2,2*%
%TO.N,-2V5*%
X141025000Y-76400000D03*
%TD*%
D18*
%TO.P,C7,1*%
%TO.N,-2V5*%
X132100000Y-84225000D03*
%TO.P,C7,2*%
%TO.N,GND*%
X132100000Y-85775000D03*
%TD*%
D25*
%TO.P,D1,1,K*%
%TO.N,Net-(D1-K)*%
X116925000Y-84000000D03*
%TO.P,D1,2,A*%
%TO.N,Net-(D1-A)*%
X118500000Y-84000000D03*
%TD*%
D16*
%TO.P,R7,1*%
%TO.N,Net-(U3-+)*%
X147175000Y-82000000D03*
%TO.P,R7,2*%
%TO.N,GND*%
X148825000Y-82000000D03*
%TD*%
D18*
%TO.P,C8,1*%
%TO.N,GND*%
X132100000Y-71025000D03*
%TO.P,C8,2*%
%TO.N,+2V5*%
X132100000Y-72575000D03*
%TD*%
D24*
%TO.P,C9,1*%
%TO.N,GND*%
X124725000Y-72500000D03*
%TO.P,C9,2*%
%TO.N,Net-(D2-K)*%
X126275000Y-72500000D03*
%TD*%
D26*
%TO.N,GND*%
X149500000Y-83000000D03*
X123000000Y-71500000D03*
X120500000Y-81500000D03*
X135500000Y-70500000D03*
X136750080Y-80737321D03*
X129500000Y-70500000D03*
X127500000Y-87000000D03*
X133309020Y-79758839D03*
X153500000Y-81000000D03*
X158000000Y-72500000D03*
X143550000Y-81500000D03*
X156500000Y-85000000D03*
X143500763Y-86079765D03*
X119000000Y-77000000D03*
X143530000Y-85000000D03*
X123000000Y-72500000D03*
X120500000Y-79000000D03*
X152000000Y-73500000D03*
X119000000Y-80000000D03*
X132000000Y-86750000D03*
X143000000Y-80000000D03*
X128000000Y-86500000D03*
X124000000Y-71000000D03*
X143561323Y-76400000D03*
X136763746Y-76054803D03*
X124500000Y-86500000D03*
X153250000Y-73750000D03*
X156500000Y-72500000D03*
X125000000Y-87000000D03*
X152500000Y-80500000D03*
X151500000Y-75000000D03*
X158000000Y-85000000D03*
X159500000Y-85000000D03*
X133000000Y-71000000D03*
X140300083Y-86158004D03*
X123500000Y-76000000D03*
X159500000Y-72500000D03*
X123500000Y-73500000D03*
X133273404Y-77230122D03*
X153250000Y-82750000D03*
X120500000Y-76500000D03*
X123500000Y-83000000D03*
X143520000Y-73000000D03*
%TO.N,+2V5*%
X149340000Y-77840000D03*
X136900000Y-73600000D03*
X140750000Y-79500000D03*
X132100000Y-73600000D03*
%TO.N,-2V5*%
X149200000Y-80400000D03*
X137750000Y-84300000D03*
X139000000Y-79500000D03*
X130250000Y-83750000D03*
%TD*%
D27*
%TO.N,GND*%
X143561323Y-76400000D02*
X142575000Y-76400000D01*
D28*
X132975000Y-71025000D02*
X133000000Y-71000000D01*
X153250000Y-74225000D02*
X152750000Y-74725000D01*
X132100000Y-71025000D02*
X132975000Y-71025000D01*
D27*
X153250000Y-82750000D02*
X153162715Y-82750000D01*
D28*
X143461754Y-85068246D02*
X143530000Y-85000000D01*
D27*
X143561323Y-76405620D02*
X143561323Y-76400000D01*
D28*
X142597184Y-85068246D02*
X143461754Y-85068246D01*
D27*
X153162715Y-82750000D02*
X152275000Y-81862285D01*
D28*
X153250000Y-73750000D02*
X153250000Y-74225000D01*
X142981754Y-82068246D02*
X143550000Y-81500000D01*
X132000000Y-86000000D02*
X132000000Y-86750000D01*
D27*
X143520000Y-73000000D02*
X142575000Y-73000000D01*
D28*
X132100000Y-85900000D02*
X132000000Y-86000000D01*
X142597184Y-82068246D02*
X142981754Y-82068246D01*
D27*
%TO.N,+2V5*%
X136900000Y-73600000D02*
X137230000Y-73270000D01*
X132100000Y-72575000D02*
X132100000Y-73600000D01*
X139150000Y-73270000D02*
X140755000Y-73270000D01*
D28*
X152750000Y-76275000D02*
X152750000Y-76639999D01*
D27*
X130400000Y-74500000D02*
X130400000Y-72600000D01*
D28*
X152750000Y-76639999D02*
X151524999Y-77865000D01*
D27*
X140755000Y-73270000D02*
X141025000Y-73000000D01*
D28*
X139541754Y-82068246D02*
X139150000Y-82460000D01*
D27*
X132100000Y-72575000D02*
X130425000Y-72575000D01*
D28*
X141047184Y-79797184D02*
X140750000Y-79500000D01*
X151524999Y-77865000D02*
X150650000Y-77865000D01*
D27*
X137230000Y-73270000D02*
X139150000Y-73270000D01*
D28*
X141047184Y-82068246D02*
X139541754Y-82068246D01*
X141047184Y-82068246D02*
X141047184Y-79797184D01*
D27*
X130425000Y-72575000D02*
X130400000Y-72600000D01*
X150650000Y-77840000D02*
X149340000Y-77840000D01*
%TO.N,-2V5*%
X131687500Y-84100000D02*
X132100000Y-84100000D01*
D28*
X140978938Y-85000000D02*
X141047184Y-85068246D01*
D27*
X139150000Y-79350000D02*
X139000000Y-79500000D01*
X150725000Y-81862285D02*
X150725000Y-80480000D01*
D28*
X138450000Y-85000000D02*
X137750000Y-84300000D01*
D27*
X139740000Y-76400000D02*
X139150000Y-75810000D01*
X139150000Y-75810000D02*
X139150000Y-79350000D01*
D28*
X139150000Y-85000000D02*
X140978938Y-85000000D01*
D27*
X149200000Y-80400000D02*
X150560000Y-80400000D01*
D28*
X139150000Y-85000000D02*
X138450000Y-85000000D01*
X130337500Y-83662500D02*
X130250000Y-83750000D01*
D27*
X130337500Y-82750000D02*
X131687500Y-84100000D01*
X150725000Y-80480000D02*
X150650000Y-80405000D01*
X141025000Y-76400000D02*
X139740000Y-76400000D01*
D28*
X130337500Y-82750000D02*
X130337500Y-83662500D01*
D27*
%TO.N,/IN-*%
X122000000Y-76500000D02*
X123000000Y-77500000D01*
X131000000Y-76665001D02*
X133125001Y-74540000D01*
X126750000Y-77500000D02*
X131000000Y-77500000D01*
X131000000Y-77500000D02*
X131000000Y-76665001D01*
X123000000Y-77500000D02*
X126750000Y-77500000D01*
%TO.N,/IN+*%
X123000000Y-80040000D02*
X122000000Y-79040000D01*
X126750000Y-80040000D02*
X123000000Y-80040000D01*
X131000000Y-80040000D02*
X126750000Y-80040000D01*
D28*
X133365540Y-83730000D02*
X134000000Y-83730000D01*
X131000000Y-81364460D02*
X133365540Y-83730000D01*
X131000000Y-79940000D02*
X131000000Y-81364460D01*
D29*
%TO.N,/OUT*%
X148510000Y-75000000D02*
X148500000Y-75010000D01*
D28*
X148265000Y-78835280D02*
X148564720Y-79135000D01*
X153250000Y-78780000D02*
X152895000Y-79135000D01*
X148564720Y-79135000D02*
X150650000Y-79135000D01*
X152895000Y-79135000D02*
X150650000Y-79135000D01*
X148265000Y-75560000D02*
X148265000Y-78835280D01*
X148825000Y-75000000D02*
X148265000Y-75560000D01*
%TO.N,Net-(U2--)*%
X136175000Y-77500000D02*
X135500000Y-77500000D01*
X134675000Y-77500000D02*
X134500000Y-77675000D01*
X134874999Y-73270000D02*
X135500000Y-73895001D01*
X135500000Y-77500000D02*
X134675000Y-77500000D01*
X134000000Y-73270000D02*
X134874999Y-73270000D01*
X135500000Y-73895001D02*
X135500000Y-77500000D01*
%TO.N,Net-(U1--)*%
X134675000Y-79500000D02*
X134500000Y-79325000D01*
X136175000Y-79500000D02*
X134675000Y-79500000D01*
X135450000Y-81644460D02*
X134634460Y-82460000D01*
X134634460Y-82460000D02*
X134000000Y-82460000D01*
X135450000Y-79500000D02*
X135450000Y-81644460D01*
%TO.N,Net-(R2-Pad2)*%
X140835430Y-83730000D02*
X140997184Y-83568246D01*
X138120540Y-83335000D02*
X138755000Y-83335000D01*
X137700000Y-82914460D02*
X138120540Y-83335000D01*
X138755000Y-83335000D02*
X139150000Y-83730000D01*
X137825000Y-79500000D02*
X137700000Y-79625000D01*
X139150000Y-83730000D02*
X140835430Y-83730000D01*
X137700000Y-79625000D02*
X137700000Y-82914460D01*
%TO.N,Net-(R3-Pad1)*%
X139150000Y-74540000D02*
X140861696Y-74540000D01*
X137700000Y-77375000D02*
X137700000Y-75200000D01*
X138360000Y-74540000D02*
X139150000Y-74540000D01*
X137700000Y-75200000D02*
X138360000Y-74540000D01*
X137825000Y-77500000D02*
X137700000Y-77375000D01*
X140861696Y-74540000D02*
X140997871Y-74676175D01*
%TO.N,Net-(U3-+)*%
X146374999Y-79135000D02*
X147175000Y-79935001D01*
X145500000Y-79135000D02*
X146374999Y-79135000D01*
X147175000Y-79935001D02*
X147175000Y-81900000D01*
X142647184Y-83568246D02*
X145506754Y-83568246D01*
D29*
X145500000Y-79040000D02*
X146374999Y-79040000D01*
D28*
X145506754Y-83568246D02*
X147175000Y-81900000D01*
%TO.N,Net-(U3--)*%
X147175000Y-75000000D02*
X147175000Y-77064999D01*
X142647871Y-74676175D02*
X146851175Y-74676175D01*
X147175000Y-77064999D02*
X146374999Y-77865000D01*
X146374999Y-77865000D02*
X145500000Y-77865000D01*
D29*
X145500000Y-77770000D02*
X146230000Y-77770000D01*
D28*
X146851175Y-74676175D02*
X147175000Y-75000000D01*
D27*
%TO.N,Net-(D2-K)*%
X126275000Y-72975000D02*
X124700000Y-74550000D01*
D28*
X128025000Y-72500000D02*
X128125000Y-72600000D01*
D27*
X124700000Y-74550000D02*
X119337500Y-74550000D01*
X119337500Y-74550000D02*
X118287500Y-73500000D01*
X124700000Y-74550000D02*
X128125000Y-74550000D01*
X126275000Y-72500000D02*
X126275000Y-72975000D01*
D28*
X126275000Y-72500000D02*
X128025000Y-72500000D01*
%TO.N,Net-(D1-A)*%
X126275000Y-84250000D02*
X126275000Y-84187394D01*
D27*
X126250000Y-84475000D02*
X118975000Y-84475000D01*
D28*
X126825000Y-83700000D02*
X126275000Y-84250000D01*
X128062500Y-84650000D02*
X128062500Y-83700000D01*
D27*
X118975000Y-84475000D02*
X118500000Y-84000000D01*
D28*
X126675000Y-84650000D02*
X126275000Y-84250000D01*
X128062500Y-84650000D02*
X126675000Y-84650000D01*
X128062500Y-83700000D02*
X126825000Y-83700000D01*
D27*
%TO.N,Net-(D1-K)*%
X116925000Y-81405000D02*
X117250000Y-81080000D01*
X116925000Y-84000000D02*
X116925000Y-81405000D01*
%TO.N,Net-(D2-A)*%
X116712500Y-73500000D02*
X116712500Y-75462500D01*
X116712500Y-75462500D02*
X117250000Y-76000000D01*
%TD*%
%TA.AperFunction,Conductor*%
%TO.N,GND*%
G36*
X131394976Y-70020185D02*
G01*
X131440731Y-70072989D01*
X131450675Y-70142147D01*
X131421650Y-70205703D01*
X131402307Y-70222152D01*
X131402935Y-70222946D01*
X131397267Y-70227427D01*
X131277427Y-70347267D01*
X131277424Y-70347271D01*
X131188457Y-70491507D01*
X131188452Y-70491518D01*
X131135144Y-70652393D01*
X131125000Y-70751677D01*
X131125000Y-70775000D01*
X133074999Y-70775000D01*
X133074999Y-70751692D01*
X133074998Y-70751677D01*
X133064855Y-70652392D01*
X133011547Y-70491518D01*
X133011542Y-70491507D01*
X132922575Y-70347271D01*
X132922572Y-70347267D01*
X132802732Y-70227427D01*
X132797065Y-70222946D01*
X132798712Y-70220862D01*
X132760241Y-70178089D01*
X132749020Y-70109126D01*
X132776864Y-70045044D01*
X132834934Y-70006189D01*
X132872063Y-70000500D01*
X158949138Y-70000500D01*
X159016177Y-70020185D01*
X159036819Y-70036819D01*
X161713181Y-72713181D01*
X161746666Y-72774504D01*
X161749500Y-72800862D01*
X161749500Y-73156000D01*
X161729815Y-73223039D01*
X161677011Y-73268794D01*
X161625500Y-73280000D01*
X158750000Y-73280000D01*
X158750000Y-74625500D01*
X158730315Y-74692539D01*
X158677511Y-74738294D01*
X158626000Y-74749500D01*
X155200808Y-74749500D01*
X155133769Y-74729815D01*
X155119561Y-74718366D01*
X155119379Y-74718589D01*
X155114668Y-74714723D01*
X155008133Y-74643538D01*
X155008124Y-74643533D01*
X154889744Y-74594499D01*
X154889738Y-74594497D01*
X154764071Y-74569500D01*
X154764069Y-74569500D01*
X154635931Y-74569500D01*
X154635929Y-74569500D01*
X154510261Y-74594497D01*
X154510255Y-74594499D01*
X154391875Y-74643533D01*
X154391866Y-74643538D01*
X154285331Y-74714723D01*
X154285327Y-74714726D01*
X154194726Y-74805327D01*
X154194723Y-74805331D01*
X154123538Y-74911866D01*
X154123533Y-74911875D01*
X154074499Y-75030255D01*
X154074497Y-75030261D01*
X154049500Y-75155928D01*
X154049500Y-75155931D01*
X154049500Y-75284069D01*
X154049500Y-75284071D01*
X154049499Y-75284071D01*
X154074497Y-75409738D01*
X154074499Y-75409744D01*
X154123533Y-75528124D01*
X154123538Y-75528133D01*
X154194723Y-75634668D01*
X154194725Y-75634671D01*
X154213179Y-75653124D01*
X154246666Y-75714446D01*
X154249500Y-75740807D01*
X154249500Y-77955500D01*
X154229815Y-78022539D01*
X154177011Y-78068294D01*
X154125500Y-78079500D01*
X152423741Y-78079500D01*
X152356702Y-78059815D01*
X152310947Y-78007011D01*
X152301003Y-77937853D01*
X152330028Y-77874297D01*
X152336060Y-77867819D01*
X152760404Y-77443475D01*
X153210515Y-76993364D01*
X153286281Y-76862134D01*
X153294763Y-76830476D01*
X153326854Y-76774892D01*
X153348528Y-76753220D01*
X153409719Y-76633126D01*
X153410175Y-76630247D01*
X153425500Y-76533493D01*
X153425500Y-76016506D01*
X153409720Y-75916878D01*
X153409719Y-75916876D01*
X153409719Y-75916874D01*
X153348528Y-75796780D01*
X153348526Y-75796778D01*
X153348523Y-75796774D01*
X153329575Y-75777826D01*
X153296090Y-75716503D01*
X153301074Y-75646811D01*
X153342946Y-75590878D01*
X153352160Y-75584606D01*
X153452731Y-75522573D01*
X153572572Y-75402732D01*
X153572575Y-75402728D01*
X153661542Y-75258492D01*
X153661547Y-75258481D01*
X153714855Y-75097606D01*
X153724999Y-74998322D01*
X153725000Y-74998309D01*
X153725000Y-74975000D01*
X151775001Y-74975000D01*
X151775001Y-74998322D01*
X151785144Y-75097607D01*
X151838452Y-75258481D01*
X151838457Y-75258492D01*
X151927424Y-75402728D01*
X151927427Y-75402732D01*
X152047266Y-75522571D01*
X152147840Y-75584606D01*
X152194564Y-75636554D01*
X152205787Y-75705517D01*
X152177943Y-75769599D01*
X152170426Y-75777825D01*
X152151473Y-75796778D01*
X152090279Y-75916878D01*
X152074500Y-76016506D01*
X152074500Y-76450256D01*
X152054815Y-76517295D01*
X152038181Y-76537937D01*
X151937181Y-76638937D01*
X151875858Y-76672422D01*
X151806166Y-76667438D01*
X151750233Y-76625566D01*
X151725816Y-76560102D01*
X151725500Y-76551256D01*
X151725500Y-76411739D01*
X151715573Y-76343608D01*
X151710480Y-76333190D01*
X151664198Y-76238517D01*
X151664196Y-76238515D01*
X151664196Y-76238514D01*
X151581485Y-76155803D01*
X151476391Y-76104426D01*
X151408261Y-76094500D01*
X151408260Y-76094500D01*
X149891740Y-76094500D01*
X149891739Y-76094500D01*
X149823608Y-76104426D01*
X149718514Y-76155803D01*
X149635803Y-76238514D01*
X149584426Y-76343608D01*
X149574500Y-76411739D01*
X149574500Y-76778260D01*
X149584426Y-76846391D01*
X149640315Y-76960714D01*
X149636675Y-76962493D01*
X149652996Y-77009384D01*
X149636642Y-77077313D01*
X149586159Y-77125617D01*
X149529147Y-77139500D01*
X149271005Y-77139500D01*
X149135677Y-77166418D01*
X149135667Y-77166421D01*
X149011952Y-77217665D01*
X148942482Y-77225134D01*
X148880003Y-77193858D01*
X148844352Y-77133769D01*
X148840500Y-77103104D01*
X148840500Y-75849742D01*
X148860185Y-75782703D01*
X148876819Y-75762061D01*
X148927062Y-75711818D01*
X148988385Y-75678333D01*
X149014743Y-75675499D01*
X149056517Y-75675499D01*
X149056518Y-75675499D01*
X149150304Y-75660646D01*
X149263342Y-75603050D01*
X149353050Y-75513342D01*
X149410646Y-75400304D01*
X149410646Y-75400302D01*
X149410647Y-75400301D01*
X149422705Y-75324164D01*
X149425500Y-75306519D01*
X149425499Y-74693482D01*
X149410646Y-74599696D01*
X149353050Y-74486658D01*
X149353046Y-74486654D01*
X149353045Y-74486652D01*
X149341393Y-74475000D01*
X151775000Y-74475000D01*
X152500000Y-74475000D01*
X152500000Y-73775000D01*
X153000000Y-73775000D01*
X153000000Y-74475000D01*
X153724999Y-74475000D01*
X153724999Y-74451692D01*
X153724998Y-74451677D01*
X153714855Y-74352392D01*
X153680926Y-74250000D01*
X154800000Y-74250000D01*
X158250000Y-74250000D01*
X158250000Y-73280000D01*
X155252155Y-73280000D01*
X155192627Y-73286401D01*
X155192620Y-73286403D01*
X155057913Y-73336645D01*
X155057906Y-73336649D01*
X154942812Y-73422809D01*
X154942809Y-73422812D01*
X154856649Y-73537906D01*
X154856645Y-73537913D01*
X154806403Y-73672620D01*
X154806401Y-73672627D01*
X154800000Y-73732155D01*
X154800000Y-74250000D01*
X153680926Y-74250000D01*
X153661547Y-74191518D01*
X153661542Y-74191507D01*
X153572575Y-74047271D01*
X153572572Y-74047267D01*
X153452732Y-73927427D01*
X153452728Y-73927424D01*
X153308492Y-73838457D01*
X153308481Y-73838452D01*
X153147606Y-73785144D01*
X153048322Y-73775000D01*
X153000000Y-73775000D01*
X152500000Y-73775000D01*
X152499999Y-73774999D01*
X152451693Y-73775000D01*
X152451675Y-73775001D01*
X152352392Y-73785144D01*
X152191518Y-73838452D01*
X152191507Y-73838457D01*
X152047271Y-73927424D01*
X152047267Y-73927427D01*
X151927427Y-74047267D01*
X151927424Y-74047271D01*
X151838457Y-74191507D01*
X151838452Y-74191518D01*
X151785144Y-74352393D01*
X151775000Y-74451677D01*
X151775000Y-74475000D01*
X149341393Y-74475000D01*
X149263347Y-74396954D01*
X149263344Y-74396952D01*
X149263342Y-74396950D01*
X149186517Y-74357805D01*
X149150301Y-74339352D01*
X149056524Y-74324500D01*
X148593482Y-74324500D01*
X148512519Y-74337323D01*
X148499696Y-74339354D01*
X148386658Y-74396950D01*
X148386657Y-74396951D01*
X148386652Y-74396954D01*
X148296954Y-74486652D01*
X148296951Y-74486657D01*
X148239352Y-74599698D01*
X148224500Y-74693475D01*
X148224500Y-74735257D01*
X148204815Y-74802296D01*
X148188181Y-74822938D01*
X147987180Y-75023939D01*
X147925857Y-75057424D01*
X147856165Y-75052440D01*
X147800232Y-75010568D01*
X147775815Y-74945104D01*
X147775499Y-74936258D01*
X147775499Y-74693482D01*
X147767589Y-74643538D01*
X147760646Y-74599696D01*
X147703050Y-74486658D01*
X147703046Y-74486654D01*
X147703045Y-74486652D01*
X147613347Y-74396954D01*
X147613344Y-74396952D01*
X147613342Y-74396950D01*
X147536517Y-74357805D01*
X147500301Y-74339352D01*
X147406524Y-74324500D01*
X147406519Y-74324500D01*
X147364742Y-74324500D01*
X147297703Y-74304815D01*
X147277061Y-74288181D01*
X147204542Y-74215662D01*
X147204540Y-74215660D01*
X147135333Y-74175703D01*
X147073311Y-74139894D01*
X147000125Y-74120284D01*
X146926941Y-74100675D01*
X146926940Y-74100675D01*
X143239096Y-74100675D01*
X143172057Y-74080990D01*
X143126302Y-74028186D01*
X143116358Y-73959028D01*
X143145383Y-73895472D01*
X143173999Y-73871137D01*
X143252728Y-73822575D01*
X143252732Y-73822572D01*
X143372572Y-73702732D01*
X143372575Y-73702728D01*
X143461542Y-73558492D01*
X143461547Y-73558481D01*
X143514855Y-73397606D01*
X143524999Y-73298322D01*
X143525000Y-73298309D01*
X143525000Y-73250000D01*
X142449000Y-73250000D01*
X142381961Y-73230315D01*
X142336206Y-73177511D01*
X142325000Y-73126000D01*
X142325000Y-72025000D01*
X142825000Y-72025000D01*
X142825000Y-72750000D01*
X143524999Y-72750000D01*
X143524999Y-72701692D01*
X143524998Y-72701677D01*
X143514855Y-72602392D01*
X143461547Y-72441518D01*
X143461542Y-72441507D01*
X143372575Y-72297271D01*
X143372572Y-72297267D01*
X143252732Y-72177427D01*
X143252728Y-72177424D01*
X143108492Y-72088457D01*
X143108481Y-72088452D01*
X142947606Y-72035144D01*
X142848322Y-72025000D01*
X142825000Y-72025000D01*
X142325000Y-72025000D01*
X142325000Y-72024999D01*
X142301693Y-72025000D01*
X142301674Y-72025001D01*
X142202392Y-72035144D01*
X142041518Y-72088452D01*
X142041507Y-72088457D01*
X141897271Y-72177424D01*
X141897267Y-72177427D01*
X141777426Y-72297268D01*
X141715392Y-72397841D01*
X141663444Y-72444565D01*
X141594481Y-72455786D01*
X141530399Y-72427943D01*
X141522173Y-72420424D01*
X141503225Y-72401476D01*
X141503221Y-72401473D01*
X141503220Y-72401472D01*
X141383126Y-72340281D01*
X141383124Y-72340280D01*
X141383121Y-72340279D01*
X141283493Y-72324500D01*
X141283488Y-72324500D01*
X141231888Y-72324500D01*
X141207697Y-72322117D01*
X141172506Y-72315117D01*
X141093996Y-72299500D01*
X141093994Y-72299500D01*
X140956006Y-72299500D01*
X140956004Y-72299500D01*
X140879995Y-72314619D01*
X140842303Y-72322117D01*
X140818113Y-72324500D01*
X140766507Y-72324500D01*
X140666878Y-72340279D01*
X140546778Y-72401473D01*
X140546774Y-72401476D01*
X140451476Y-72496774D01*
X140451469Y-72496784D01*
X140448915Y-72501797D01*
X140400940Y-72552592D01*
X140338432Y-72569500D01*
X140250544Y-72569500D01*
X140183505Y-72549815D01*
X140137750Y-72497011D01*
X140127806Y-72427853D01*
X140156831Y-72364297D01*
X140162863Y-72357819D01*
X140164196Y-72356485D01*
X140164198Y-72356483D01*
X140215573Y-72251393D01*
X140225500Y-72183260D01*
X140225500Y-71816740D01*
X140215573Y-71748607D01*
X140164198Y-71643517D01*
X140164196Y-71643515D01*
X140164196Y-71643514D01*
X140081485Y-71560803D01*
X139976391Y-71509426D01*
X139908261Y-71499500D01*
X139908260Y-71499500D01*
X138391740Y-71499500D01*
X138391739Y-71499500D01*
X138323608Y-71509426D01*
X138218514Y-71560803D01*
X138135803Y-71643514D01*
X138084426Y-71748608D01*
X138074500Y-71816739D01*
X138074500Y-72183260D01*
X138084426Y-72251391D01*
X138135803Y-72356485D01*
X138137137Y-72357819D01*
X138138378Y-72360092D01*
X138141773Y-72364847D01*
X138141198Y-72365257D01*
X138170622Y-72419142D01*
X138165638Y-72488834D01*
X138123766Y-72544767D01*
X138058302Y-72569184D01*
X138049456Y-72569500D01*
X137161003Y-72569500D01*
X137052590Y-72591065D01*
X137052589Y-72591065D01*
X137039131Y-72593742D01*
X137025673Y-72596419D01*
X137025671Y-72596420D01*
X136972866Y-72618292D01*
X136972864Y-72618293D01*
X136972863Y-72618292D01*
X136898191Y-72649223D01*
X136797489Y-72716511D01*
X136783461Y-72725884D01*
X136783454Y-72725889D01*
X136355888Y-73153453D01*
X136355887Y-73153454D01*
X136279222Y-73268192D01*
X136226421Y-73395667D01*
X136226419Y-73395676D01*
X136200962Y-73523650D01*
X136168576Y-73585560D01*
X136107860Y-73620134D01*
X136038091Y-73616393D01*
X135981419Y-73575526D01*
X135971960Y-73561460D01*
X135960515Y-73541636D01*
X135853365Y-73434486D01*
X135228364Y-72809485D01*
X135159108Y-72769500D01*
X135097135Y-72733719D01*
X134998588Y-72707314D01*
X134950765Y-72694500D01*
X134945234Y-72694500D01*
X134878195Y-72674815D01*
X134832440Y-72622011D01*
X134822496Y-72552853D01*
X134851521Y-72489297D01*
X134890773Y-72459099D01*
X134931483Y-72439198D01*
X135014198Y-72356483D01*
X135065573Y-72251393D01*
X135075500Y-72183260D01*
X135075500Y-71816740D01*
X135065573Y-71748607D01*
X135014198Y-71643517D01*
X135014196Y-71643515D01*
X135014196Y-71643514D01*
X134931485Y-71560803D01*
X134826391Y-71509426D01*
X134758261Y-71499500D01*
X134758260Y-71499500D01*
X133241740Y-71499500D01*
X133209015Y-71504267D01*
X133139839Y-71494453D01*
X133086950Y-71448797D01*
X133067140Y-71381795D01*
X133067782Y-71368959D01*
X133074999Y-71298319D01*
X133075000Y-71298309D01*
X133075000Y-71275000D01*
X131125001Y-71275000D01*
X131125001Y-71298322D01*
X131135144Y-71397607D01*
X131188452Y-71558481D01*
X131188457Y-71558492D01*
X131266738Y-71685403D01*
X131285179Y-71752795D01*
X131264257Y-71819458D01*
X131210615Y-71864228D01*
X131161200Y-71874500D01*
X130356003Y-71874500D01*
X130247590Y-71896065D01*
X130247589Y-71896065D01*
X130234131Y-71898742D01*
X130220673Y-71901419D01*
X130207074Y-71907052D01*
X130167866Y-71923292D01*
X130167864Y-71923293D01*
X130167863Y-71923292D01*
X130093191Y-71954223D01*
X130022480Y-72001472D01*
X129978458Y-72030886D01*
X129978453Y-72030890D01*
X129946161Y-72063182D01*
X129884837Y-72096667D01*
X129858481Y-72099500D01*
X129854239Y-72099500D01*
X129786108Y-72109426D01*
X129681014Y-72160803D01*
X129598303Y-72243514D01*
X129546926Y-72348608D01*
X129537000Y-72416739D01*
X129537000Y-72783260D01*
X129546926Y-72851391D01*
X129546927Y-72851393D01*
X129598302Y-72956483D01*
X129663182Y-73021363D01*
X129696666Y-73082684D01*
X129699500Y-73109043D01*
X129699500Y-73990956D01*
X129679815Y-74057995D01*
X129663181Y-74078637D01*
X129598303Y-74143514D01*
X129546926Y-74248608D01*
X129537000Y-74316739D01*
X129537000Y-74683260D01*
X129546926Y-74751391D01*
X129598303Y-74856485D01*
X129681014Y-74939196D01*
X129681015Y-74939196D01*
X129681017Y-74939198D01*
X129786107Y-74990573D01*
X129820081Y-74995523D01*
X129854239Y-75000500D01*
X129854240Y-75000500D01*
X129858481Y-75000500D01*
X129925520Y-75020185D01*
X129946162Y-75036819D01*
X129953454Y-75044111D01*
X129953458Y-75044114D01*
X130068182Y-75120771D01*
X130068195Y-75120778D01*
X130188907Y-75170778D01*
X130195672Y-75173580D01*
X130195676Y-75173580D01*
X130195677Y-75173581D01*
X130331004Y-75200500D01*
X130331007Y-75200500D01*
X130468995Y-75200500D01*
X130560041Y-75182389D01*
X130604328Y-75173580D01*
X130702924Y-75132740D01*
X130731804Y-75120778D01*
X130731804Y-75120777D01*
X130731811Y-75120775D01*
X130846542Y-75044114D01*
X130850156Y-75040500D01*
X130853838Y-75036819D01*
X130915161Y-75003334D01*
X130941519Y-75000500D01*
X130945761Y-75000500D01*
X130979919Y-74995523D01*
X131013893Y-74990573D01*
X131118983Y-74939198D01*
X131201698Y-74856483D01*
X131253073Y-74751393D01*
X131263000Y-74683260D01*
X131263000Y-74316740D01*
X131253073Y-74248607D01*
X131201698Y-74143517D01*
X131201696Y-74143515D01*
X131201696Y-74143514D01*
X131136819Y-74078637D01*
X131103334Y-74017314D01*
X131100500Y-73990956D01*
X131100500Y-73399500D01*
X131120185Y-73332461D01*
X131172989Y-73286706D01*
X131224500Y-73275500D01*
X131275500Y-73275500D01*
X131342539Y-73295185D01*
X131388294Y-73347989D01*
X131399500Y-73399500D01*
X131399500Y-73668993D01*
X131399500Y-73668995D01*
X131399499Y-73668995D01*
X131426418Y-73804322D01*
X131426421Y-73804332D01*
X131479221Y-73931804D01*
X131479228Y-73931817D01*
X131555885Y-74046541D01*
X131555888Y-74046545D01*
X131653454Y-74144111D01*
X131653458Y-74144114D01*
X131768182Y-74220771D01*
X131768195Y-74220778D01*
X131895667Y-74273578D01*
X131895672Y-74273580D01*
X131895676Y-74273580D01*
X131895677Y-74273581D01*
X132031004Y-74300500D01*
X132074481Y-74300500D01*
X132141520Y-74320185D01*
X132187275Y-74372989D01*
X132197219Y-74442147D01*
X132168194Y-74505703D01*
X132162162Y-74512181D01*
X130455888Y-76218455D01*
X130455882Y-76218463D01*
X130430439Y-76256542D01*
X130430439Y-76256543D01*
X130379228Y-76333184D01*
X130379221Y-76333196D01*
X130326421Y-76460668D01*
X130326418Y-76460678D01*
X130299500Y-76596005D01*
X130299500Y-76657265D01*
X130279815Y-76724304D01*
X130257729Y-76749115D01*
X130257897Y-76749283D01*
X130255021Y-76752158D01*
X130254173Y-76753110D01*
X130253590Y-76753590D01*
X130253588Y-76753592D01*
X130253115Y-76754169D01*
X130252788Y-76754391D01*
X130249282Y-76757898D01*
X130248616Y-76757232D01*
X130195368Y-76793501D01*
X130157265Y-76799500D01*
X127924500Y-76799500D01*
X127857461Y-76779815D01*
X127811706Y-76727011D01*
X127800500Y-76675500D01*
X127800500Y-76630249D01*
X127800499Y-76630247D01*
X127788868Y-76571770D01*
X127788867Y-76571769D01*
X127744552Y-76505447D01*
X127678230Y-76461132D01*
X127678229Y-76461131D01*
X127619752Y-76449500D01*
X127619748Y-76449500D01*
X125880252Y-76449500D01*
X125880247Y-76449500D01*
X125821770Y-76461131D01*
X125821769Y-76461132D01*
X125755447Y-76505447D01*
X125711132Y-76571769D01*
X125711131Y-76571770D01*
X125699500Y-76630247D01*
X125699500Y-76675500D01*
X125679815Y-76742539D01*
X125627011Y-76788294D01*
X125575500Y-76799500D01*
X123341519Y-76799500D01*
X123274480Y-76779815D01*
X123253838Y-76763181D01*
X122948975Y-76458318D01*
X122915490Y-76396995D01*
X122913335Y-76383599D01*
X122905344Y-76307563D01*
X122845550Y-76123537D01*
X122748802Y-75955964D01*
X122735234Y-75940895D01*
X122619332Y-75812171D01*
X122619325Y-75812165D01*
X122462789Y-75698435D01*
X122462786Y-75698433D01*
X122462785Y-75698433D01*
X122377912Y-75660645D01*
X122286021Y-75619732D01*
X122286016Y-75619730D01*
X122096748Y-75579500D01*
X121903252Y-75579500D01*
X121713983Y-75619730D01*
X121713978Y-75619732D01*
X121537215Y-75698433D01*
X121537210Y-75698435D01*
X121380674Y-75812165D01*
X121380667Y-75812171D01*
X121251197Y-75955964D01*
X121154450Y-76123536D01*
X121154447Y-76123543D01*
X121094657Y-76307558D01*
X121094656Y-76307560D01*
X121074430Y-76500000D01*
X121094656Y-76692439D01*
X121094657Y-76692441D01*
X121154447Y-76876456D01*
X121154450Y-76876463D01*
X121251197Y-77044035D01*
X121380667Y-77187828D01*
X121380674Y-77187834D01*
X121537210Y-77301564D01*
X121537211Y-77301564D01*
X121537215Y-77301567D01*
X121678565Y-77364500D01*
X121713978Y-77380267D01*
X121713983Y-77380269D01*
X121901093Y-77420041D01*
X121962575Y-77453234D01*
X121962993Y-77453650D01*
X122503407Y-77994065D01*
X122536892Y-78055388D01*
X122531908Y-78125080D01*
X122490036Y-78181013D01*
X122424572Y-78205430D01*
X122365291Y-78195026D01*
X122286016Y-78159730D01*
X122096748Y-78119500D01*
X121903252Y-78119500D01*
X121713983Y-78159730D01*
X121713978Y-78159732D01*
X121537215Y-78238433D01*
X121537210Y-78238435D01*
X121380674Y-78352165D01*
X121380667Y-78352171D01*
X121251197Y-78495964D01*
X121154450Y-78663536D01*
X121154447Y-78663543D01*
X121094657Y-78847558D01*
X121094656Y-78847560D01*
X121074430Y-79040000D01*
X121094656Y-79232439D01*
X121094657Y-79232441D01*
X121154447Y-79416456D01*
X121154450Y-79416463D01*
X121251197Y-79584035D01*
X121380667Y-79727828D01*
X121380674Y-79727834D01*
X121537210Y-79841564D01*
X121537211Y-79841564D01*
X121537215Y-79841567D01*
X121665702Y-79898773D01*
X121713978Y-79920267D01*
X121713983Y-79920269D01*
X121880063Y-79955571D01*
X121901093Y-79960041D01*
X121962575Y-79993234D01*
X121962993Y-79993650D01*
X122503407Y-80534065D01*
X122536892Y-80595388D01*
X122531908Y-80665080D01*
X122490036Y-80721013D01*
X122424572Y-80745430D01*
X122365291Y-80735026D01*
X122286016Y-80699730D01*
X122096748Y-80659500D01*
X121903252Y-80659500D01*
X121713983Y-80699730D01*
X121713978Y-80699732D01*
X121537215Y-80778433D01*
X121537210Y-80778435D01*
X121380674Y-80892165D01*
X121380667Y-80892171D01*
X121251197Y-81035964D01*
X121154450Y-81203536D01*
X121154447Y-81203543D01*
X121094657Y-81387558D01*
X121094656Y-81387560D01*
X121074430Y-81580000D01*
X121094656Y-81772439D01*
X121094657Y-81772441D01*
X121154447Y-81956456D01*
X121154450Y-81956463D01*
X121251197Y-82124035D01*
X121380667Y-82267828D01*
X121380674Y-82267834D01*
X121537210Y-82381564D01*
X121537211Y-82381564D01*
X121537215Y-82381567D01*
X121681377Y-82445752D01*
X121713978Y-82460267D01*
X121713983Y-82460269D01*
X121903252Y-82500500D01*
X122096748Y-82500500D01*
X122099110Y-82499998D01*
X126902704Y-82499998D01*
X126902705Y-82500000D01*
X127812500Y-82500000D01*
X127812500Y-81950000D01*
X128312500Y-81950000D01*
X128312500Y-82500000D01*
X129222295Y-82500000D01*
X129222295Y-82499998D01*
X129222100Y-82497513D01*
X129176281Y-82339801D01*
X129092685Y-82198447D01*
X129092678Y-82198438D01*
X128976561Y-82082321D01*
X128976552Y-82082314D01*
X128835196Y-81998717D01*
X128835193Y-81998716D01*
X128677495Y-81952900D01*
X128677489Y-81952899D01*
X128640649Y-81950000D01*
X128312500Y-81950000D01*
X127812500Y-81950000D01*
X127484350Y-81950000D01*
X127447510Y-81952899D01*
X127447504Y-81952900D01*
X127289806Y-81998716D01*
X127289803Y-81998717D01*
X127148447Y-82082314D01*
X127148438Y-82082321D01*
X127032321Y-82198438D01*
X127032314Y-82198447D01*
X126948718Y-82339801D01*
X126902899Y-82497513D01*
X126902704Y-82499998D01*
X122099110Y-82499998D01*
X122286017Y-82460269D01*
X122462785Y-82381567D01*
X122619327Y-82267833D01*
X122639205Y-82245757D01*
X122694713Y-82184108D01*
X122748802Y-82124036D01*
X122845550Y-81956463D01*
X122905344Y-81772437D01*
X122925570Y-81580000D01*
X122905344Y-81387563D01*
X122845550Y-81203537D01*
X122748802Y-81035964D01*
X122735126Y-81020775D01*
X122624680Y-80898111D01*
X122594450Y-80835119D01*
X122603076Y-80765784D01*
X122647817Y-80712118D01*
X122714470Y-80691161D01*
X122764281Y-80700577D01*
X122795672Y-80713580D01*
X122795676Y-80713580D01*
X122795677Y-80713581D01*
X122931003Y-80740500D01*
X122931006Y-80740500D01*
X122931007Y-80740500D01*
X125907265Y-80740500D01*
X125974304Y-80760185D01*
X125999119Y-80782274D01*
X125999287Y-80782107D01*
X126002165Y-80784985D01*
X126003114Y-80785830D01*
X126003590Y-80786410D01*
X126163550Y-80917685D01*
X126346046Y-81015232D01*
X126544066Y-81075300D01*
X126544065Y-81075300D01*
X126562529Y-81077118D01*
X126750000Y-81095583D01*
X126955934Y-81075300D01*
X127153954Y-81015232D01*
X127336450Y-80917685D01*
X127496410Y-80786410D01*
X127496885Y-80785830D01*
X127497212Y-80785608D01*
X127500713Y-80782107D01*
X127501377Y-80782771D01*
X127554632Y-80746499D01*
X127592735Y-80740500D01*
X129825500Y-80740500D01*
X129892539Y-80760185D01*
X129938294Y-80812989D01*
X129949500Y-80864500D01*
X129949500Y-80909752D01*
X129961131Y-80968229D01*
X129961132Y-80968230D01*
X130005447Y-81034552D01*
X130071769Y-81078867D01*
X130071770Y-81078868D01*
X130130247Y-81090499D01*
X130130250Y-81090500D01*
X130130252Y-81090500D01*
X130300500Y-81090500D01*
X130367539Y-81110185D01*
X130413294Y-81162989D01*
X130424500Y-81214500D01*
X130424500Y-81288694D01*
X130424500Y-81440226D01*
X130443132Y-81509764D01*
X130463719Y-81586596D01*
X130472839Y-81602392D01*
X130539485Y-81717825D01*
X130539487Y-81717827D01*
X130709185Y-81887525D01*
X130742670Y-81948848D01*
X130737686Y-82018540D01*
X130695814Y-82074473D01*
X130630350Y-82098890D01*
X130574052Y-82089767D01*
X130541832Y-82076421D01*
X130541822Y-82076418D01*
X130406496Y-82049500D01*
X130406494Y-82049500D01*
X130268506Y-82049500D01*
X130268504Y-82049500D01*
X130133177Y-82076418D01*
X130133167Y-82076421D01*
X130005692Y-82129222D01*
X129890954Y-82205887D01*
X129890953Y-82205888D01*
X129883661Y-82213181D01*
X129822338Y-82246666D01*
X129795980Y-82249500D01*
X129791739Y-82249500D01*
X129723608Y-82259426D01*
X129618514Y-82310803D01*
X129535803Y-82393514D01*
X129484426Y-82498608D01*
X129474500Y-82566739D01*
X129474500Y-82933260D01*
X129484426Y-83001391D01*
X129535803Y-83106485D01*
X129618515Y-83189197D01*
X129618514Y-83189197D01*
X129639590Y-83199500D01*
X129692460Y-83225346D01*
X129744042Y-83272472D01*
X129762000Y-83336746D01*
X129762000Y-83411014D01*
X129745387Y-83473014D01*
X129713720Y-83527862D01*
X129713719Y-83527865D01*
X129674500Y-83674234D01*
X129674500Y-83825766D01*
X129712758Y-83968550D01*
X129713720Y-83972137D01*
X129713720Y-83972138D01*
X129733800Y-84006917D01*
X129750273Y-84074817D01*
X129727421Y-84140844D01*
X129680874Y-84180317D01*
X129618515Y-84210802D01*
X129535803Y-84293514D01*
X129484426Y-84398608D01*
X129474500Y-84466739D01*
X129474500Y-84833260D01*
X129484426Y-84901391D01*
X129535803Y-85006485D01*
X129618514Y-85089196D01*
X129618515Y-85089196D01*
X129618517Y-85089198D01*
X129723607Y-85140573D01*
X129757673Y-85145536D01*
X129791739Y-85150500D01*
X129791740Y-85150500D01*
X130883261Y-85150500D01*
X130905971Y-85147191D01*
X130951393Y-85140573D01*
X131009275Y-85112276D01*
X131078144Y-85100517D01*
X131142442Y-85127860D01*
X131181750Y-85185623D01*
X131183588Y-85255469D01*
X131181439Y-85262680D01*
X131135144Y-85402390D01*
X131135144Y-85402391D01*
X131125000Y-85501677D01*
X131125000Y-85525000D01*
X133076166Y-85525000D01*
X133134915Y-85492919D01*
X133179153Y-85491381D01*
X133180093Y-85491518D01*
X133241739Y-85500500D01*
X133241740Y-85500500D01*
X134758261Y-85500500D01*
X134780971Y-85497191D01*
X134826393Y-85490573D01*
X134931483Y-85439198D01*
X135014198Y-85356483D01*
X135065573Y-85251393D01*
X135075500Y-85183260D01*
X135075500Y-84816740D01*
X135065573Y-84748607D01*
X135014198Y-84643517D01*
X135014196Y-84643515D01*
X135014196Y-84643514D01*
X134931485Y-84560803D01*
X134826391Y-84509426D01*
X134758261Y-84499500D01*
X134758260Y-84499500D01*
X134280963Y-84499500D01*
X134213924Y-84479815D01*
X134168169Y-84427011D01*
X134158225Y-84357853D01*
X134187250Y-84294297D01*
X134218962Y-84268114D01*
X134255334Y-84247114D01*
X134317335Y-84230500D01*
X134758261Y-84230500D01*
X134780971Y-84227191D01*
X134826393Y-84220573D01*
X134931483Y-84169198D01*
X135014198Y-84086483D01*
X135065573Y-83981393D01*
X135075500Y-83913260D01*
X135075500Y-83546740D01*
X135072749Y-83527862D01*
X135065573Y-83478608D01*
X135065573Y-83478607D01*
X135014198Y-83373517D01*
X135014196Y-83373515D01*
X135014196Y-83373514D01*
X134931485Y-83290803D01*
X134893988Y-83272472D01*
X134826393Y-83239427D01*
X134826392Y-83239426D01*
X134817742Y-83235198D01*
X134818746Y-83233144D01*
X134771585Y-83201882D01*
X134743464Y-83137921D01*
X134754387Y-83068910D01*
X134800886Y-83016760D01*
X134834341Y-83002243D01*
X134856595Y-82996281D01*
X134987825Y-82920515D01*
X135910515Y-81997825D01*
X135986281Y-81866595D01*
X136025500Y-81720226D01*
X136025500Y-81568693D01*
X136025500Y-80299499D01*
X136045185Y-80232460D01*
X136097989Y-80186705D01*
X136149500Y-80175499D01*
X136406517Y-80175499D01*
X136406518Y-80175499D01*
X136500304Y-80160646D01*
X136613342Y-80103050D01*
X136703050Y-80013342D01*
X136760646Y-79900304D01*
X136760646Y-79900302D01*
X136760647Y-79900301D01*
X136775499Y-79806524D01*
X136775500Y-79806519D01*
X136775499Y-79193482D01*
X136760646Y-79099696D01*
X136703050Y-78986658D01*
X136703046Y-78986654D01*
X136703045Y-78986652D01*
X136613347Y-78896954D01*
X136613344Y-78896952D01*
X136613342Y-78896950D01*
X136533939Y-78856492D01*
X136500301Y-78839352D01*
X136406524Y-78824500D01*
X135943482Y-78824500D01*
X135862519Y-78837323D01*
X135849696Y-78839354D01*
X135736658Y-78896950D01*
X135736657Y-78896950D01*
X135736653Y-78896953D01*
X135731329Y-78900821D01*
X135665522Y-78924298D01*
X135658448Y-78924500D01*
X135192255Y-78924500D01*
X135125216Y-78904815D01*
X135104574Y-78888181D01*
X135013347Y-78796954D01*
X135013344Y-78796952D01*
X135013342Y-78796950D01*
X134936517Y-78757805D01*
X134900301Y-78739352D01*
X134806524Y-78724500D01*
X134193482Y-78724500D01*
X134112519Y-78737323D01*
X134099696Y-78739354D01*
X133986658Y-78796950D01*
X133986657Y-78796951D01*
X133986652Y-78796954D01*
X133896954Y-78886652D01*
X133896951Y-78886657D01*
X133896950Y-78886658D01*
X133889734Y-78900821D01*
X133839352Y-78999698D01*
X133824500Y-79093475D01*
X133824500Y-79556517D01*
X133830677Y-79595515D01*
X133839354Y-79650304D01*
X133896950Y-79763342D01*
X133896952Y-79763344D01*
X133896954Y-79763347D01*
X133986652Y-79853045D01*
X133986654Y-79853046D01*
X133986658Y-79853050D01*
X134079393Y-79900301D01*
X134099698Y-79910647D01*
X134193475Y-79925499D01*
X134193481Y-79925500D01*
X134235255Y-79925499D01*
X134302294Y-79945182D01*
X134315186Y-79955571D01*
X134315189Y-79955568D01*
X134321629Y-79960509D01*
X134321635Y-79960515D01*
X134418094Y-80016206D01*
X134420954Y-80017857D01*
X134420956Y-80017858D01*
X134452862Y-80036280D01*
X134452864Y-80036280D01*
X134452865Y-80036281D01*
X134599233Y-80075500D01*
X134599234Y-80075500D01*
X134750500Y-80075500D01*
X134817539Y-80095185D01*
X134863294Y-80147989D01*
X134874500Y-80199500D01*
X134874500Y-80565500D01*
X134854815Y-80632539D01*
X134802011Y-80678294D01*
X134750500Y-80689500D01*
X133241739Y-80689500D01*
X133173608Y-80699426D01*
X133068514Y-80750803D01*
X132985803Y-80833514D01*
X132934426Y-80938608D01*
X132924500Y-81006739D01*
X132924500Y-81373260D01*
X132934426Y-81441391D01*
X132985803Y-81546485D01*
X133068514Y-81629196D01*
X133068515Y-81629196D01*
X133068517Y-81629198D01*
X133173607Y-81680573D01*
X133207673Y-81685536D01*
X133241739Y-81690500D01*
X133241740Y-81690500D01*
X133719037Y-81690500D01*
X133786076Y-81710185D01*
X133831831Y-81762989D01*
X133841775Y-81832147D01*
X133812750Y-81895703D01*
X133781038Y-81921886D01*
X133744666Y-81942886D01*
X133682665Y-81959500D01*
X133241739Y-81959500D01*
X133173608Y-81969426D01*
X133068514Y-82020803D01*
X132985803Y-82103514D01*
X132934425Y-82208609D01*
X132931584Y-82217807D01*
X132929469Y-82217153D01*
X132905758Y-82268808D01*
X132846906Y-82306467D01*
X132777037Y-82306331D01*
X132724523Y-82275103D01*
X131751601Y-81302181D01*
X131718116Y-81240858D01*
X131723100Y-81171166D01*
X131764972Y-81115233D01*
X131830436Y-81090816D01*
X131839282Y-81090500D01*
X131869750Y-81090500D01*
X131869751Y-81090499D01*
X131884568Y-81087552D01*
X131928229Y-81078868D01*
X131928229Y-81078867D01*
X131928231Y-81078867D01*
X131994552Y-81034552D01*
X132038867Y-80968231D01*
X132038867Y-80968229D01*
X132038868Y-80968229D01*
X132050499Y-80909752D01*
X132050500Y-80909750D01*
X132050500Y-79170249D01*
X132050499Y-79170247D01*
X132038868Y-79111770D01*
X132038867Y-79111769D01*
X131994552Y-79045447D01*
X131928230Y-79001132D01*
X131928229Y-79001131D01*
X131869752Y-78989500D01*
X131869748Y-78989500D01*
X130130252Y-78989500D01*
X130130247Y-78989500D01*
X130071770Y-79001131D01*
X130071769Y-79001132D01*
X130005447Y-79045447D01*
X129961132Y-79111769D01*
X129961131Y-79111770D01*
X129949500Y-79170247D01*
X129949500Y-79215500D01*
X129929815Y-79282539D01*
X129877011Y-79328294D01*
X129825500Y-79339500D01*
X127592735Y-79339500D01*
X127525696Y-79319815D01*
X127500880Y-79297725D01*
X127500713Y-79297893D01*
X127497834Y-79295014D01*
X127496885Y-79294169D01*
X127496408Y-79293588D01*
X127416430Y-79227952D01*
X127336450Y-79162315D01*
X127153954Y-79064768D01*
X126955934Y-79004700D01*
X126955932Y-79004699D01*
X126955934Y-79004699D01*
X126750000Y-78984417D01*
X126544067Y-79004699D01*
X126346043Y-79064769D01*
X126280699Y-79099697D01*
X126163550Y-79162315D01*
X126163548Y-79162316D01*
X126163547Y-79162317D01*
X126003591Y-79293588D01*
X126003115Y-79294169D01*
X126002787Y-79294391D01*
X125999287Y-79297893D01*
X125998622Y-79297228D01*
X125945368Y-79333501D01*
X125907265Y-79339500D01*
X123341519Y-79339500D01*
X123274480Y-79319815D01*
X123253838Y-79303181D01*
X122948975Y-78998318D01*
X122915490Y-78936995D01*
X122913335Y-78923599D01*
X122912136Y-78912191D01*
X122905344Y-78847563D01*
X122845550Y-78663537D01*
X122748802Y-78495964D01*
X122717118Y-78460775D01*
X122624680Y-78358111D01*
X122594450Y-78295119D01*
X122603076Y-78225784D01*
X122647817Y-78172118D01*
X122714470Y-78151161D01*
X122764281Y-78160577D01*
X122795672Y-78173580D01*
X122795676Y-78173580D01*
X122795677Y-78173581D01*
X122931003Y-78200500D01*
X122931006Y-78200500D01*
X122931007Y-78200500D01*
X125575500Y-78200500D01*
X125642539Y-78220185D01*
X125688294Y-78272989D01*
X125699500Y-78324500D01*
X125699500Y-78369752D01*
X125711131Y-78428229D01*
X125711132Y-78428230D01*
X125755447Y-78494552D01*
X125821769Y-78538867D01*
X125821770Y-78538868D01*
X125880247Y-78550499D01*
X125880250Y-78550500D01*
X125880252Y-78550500D01*
X127619750Y-78550500D01*
X127619751Y-78550499D01*
X127634568Y-78547552D01*
X127678229Y-78538868D01*
X127678229Y-78538867D01*
X127678231Y-78538867D01*
X127744552Y-78494552D01*
X127788867Y-78428231D01*
X127788867Y-78428229D01*
X127788868Y-78428229D01*
X127798922Y-78377682D01*
X127800500Y-78369748D01*
X127800500Y-78324500D01*
X127820185Y-78257461D01*
X127872989Y-78211706D01*
X127924500Y-78200500D01*
X130157265Y-78200500D01*
X130224304Y-78220185D01*
X130249119Y-78242274D01*
X130249287Y-78242107D01*
X130252165Y-78244985D01*
X130253115Y-78245831D01*
X130253591Y-78246411D01*
X130270937Y-78260646D01*
X130413550Y-78377685D01*
X130596046Y-78475232D01*
X130794066Y-78535300D01*
X130794065Y-78535300D01*
X130812529Y-78537118D01*
X131000000Y-78555583D01*
X131205934Y-78535300D01*
X131403954Y-78475232D01*
X131586450Y-78377685D01*
X131746410Y-78246410D01*
X131877685Y-78086450D01*
X131975232Y-77903954D01*
X132035300Y-77705934D01*
X132055583Y-77500000D01*
X132035300Y-77294066D01*
X131975232Y-77096046D01*
X131975230Y-77096043D01*
X131975230Y-77096041D01*
X131874814Y-76908177D01*
X131876851Y-76907087D01*
X131859039Y-76850232D01*
X131877513Y-76782849D01*
X131895333Y-76760323D01*
X132716417Y-75939239D01*
X132777737Y-75905757D01*
X132847429Y-75910741D01*
X132903362Y-75952613D01*
X132926799Y-76009044D01*
X132934426Y-76061391D01*
X132985803Y-76166485D01*
X133068514Y-76249196D01*
X133068515Y-76249196D01*
X133068517Y-76249198D01*
X133173607Y-76300573D01*
X133207673Y-76305536D01*
X133241739Y-76310500D01*
X133241740Y-76310500D01*
X134758258Y-76310500D01*
X134758260Y-76310500D01*
X134782622Y-76306950D01*
X134851797Y-76316762D01*
X134904688Y-76362416D01*
X134924500Y-76429418D01*
X134924500Y-76800500D01*
X134904815Y-76867539D01*
X134852011Y-76913294D01*
X134800500Y-76924500D01*
X134599233Y-76924500D01*
X134516967Y-76946542D01*
X134516967Y-76946543D01*
X134452865Y-76963719D01*
X134452863Y-76963719D01*
X134452863Y-76963720D01*
X134321635Y-77039485D01*
X134315189Y-77044432D01*
X134314098Y-77043010D01*
X134261601Y-77071669D01*
X134235260Y-77074500D01*
X134193483Y-77074500D01*
X134123570Y-77085573D01*
X134099696Y-77089354D01*
X133986658Y-77146950D01*
X133986657Y-77146951D01*
X133986652Y-77146954D01*
X133896954Y-77236652D01*
X133896951Y-77236657D01*
X133839352Y-77349698D01*
X133824500Y-77443475D01*
X133824500Y-77906517D01*
X133832258Y-77955500D01*
X133839354Y-78000304D01*
X133896950Y-78113342D01*
X133896952Y-78113344D01*
X133896954Y-78113347D01*
X133986652Y-78203045D01*
X133986654Y-78203046D01*
X133986658Y-78203050D01*
X134093445Y-78257461D01*
X134099698Y-78260647D01*
X134193475Y-78275499D01*
X134193481Y-78275500D01*
X134806518Y-78275499D01*
X134900304Y-78260646D01*
X135013342Y-78203050D01*
X135056662Y-78159730D01*
X135104574Y-78111819D01*
X135165897Y-78078334D01*
X135192255Y-78075500D01*
X135424234Y-78075500D01*
X135575766Y-78075500D01*
X135658448Y-78075500D01*
X135725487Y-78095185D01*
X135731329Y-78099179D01*
X135736653Y-78103046D01*
X135736655Y-78103047D01*
X135736658Y-78103050D01*
X135831081Y-78151161D01*
X135849698Y-78160647D01*
X135943475Y-78175499D01*
X135943481Y-78175500D01*
X136406518Y-78175499D01*
X136500304Y-78160646D01*
X136613342Y-78103050D01*
X136703050Y-78013342D01*
X136760646Y-77900304D01*
X136760646Y-77900302D01*
X136760647Y-77900301D01*
X136775499Y-77806524D01*
X136775500Y-77806519D01*
X136775499Y-77193482D01*
X136760646Y-77099696D01*
X136703050Y-76986658D01*
X136703046Y-76986654D01*
X136703045Y-76986652D01*
X136613347Y-76896954D01*
X136613344Y-76896952D01*
X136613342Y-76896950D01*
X136536517Y-76857805D01*
X136500301Y-76839352D01*
X136406524Y-76824500D01*
X136406519Y-76824500D01*
X136199500Y-76824500D01*
X136132461Y-76804815D01*
X136086706Y-76752011D01*
X136075500Y-76700500D01*
X136075500Y-74035688D01*
X136095185Y-73968649D01*
X136147989Y-73922894D01*
X136217147Y-73912950D01*
X136280703Y-73941975D01*
X136302600Y-73966795D01*
X136331086Y-74009427D01*
X136355887Y-74046545D01*
X136453454Y-74144112D01*
X136568192Y-74220777D01*
X136695667Y-74273578D01*
X136695672Y-74273580D01*
X136695676Y-74273580D01*
X136695677Y-74273581D01*
X136831003Y-74300500D01*
X136831006Y-74300500D01*
X136968996Y-74300500D01*
X137092800Y-74275873D01*
X137104328Y-74273580D01*
X137168069Y-74247177D01*
X137231807Y-74220777D01*
X137231808Y-74220776D01*
X137231811Y-74220775D01*
X137346543Y-74144114D01*
X137483839Y-74006817D01*
X137545160Y-73973334D01*
X137571519Y-73970500D01*
X137816258Y-73970500D01*
X137883297Y-73990185D01*
X137929052Y-74042989D01*
X137938996Y-74112147D01*
X137909971Y-74175703D01*
X137903939Y-74182181D01*
X137239487Y-74846632D01*
X137239485Y-74846635D01*
X137163719Y-74977863D01*
X137132570Y-75094115D01*
X137124500Y-75124234D01*
X137124500Y-77299234D01*
X137124500Y-77450766D01*
X137163719Y-77597135D01*
X137205167Y-77668926D01*
X137207887Y-77673636D01*
X137224500Y-77735634D01*
X137224500Y-77806516D01*
X137234209Y-77867819D01*
X137239354Y-77900304D01*
X137296950Y-78013342D01*
X137296952Y-78013344D01*
X137296954Y-78013347D01*
X137386652Y-78103045D01*
X137386654Y-78103046D01*
X137386658Y-78103050D01*
X137481081Y-78151161D01*
X137499698Y-78160647D01*
X137593475Y-78175499D01*
X137593481Y-78175500D01*
X138056518Y-78175499D01*
X138150304Y-78160646D01*
X138263342Y-78103050D01*
X138263344Y-78103047D01*
X138269204Y-78100062D01*
X138337874Y-78087165D01*
X138402614Y-78113441D01*
X138442872Y-78170547D01*
X138449500Y-78210546D01*
X138449500Y-78789453D01*
X138429815Y-78856492D01*
X138377011Y-78902247D01*
X138307853Y-78912191D01*
X138269205Y-78899938D01*
X138263343Y-78896951D01*
X138263342Y-78896950D01*
X138183939Y-78856492D01*
X138150301Y-78839352D01*
X138056524Y-78824500D01*
X137593482Y-78824500D01*
X137512519Y-78837323D01*
X137499696Y-78839354D01*
X137386658Y-78896950D01*
X137386657Y-78896951D01*
X137386652Y-78896954D01*
X137296954Y-78986652D01*
X137296951Y-78986657D01*
X137239352Y-79099698D01*
X137224500Y-79193475D01*
X137224500Y-79264363D01*
X137207887Y-79326363D01*
X137163720Y-79402862D01*
X137163719Y-79402865D01*
X137124500Y-79549234D01*
X137124500Y-82838694D01*
X137124500Y-82990226D01*
X137163719Y-83136595D01*
X137239485Y-83267825D01*
X137239487Y-83267827D01*
X137545155Y-83573495D01*
X137578640Y-83634818D01*
X137573656Y-83704510D01*
X137531784Y-83760443D01*
X137519475Y-83768563D01*
X137396635Y-83839485D01*
X137396632Y-83839487D01*
X137289487Y-83946632D01*
X137289485Y-83946635D01*
X137213719Y-84077863D01*
X137179835Y-84204322D01*
X137174500Y-84224234D01*
X137174500Y-84375766D01*
X137182065Y-84404000D01*
X137213719Y-84522136D01*
X137228683Y-84548054D01*
X137289485Y-84653365D01*
X137989485Y-85353365D01*
X138096635Y-85460515D01*
X138148697Y-85490573D01*
X138227865Y-85536281D01*
X138374233Y-85575500D01*
X138374234Y-85575500D01*
X139074234Y-85575500D01*
X140426328Y-85575500D01*
X140493367Y-85595185D01*
X140514004Y-85611814D01*
X140568964Y-85666774D01*
X140689058Y-85727965D01*
X140689060Y-85727965D01*
X140689062Y-85727966D01*
X140788691Y-85743746D01*
X140788696Y-85743746D01*
X141305677Y-85743746D01*
X141405305Y-85727966D01*
X141405305Y-85727965D01*
X141405310Y-85727965D01*
X141525404Y-85666774D01*
X141544357Y-85647820D01*
X141605678Y-85614336D01*
X141675369Y-85619319D01*
X141731304Y-85661190D01*
X141737576Y-85670405D01*
X141799608Y-85770974D01*
X141799611Y-85770978D01*
X141919451Y-85890818D01*
X141919455Y-85890821D01*
X142063691Y-85979788D01*
X142063702Y-85979793D01*
X142224577Y-86033101D01*
X142323867Y-86043245D01*
X142347184Y-86043244D01*
X142347184Y-85318246D01*
X142847184Y-85318246D01*
X142847184Y-86043245D01*
X142870492Y-86043245D01*
X142870506Y-86043244D01*
X142969791Y-86033101D01*
X143130665Y-85979793D01*
X143130676Y-85979788D01*
X143274912Y-85890821D01*
X143274916Y-85890818D01*
X143394756Y-85770978D01*
X143394759Y-85770974D01*
X143483726Y-85626738D01*
X143483731Y-85626727D01*
X143537039Y-85465852D01*
X143547183Y-85366568D01*
X143547184Y-85366555D01*
X143547184Y-85318246D01*
X142847184Y-85318246D01*
X142347184Y-85318246D01*
X142347184Y-84942246D01*
X142366869Y-84875207D01*
X142419673Y-84829452D01*
X142471184Y-84818246D01*
X143547183Y-84818246D01*
X143547183Y-84769938D01*
X143547182Y-84769923D01*
X143537039Y-84670638D01*
X143483731Y-84509764D01*
X143483726Y-84509753D01*
X143394759Y-84365517D01*
X143394756Y-84365513D01*
X143384670Y-84355427D01*
X143351185Y-84294104D01*
X143356169Y-84224412D01*
X143398041Y-84168479D01*
X143463505Y-84144062D01*
X143472351Y-84143746D01*
X145582518Y-84143746D01*
X145582520Y-84143746D01*
X145728889Y-84104527D01*
X145860119Y-84028761D01*
X146578879Y-83310000D01*
X154800000Y-83310000D01*
X154800000Y-83827844D01*
X154806401Y-83887372D01*
X154806403Y-83887379D01*
X154856645Y-84022086D01*
X154856649Y-84022093D01*
X154942809Y-84137187D01*
X154942812Y-84137190D01*
X155057906Y-84223350D01*
X155057913Y-84223354D01*
X155192620Y-84273596D01*
X155192627Y-84273598D01*
X155252155Y-84279999D01*
X155252172Y-84280000D01*
X158250000Y-84280000D01*
X158250000Y-83310000D01*
X154800000Y-83310000D01*
X146578879Y-83310000D01*
X147177061Y-82711817D01*
X147238384Y-82678333D01*
X147264742Y-82675499D01*
X147406517Y-82675499D01*
X147406518Y-82675499D01*
X147500304Y-82660646D01*
X147613342Y-82603050D01*
X147703050Y-82513342D01*
X147727995Y-82464384D01*
X147775967Y-82413591D01*
X147843788Y-82396796D01*
X147909923Y-82419333D01*
X147953375Y-82474048D01*
X147956863Y-82483791D01*
X147981981Y-82564396D01*
X148069927Y-82709877D01*
X148190122Y-82830072D01*
X148335604Y-82918019D01*
X148335603Y-82918019D01*
X148497894Y-82968590D01*
X148497893Y-82968590D01*
X148568408Y-82974998D01*
X148568426Y-82974999D01*
X148574999Y-82974998D01*
X148575000Y-82974998D01*
X148575000Y-82250000D01*
X149075000Y-82250000D01*
X149075000Y-82974999D01*
X149081581Y-82974999D01*
X149152102Y-82968591D01*
X149152107Y-82968590D01*
X149314396Y-82918018D01*
X149459877Y-82830072D01*
X149580072Y-82709877D01*
X149668019Y-82564395D01*
X149718590Y-82402106D01*
X149725000Y-82331572D01*
X149725000Y-82250000D01*
X149075000Y-82250000D01*
X148575000Y-82250000D01*
X148575000Y-81874000D01*
X148594685Y-81806961D01*
X148647489Y-81761206D01*
X148699000Y-81750000D01*
X149724999Y-81750000D01*
X149724999Y-81668417D01*
X149718591Y-81597897D01*
X149718590Y-81597892D01*
X149668018Y-81435603D01*
X149579182Y-81288650D01*
X149561346Y-81221096D01*
X149582863Y-81154622D01*
X149636904Y-81110334D01*
X149685299Y-81100500D01*
X149900500Y-81100500D01*
X149967539Y-81120185D01*
X150013294Y-81172989D01*
X150024500Y-81224500D01*
X150024500Y-81931278D01*
X150024500Y-81931280D01*
X150024499Y-81931280D01*
X150051418Y-82066607D01*
X150051420Y-82066613D01*
X150057926Y-82082321D01*
X150065061Y-82099545D01*
X150074500Y-82146998D01*
X150074500Y-82283493D01*
X150090279Y-82383121D01*
X150090280Y-82383124D01*
X150090281Y-82383126D01*
X150151472Y-82503220D01*
X150151473Y-82503221D01*
X150151476Y-82503225D01*
X150246774Y-82598523D01*
X150246778Y-82598526D01*
X150246780Y-82598528D01*
X150366874Y-82659719D01*
X150366876Y-82659719D01*
X150366878Y-82659720D01*
X150466507Y-82675500D01*
X150466512Y-82675500D01*
X150983493Y-82675500D01*
X151083121Y-82659720D01*
X151083121Y-82659719D01*
X151083126Y-82659719D01*
X151203220Y-82598528D01*
X151222173Y-82579574D01*
X151283494Y-82546090D01*
X151353185Y-82551073D01*
X151409120Y-82592944D01*
X151415392Y-82602159D01*
X151477424Y-82702728D01*
X151477427Y-82702732D01*
X151597267Y-82822572D01*
X151597271Y-82822575D01*
X151741507Y-82911542D01*
X151741518Y-82911547D01*
X151902393Y-82964855D01*
X152001683Y-82974999D01*
X152025000Y-82974998D01*
X152025000Y-82250000D01*
X152525000Y-82250000D01*
X152525000Y-82974999D01*
X152548308Y-82974999D01*
X152548322Y-82974998D01*
X152647607Y-82964855D01*
X152808481Y-82911547D01*
X152808492Y-82911542D01*
X152952728Y-82822575D01*
X152952732Y-82822572D01*
X153072572Y-82702732D01*
X153072575Y-82702728D01*
X153161542Y-82558492D01*
X153161547Y-82558481D01*
X153214855Y-82397606D01*
X153224999Y-82298322D01*
X153225000Y-82298309D01*
X153225000Y-82250000D01*
X152525000Y-82250000D01*
X152025000Y-82250000D01*
X152025000Y-81025000D01*
X152525000Y-81025000D01*
X152525000Y-81750000D01*
X153224999Y-81750000D01*
X153224999Y-81701692D01*
X153224998Y-81701677D01*
X153214855Y-81602392D01*
X153161547Y-81441518D01*
X153161542Y-81441507D01*
X153072575Y-81297271D01*
X153072572Y-81297267D01*
X152952732Y-81177427D01*
X152952728Y-81177424D01*
X152808492Y-81088457D01*
X152808481Y-81088452D01*
X152647606Y-81035144D01*
X152548322Y-81025000D01*
X152525000Y-81025000D01*
X152025000Y-81025000D01*
X152025000Y-81024999D01*
X152001693Y-81025000D01*
X152001674Y-81025001D01*
X151902392Y-81035144D01*
X151741518Y-81088452D01*
X151741513Y-81088454D01*
X151614597Y-81166738D01*
X151547205Y-81185178D01*
X151480541Y-81164256D01*
X151435771Y-81110614D01*
X151425500Y-81061199D01*
X151425500Y-80997857D01*
X151445185Y-80930818D01*
X151495039Y-80886457D01*
X151581483Y-80844198D01*
X151664198Y-80761483D01*
X151715573Y-80656393D01*
X151725500Y-80588260D01*
X151725500Y-80221740D01*
X151723825Y-80210247D01*
X151718454Y-80173380D01*
X151715573Y-80153607D01*
X151664198Y-80048517D01*
X151664196Y-80048515D01*
X151664196Y-80048514D01*
X151581485Y-79965803D01*
X151570668Y-79960515D01*
X151540773Y-79945900D01*
X151489192Y-79898773D01*
X151471277Y-79831239D01*
X151492718Y-79764740D01*
X151546707Y-79720390D01*
X151595234Y-79710500D01*
X152970764Y-79710500D01*
X152970766Y-79710500D01*
X153117135Y-79671281D01*
X153248365Y-79595515D01*
X153327061Y-79516819D01*
X153388384Y-79483334D01*
X153414742Y-79480500D01*
X154125500Y-79480500D01*
X154192539Y-79500185D01*
X154238294Y-79552989D01*
X154249500Y-79604500D01*
X154249500Y-81819192D01*
X154229815Y-81886231D01*
X154213181Y-81906873D01*
X154194726Y-81925327D01*
X154194723Y-81925331D01*
X154123538Y-82031866D01*
X154123533Y-82031875D01*
X154074499Y-82150255D01*
X154074497Y-82150261D01*
X154049500Y-82275928D01*
X154049500Y-82275931D01*
X154049500Y-82404069D01*
X154049500Y-82404071D01*
X154049499Y-82404071D01*
X154074497Y-82529738D01*
X154074499Y-82529744D01*
X154123533Y-82648124D01*
X154123538Y-82648133D01*
X154194723Y-82754668D01*
X154194726Y-82754672D01*
X154285327Y-82845273D01*
X154285331Y-82845276D01*
X154391866Y-82916461D01*
X154391875Y-82916466D01*
X154409801Y-82923891D01*
X154510256Y-82965501D01*
X154510260Y-82965501D01*
X154510261Y-82965502D01*
X154635928Y-82990500D01*
X154635931Y-82990500D01*
X154764071Y-82990500D01*
X154851738Y-82973061D01*
X154889744Y-82965501D01*
X155008127Y-82916465D01*
X155114669Y-82845276D01*
X155114673Y-82845271D01*
X155119379Y-82841411D01*
X155120380Y-82842631D01*
X155174950Y-82812834D01*
X155201308Y-82810000D01*
X158626000Y-82810000D01*
X158693039Y-82829685D01*
X158738794Y-82882489D01*
X158750000Y-82934000D01*
X158750000Y-84280000D01*
X161625500Y-84280000D01*
X161692539Y-84299685D01*
X161738294Y-84352489D01*
X161749500Y-84404000D01*
X161749500Y-84699138D01*
X161729815Y-84766177D01*
X161713181Y-84786819D01*
X159036819Y-87463181D01*
X158975496Y-87496666D01*
X158949138Y-87499500D01*
X117050862Y-87499500D01*
X116983823Y-87479815D01*
X116963181Y-87463181D01*
X115775000Y-86275000D01*
X125275001Y-86275000D01*
X125275001Y-86298322D01*
X125285144Y-86397607D01*
X125338452Y-86558481D01*
X125338457Y-86558492D01*
X125427424Y-86702728D01*
X125427427Y-86702732D01*
X125547267Y-86822572D01*
X125547271Y-86822575D01*
X125691507Y-86911542D01*
X125691518Y-86911547D01*
X125852393Y-86964855D01*
X125951683Y-86974999D01*
X125999999Y-86974998D01*
X126000000Y-86974998D01*
X126000000Y-86275000D01*
X126500000Y-86275000D01*
X126500000Y-86974999D01*
X126548308Y-86974999D01*
X126548322Y-86974998D01*
X126647607Y-86964855D01*
X126808481Y-86911547D01*
X126808492Y-86911542D01*
X126952728Y-86822575D01*
X126952732Y-86822572D01*
X127072572Y-86702732D01*
X127072575Y-86702728D01*
X127161542Y-86558492D01*
X127161547Y-86558481D01*
X127214855Y-86397606D01*
X127224999Y-86298322D01*
X127225000Y-86298309D01*
X127225000Y-86275000D01*
X126500000Y-86275000D01*
X126000000Y-86275000D01*
X125275001Y-86275000D01*
X115775000Y-86275000D01*
X115525000Y-86025000D01*
X131125001Y-86025000D01*
X131125001Y-86048322D01*
X131135144Y-86147607D01*
X131188452Y-86308481D01*
X131188457Y-86308492D01*
X131277424Y-86452728D01*
X131277427Y-86452732D01*
X131397267Y-86572572D01*
X131397271Y-86572575D01*
X131541507Y-86661542D01*
X131541518Y-86661547D01*
X131702393Y-86714855D01*
X131801683Y-86724999D01*
X131849999Y-86724998D01*
X131850000Y-86724998D01*
X131850000Y-86025000D01*
X132350000Y-86025000D01*
X132350000Y-86724999D01*
X132398308Y-86724999D01*
X132398322Y-86724998D01*
X132497607Y-86714855D01*
X132658481Y-86661547D01*
X132658492Y-86661542D01*
X132802728Y-86572575D01*
X132802732Y-86572572D01*
X132922572Y-86452732D01*
X132922575Y-86452728D01*
X133011542Y-86308492D01*
X133011547Y-86308481D01*
X133064855Y-86147606D01*
X133074999Y-86048322D01*
X133075000Y-86048309D01*
X133075000Y-86025000D01*
X132350000Y-86025000D01*
X131850000Y-86025000D01*
X131125001Y-86025000D01*
X115525000Y-86025000D01*
X114036819Y-84536819D01*
X114003334Y-84475496D01*
X114000500Y-84449138D01*
X114000500Y-78790000D01*
X115919364Y-78790000D01*
X115976567Y-79003486D01*
X115976570Y-79003492D01*
X116076399Y-79217578D01*
X116211894Y-79411082D01*
X116378917Y-79578105D01*
X116572421Y-79713600D01*
X116742948Y-79793118D01*
X116795387Y-79839290D01*
X116814539Y-79906484D01*
X116794323Y-79973365D01*
X116741158Y-80018700D01*
X116690543Y-80029500D01*
X116380247Y-80029500D01*
X116321770Y-80041131D01*
X116321769Y-80041132D01*
X116255447Y-80085447D01*
X116211132Y-80151769D01*
X116211131Y-80151770D01*
X116199500Y-80210247D01*
X116199500Y-81949752D01*
X116211130Y-82008223D01*
X116215059Y-82017706D01*
X116224500Y-82065165D01*
X116224500Y-84068993D01*
X116224500Y-84068995D01*
X116224499Y-84068995D01*
X116251418Y-84204322D01*
X116251420Y-84204327D01*
X116281635Y-84277275D01*
X116289546Y-84305328D01*
X116302547Y-84387416D01*
X116302548Y-84387419D01*
X116302549Y-84387420D01*
X116362842Y-84505751D01*
X116362844Y-84505753D01*
X116362846Y-84505756D01*
X116456743Y-84599653D01*
X116456745Y-84599654D01*
X116456749Y-84599658D01*
X116575080Y-84659951D01*
X116575081Y-84659951D01*
X116575083Y-84659952D01*
X116575082Y-84659952D01*
X116673249Y-84675500D01*
X116673254Y-84675500D01*
X116718113Y-84675500D01*
X116742303Y-84677882D01*
X116766184Y-84682633D01*
X116856004Y-84700500D01*
X116856007Y-84700500D01*
X116993995Y-84700500D01*
X117083816Y-84682633D01*
X117107696Y-84677882D01*
X117131887Y-84675500D01*
X117176751Y-84675500D01*
X117274917Y-84659952D01*
X117274918Y-84659951D01*
X117274920Y-84659951D01*
X117393251Y-84599658D01*
X117487158Y-84505751D01*
X117547451Y-84387420D01*
X117560452Y-84305326D01*
X117568365Y-84277272D01*
X117597939Y-84205875D01*
X117641780Y-84151471D01*
X117708075Y-84129407D01*
X117775774Y-84146687D01*
X117823384Y-84197824D01*
X117827062Y-84205877D01*
X117856635Y-84277275D01*
X117864546Y-84305328D01*
X117877547Y-84387416D01*
X117877548Y-84387419D01*
X117877549Y-84387420D01*
X117937842Y-84505751D01*
X117937844Y-84505753D01*
X117937846Y-84505756D01*
X118031743Y-84599653D01*
X118031746Y-84599655D01*
X118031749Y-84599658D01*
X118150080Y-84659951D01*
X118150082Y-84659951D01*
X118150224Y-84659998D01*
X118150485Y-84660158D01*
X118158777Y-84664383D01*
X118158444Y-84665035D01*
X118199594Y-84690250D01*
X118430886Y-84921542D01*
X118515827Y-85006483D01*
X118528459Y-85019115D01*
X118643185Y-85095773D01*
X118643187Y-85095774D01*
X118643189Y-85095775D01*
X118678773Y-85110514D01*
X118678774Y-85110515D01*
X118678775Y-85110515D01*
X118770671Y-85148580D01*
X118780324Y-85150500D01*
X118830597Y-85160500D01*
X118906004Y-85175500D01*
X125311200Y-85175500D01*
X125378239Y-85195185D01*
X125423994Y-85247989D01*
X125433938Y-85317147D01*
X125416738Y-85364597D01*
X125338457Y-85491507D01*
X125338452Y-85491518D01*
X125285144Y-85652393D01*
X125275000Y-85751677D01*
X125275000Y-85775000D01*
X127224999Y-85775000D01*
X127224999Y-85751692D01*
X127224998Y-85751677D01*
X127214855Y-85652392D01*
X127161547Y-85491518D01*
X127161542Y-85491507D01*
X127114103Y-85414597D01*
X127095662Y-85347205D01*
X127116584Y-85280541D01*
X127170226Y-85235772D01*
X127219641Y-85225500D01*
X128138264Y-85225500D01*
X128138266Y-85225500D01*
X128284635Y-85186281D01*
X128289867Y-85183260D01*
X128317834Y-85167114D01*
X128379835Y-85150500D01*
X128608261Y-85150500D01*
X128630971Y-85147191D01*
X128676393Y-85140573D01*
X128781483Y-85089198D01*
X128864198Y-85006483D01*
X128915573Y-84901393D01*
X128925500Y-84833260D01*
X128925500Y-84466740D01*
X128915573Y-84398607D01*
X128864198Y-84293517D01*
X128864196Y-84293515D01*
X128864196Y-84293514D01*
X128833363Y-84262681D01*
X128799878Y-84201358D01*
X128804862Y-84131666D01*
X128833363Y-84087319D01*
X128864196Y-84056485D01*
X128864198Y-84056483D01*
X128915573Y-83951393D01*
X128925500Y-83883260D01*
X128925500Y-83518032D01*
X128945185Y-83450993D01*
X128973510Y-83420045D01*
X128976561Y-83417678D01*
X129092678Y-83301561D01*
X129092685Y-83301552D01*
X129176281Y-83160198D01*
X129222100Y-83002486D01*
X129222295Y-83000001D01*
X129222295Y-83000000D01*
X126902705Y-83000000D01*
X126899255Y-83003731D01*
X126887612Y-83059151D01*
X126838559Y-83108907D01*
X126778360Y-83124500D01*
X126749231Y-83124500D01*
X126704093Y-83136594D01*
X126704094Y-83136595D01*
X126602865Y-83163719D01*
X126602863Y-83163719D01*
X126602863Y-83163720D01*
X126471635Y-83239485D01*
X126471632Y-83239487D01*
X126081304Y-83629814D01*
X126055624Y-83649520D01*
X125921635Y-83726879D01*
X125921632Y-83726881D01*
X125910333Y-83738181D01*
X125849010Y-83771666D01*
X125822652Y-83774500D01*
X119316518Y-83774500D01*
X119249479Y-83754815D01*
X119228837Y-83738181D01*
X119152750Y-83662094D01*
X119127535Y-83620944D01*
X119126883Y-83621277D01*
X119122658Y-83612985D01*
X119122498Y-83612724D01*
X119122450Y-83612578D01*
X119102536Y-83573495D01*
X119062158Y-83494249D01*
X119062155Y-83494246D01*
X119062153Y-83494243D01*
X118968256Y-83400346D01*
X118968253Y-83400344D01*
X118968251Y-83400342D01*
X118849920Y-83340049D01*
X118849919Y-83340048D01*
X118849916Y-83340047D01*
X118849917Y-83340047D01*
X118751751Y-83324500D01*
X118751746Y-83324500D01*
X118706887Y-83324500D01*
X118682696Y-83322117D01*
X118645004Y-83314619D01*
X118568996Y-83299500D01*
X118568994Y-83299500D01*
X118431006Y-83299500D01*
X118431004Y-83299500D01*
X118354995Y-83314619D01*
X118317303Y-83322117D01*
X118293113Y-83324500D01*
X118248249Y-83324500D01*
X118150082Y-83340047D01*
X118071192Y-83380244D01*
X118031749Y-83400342D01*
X118031748Y-83400343D01*
X118031743Y-83400346D01*
X117937846Y-83494243D01*
X117937843Y-83494248D01*
X117937842Y-83494249D01*
X117926382Y-83516740D01*
X117877547Y-83612582D01*
X117871973Y-83647782D01*
X117842044Y-83710916D01*
X117782733Y-83747848D01*
X117712870Y-83746850D01*
X117654637Y-83708241D01*
X117626523Y-83644277D01*
X117625500Y-83628384D01*
X117625500Y-82254500D01*
X117645185Y-82187461D01*
X117697989Y-82141706D01*
X117749500Y-82130500D01*
X118119750Y-82130500D01*
X118119751Y-82130499D01*
X118134568Y-82127552D01*
X118178229Y-82118868D01*
X118178229Y-82118867D01*
X118178231Y-82118867D01*
X118244552Y-82074552D01*
X118288867Y-82008231D01*
X118288867Y-82008229D01*
X118288868Y-82008229D01*
X118300499Y-81949752D01*
X118300500Y-81949750D01*
X118300500Y-80210249D01*
X118300499Y-80210247D01*
X118288868Y-80151770D01*
X118288867Y-80151769D01*
X118244552Y-80085447D01*
X118178230Y-80041132D01*
X118178229Y-80041131D01*
X118119752Y-80029500D01*
X118119748Y-80029500D01*
X117809457Y-80029500D01*
X117742418Y-80009815D01*
X117696663Y-79957011D01*
X117686719Y-79887853D01*
X117715744Y-79824297D01*
X117757052Y-79793118D01*
X117927578Y-79713600D01*
X118121082Y-79578105D01*
X118288105Y-79411082D01*
X118423600Y-79217578D01*
X118523429Y-79003492D01*
X118523432Y-79003486D01*
X118580636Y-78790000D01*
X117683012Y-78790000D01*
X117715925Y-78732993D01*
X117750000Y-78605826D01*
X117750000Y-78474174D01*
X117715925Y-78347007D01*
X117683012Y-78290000D01*
X118580636Y-78290000D01*
X118580635Y-78289999D01*
X118523432Y-78076513D01*
X118523429Y-78076507D01*
X118423600Y-77862422D01*
X118423599Y-77862420D01*
X118288113Y-77668926D01*
X118288108Y-77668920D01*
X118121082Y-77501894D01*
X117927578Y-77366399D01*
X117713492Y-77266570D01*
X117713486Y-77266567D01*
X117591349Y-77233841D01*
X117531689Y-77197476D01*
X117501160Y-77134629D01*
X117509455Y-77065253D01*
X117553940Y-77011375D01*
X117587444Y-76995407D01*
X117653954Y-76975232D01*
X117836450Y-76877685D01*
X117996410Y-76746410D01*
X118127685Y-76586450D01*
X118225232Y-76403954D01*
X118285300Y-76205934D01*
X118305583Y-76000000D01*
X118285300Y-75794066D01*
X118225232Y-75596046D01*
X118127685Y-75413550D01*
X118045766Y-75313731D01*
X117996410Y-75253589D01*
X117836452Y-75122317D01*
X117836453Y-75122317D01*
X117836450Y-75122315D01*
X117653954Y-75024768D01*
X117501004Y-74978371D01*
X117442566Y-74940074D01*
X117414110Y-74876262D01*
X117413000Y-74859711D01*
X117413000Y-73871614D01*
X117432685Y-73804575D01*
X117485489Y-73758820D01*
X117554647Y-73748876D01*
X117618203Y-73777901D01*
X117655977Y-73836679D01*
X117659471Y-73852208D01*
X117665049Y-73887420D01*
X117725342Y-74005751D01*
X117725344Y-74005753D01*
X117725346Y-74005756D01*
X117819243Y-74099653D01*
X117819246Y-74099655D01*
X117819249Y-74099658D01*
X117937580Y-74159951D01*
X117937588Y-74159952D01*
X117937718Y-74159995D01*
X117937978Y-74160154D01*
X117946277Y-74164383D01*
X117945944Y-74165035D01*
X117987092Y-74190249D01*
X118890953Y-75094111D01*
X118890954Y-75094112D01*
X119005690Y-75170776D01*
X119077451Y-75200500D01*
X119133171Y-75223580D01*
X119133172Y-75223580D01*
X119133177Y-75223582D01*
X119160045Y-75228925D01*
X119160051Y-75228926D01*
X119160091Y-75228934D01*
X119250437Y-75246905D01*
X119268506Y-75250500D01*
X119268507Y-75250500D01*
X128193995Y-75250500D01*
X128285041Y-75232389D01*
X128329328Y-75223580D01*
X128456811Y-75170775D01*
X128571542Y-75094114D01*
X128635110Y-75030545D01*
X128696431Y-74997062D01*
X128704887Y-74995527D01*
X128738893Y-74990573D01*
X128843983Y-74939198D01*
X128926698Y-74856483D01*
X128978073Y-74751393D01*
X128988000Y-74683260D01*
X128988000Y-74318032D01*
X129007685Y-74250993D01*
X129036010Y-74220045D01*
X129039061Y-74217678D01*
X129155178Y-74101561D01*
X129155185Y-74101552D01*
X129238781Y-73960198D01*
X129284600Y-73802486D01*
X129284795Y-73800001D01*
X129284795Y-73800000D01*
X126965204Y-73800000D01*
X126956263Y-73809672D01*
X126896302Y-73845538D01*
X126865208Y-73849500D01*
X126690518Y-73849500D01*
X126623479Y-73829815D01*
X126577724Y-73777011D01*
X126567780Y-73707853D01*
X126596805Y-73644297D01*
X126602837Y-73637819D01*
X126709650Y-73531006D01*
X126819113Y-73421543D01*
X126835108Y-73397606D01*
X126836401Y-73395671D01*
X126863505Y-73355108D01*
X126917117Y-73310304D01*
X126966606Y-73300000D01*
X129284795Y-73300000D01*
X129284795Y-73299998D01*
X129284600Y-73297513D01*
X129238781Y-73139801D01*
X129155185Y-72998447D01*
X129155178Y-72998438D01*
X129039059Y-72882319D01*
X129035996Y-72879943D01*
X129034210Y-72877470D01*
X129033540Y-72876800D01*
X129033648Y-72876691D01*
X128995091Y-72823299D01*
X128988000Y-72781966D01*
X128988000Y-72416739D01*
X128979221Y-72356485D01*
X128978073Y-72348607D01*
X128926698Y-72243517D01*
X128926696Y-72243515D01*
X128926696Y-72243514D01*
X128843985Y-72160803D01*
X128738891Y-72109426D01*
X128670761Y-72099500D01*
X128670760Y-72099500D01*
X128489742Y-72099500D01*
X128422703Y-72079815D01*
X128402061Y-72063181D01*
X128378367Y-72039487D01*
X128378365Y-72039485D01*
X128304398Y-71996780D01*
X128247136Y-71963719D01*
X128159662Y-71940281D01*
X128100766Y-71924500D01*
X128100765Y-71924500D01*
X126825205Y-71924500D01*
X126758166Y-71904815D01*
X126753444Y-71901587D01*
X126753221Y-71901473D01*
X126753220Y-71901472D01*
X126633126Y-71840281D01*
X126633124Y-71840280D01*
X126633121Y-71840279D01*
X126533493Y-71824500D01*
X126533488Y-71824500D01*
X126481887Y-71824500D01*
X126457696Y-71822117D01*
X126422505Y-71815117D01*
X126343995Y-71799500D01*
X126343993Y-71799500D01*
X126206007Y-71799500D01*
X126206005Y-71799500D01*
X126127494Y-71815117D01*
X126092303Y-71822117D01*
X126068113Y-71824500D01*
X126016507Y-71824500D01*
X125916878Y-71840279D01*
X125796778Y-71901473D01*
X125777825Y-71920426D01*
X125716501Y-71953910D01*
X125646809Y-71948924D01*
X125590876Y-71907052D01*
X125584606Y-71897840D01*
X125522571Y-71797266D01*
X125402732Y-71677427D01*
X125402728Y-71677424D01*
X125258492Y-71588457D01*
X125258481Y-71588452D01*
X125097606Y-71535144D01*
X124998322Y-71525000D01*
X124975000Y-71525000D01*
X124975000Y-72626000D01*
X124955315Y-72693039D01*
X124902511Y-72738794D01*
X124851000Y-72750000D01*
X123775001Y-72750000D01*
X123775001Y-72798311D01*
X123785144Y-72897607D01*
X123838452Y-73058481D01*
X123838457Y-73058492D01*
X123927424Y-73202728D01*
X123927427Y-73202732D01*
X124047267Y-73322572D01*
X124047271Y-73322575D01*
X124191507Y-73411542D01*
X124191518Y-73411547D01*
X124352393Y-73464855D01*
X124451683Y-73474999D01*
X124484977Y-73474999D01*
X124552017Y-73494682D01*
X124597773Y-73547484D01*
X124607718Y-73616643D01*
X124578695Y-73680199D01*
X124572662Y-73686680D01*
X124527188Y-73732155D01*
X124446160Y-73813182D01*
X124384840Y-73846666D01*
X124358481Y-73849500D01*
X119679019Y-73849500D01*
X119611980Y-73829815D01*
X119591338Y-73813181D01*
X118940249Y-73162092D01*
X118915035Y-73120944D01*
X118914383Y-73121277D01*
X118910154Y-73112978D01*
X118909995Y-73112718D01*
X118909951Y-73112583D01*
X118909951Y-73112580D01*
X118849658Y-72994249D01*
X118849655Y-72994246D01*
X118849653Y-72994243D01*
X118755756Y-72900346D01*
X118755753Y-72900344D01*
X118755751Y-72900342D01*
X118637420Y-72840049D01*
X118637419Y-72840048D01*
X118637416Y-72840047D01*
X118637417Y-72840047D01*
X118539251Y-72824500D01*
X118539246Y-72824500D01*
X118494387Y-72824500D01*
X118470196Y-72822117D01*
X118432504Y-72814619D01*
X118356496Y-72799500D01*
X118356494Y-72799500D01*
X118218506Y-72799500D01*
X118218504Y-72799500D01*
X118142495Y-72814619D01*
X118104803Y-72822117D01*
X118080613Y-72824500D01*
X118035749Y-72824500D01*
X117937582Y-72840047D01*
X117859284Y-72879943D01*
X117819249Y-72900342D01*
X117819248Y-72900343D01*
X117819243Y-72900346D01*
X117725346Y-72994243D01*
X117725343Y-72994248D01*
X117725342Y-72994249D01*
X117723208Y-72998438D01*
X117665047Y-73112583D01*
X117652046Y-73194672D01*
X117644135Y-73222725D01*
X117617760Y-73286403D01*
X117614562Y-73294123D01*
X117570721Y-73348527D01*
X117504427Y-73370593D01*
X117436728Y-73353315D01*
X117389117Y-73302178D01*
X117385439Y-73294125D01*
X117382366Y-73286706D01*
X117355864Y-73222725D01*
X117347952Y-73194672D01*
X117345234Y-73177511D01*
X117334951Y-73112580D01*
X117274658Y-72994249D01*
X117274654Y-72994245D01*
X117274653Y-72994243D01*
X117180756Y-72900346D01*
X117180753Y-72900344D01*
X117180751Y-72900342D01*
X117062420Y-72840049D01*
X117062419Y-72840048D01*
X117062416Y-72840047D01*
X117062417Y-72840047D01*
X116964251Y-72824500D01*
X116964246Y-72824500D01*
X116919387Y-72824500D01*
X116895196Y-72822117D01*
X116860005Y-72815117D01*
X116781495Y-72799500D01*
X116781493Y-72799500D01*
X116643507Y-72799500D01*
X116643505Y-72799500D01*
X116564994Y-72815117D01*
X116529803Y-72822117D01*
X116505613Y-72824500D01*
X116460749Y-72824500D01*
X116362582Y-72840047D01*
X116284284Y-72879943D01*
X116244249Y-72900342D01*
X116244248Y-72900343D01*
X116244243Y-72900346D01*
X116150346Y-72994243D01*
X116150343Y-72994248D01*
X116150342Y-72994249D01*
X116148208Y-72998438D01*
X116090047Y-73112583D01*
X116077046Y-73194672D01*
X116069135Y-73222725D01*
X116045412Y-73280000D01*
X116038919Y-73295675D01*
X116038918Y-73295678D01*
X116012000Y-73431004D01*
X116012000Y-73431006D01*
X116012000Y-73431007D01*
X116012000Y-75393506D01*
X116012000Y-75531494D01*
X116012000Y-75531496D01*
X116011999Y-75531496D01*
X116038918Y-75666822D01*
X116038921Y-75666832D01*
X116091722Y-75794307D01*
X116171771Y-75914109D01*
X116170305Y-75915087D01*
X116194355Y-75971722D01*
X116194593Y-75998207D01*
X116194417Y-75999996D01*
X116194417Y-75999999D01*
X116214699Y-76205932D01*
X116230052Y-76256543D01*
X116274768Y-76403954D01*
X116372315Y-76586450D01*
X116406969Y-76628677D01*
X116503589Y-76746410D01*
X116600209Y-76825702D01*
X116663550Y-76877685D01*
X116846046Y-76975232D01*
X116912551Y-76995405D01*
X116970989Y-77033702D01*
X116999446Y-77097514D01*
X116988887Y-77166581D01*
X116942663Y-77218975D01*
X116908650Y-77233841D01*
X116786514Y-77266567D01*
X116786507Y-77266570D01*
X116572422Y-77366399D01*
X116572420Y-77366400D01*
X116378926Y-77501886D01*
X116378920Y-77501891D01*
X116211891Y-77668920D01*
X116211886Y-77668926D01*
X116076400Y-77862420D01*
X116076399Y-77862422D01*
X115976570Y-78076507D01*
X115976567Y-78076513D01*
X115919364Y-78289999D01*
X115919364Y-78290000D01*
X116816988Y-78290000D01*
X116784075Y-78347007D01*
X116750000Y-78474174D01*
X116750000Y-78605826D01*
X116784075Y-78732993D01*
X116816988Y-78790000D01*
X115919364Y-78790000D01*
X114000500Y-78790000D01*
X114000500Y-73050862D01*
X114020185Y-72983823D01*
X114036819Y-72963181D01*
X114750000Y-72250000D01*
X123775000Y-72250000D01*
X124475000Y-72250000D01*
X124475000Y-71524999D01*
X124451693Y-71525000D01*
X124451674Y-71525001D01*
X124352392Y-71535144D01*
X124191518Y-71588452D01*
X124191507Y-71588457D01*
X124047271Y-71677424D01*
X124047267Y-71677427D01*
X123927427Y-71797267D01*
X123927424Y-71797271D01*
X123838457Y-71941507D01*
X123838452Y-71941518D01*
X123785144Y-72102393D01*
X123775000Y-72201677D01*
X123775000Y-72250000D01*
X114750000Y-72250000D01*
X116963181Y-70036819D01*
X117024504Y-70003334D01*
X117050862Y-70000500D01*
X131327937Y-70000500D01*
X131394976Y-70020185D01*
G37*
%TD.AperFunction*%
%TA.AperFunction,Conductor*%
G36*
X146526947Y-75271360D02*
G01*
X146572702Y-75324164D01*
X146582381Y-75356276D01*
X146589354Y-75400301D01*
X146589354Y-75400303D01*
X146592370Y-75409585D01*
X146589985Y-75410359D01*
X146599500Y-75449986D01*
X146599500Y-76039296D01*
X146579815Y-76106335D01*
X146527011Y-76152090D01*
X146457853Y-76162034D01*
X146421040Y-76150697D01*
X146419614Y-76150000D01*
X146326393Y-76104427D01*
X146326391Y-76104426D01*
X146258261Y-76094500D01*
X146258260Y-76094500D01*
X144741740Y-76094500D01*
X144741739Y-76094500D01*
X144673608Y-76104426D01*
X144568514Y-76155803D01*
X144485803Y-76238514D01*
X144434426Y-76343608D01*
X144424500Y-76411739D01*
X144424500Y-76778260D01*
X144434426Y-76846391D01*
X144485803Y-76951485D01*
X144568514Y-77034196D01*
X144568515Y-77034196D01*
X144568517Y-77034198D01*
X144673607Y-77085573D01*
X144699558Y-77089354D01*
X144741739Y-77095500D01*
X145219037Y-77095500D01*
X145286076Y-77115185D01*
X145331831Y-77167989D01*
X145341775Y-77237147D01*
X145312750Y-77300703D01*
X145281038Y-77326886D01*
X145244666Y-77347886D01*
X145182665Y-77364500D01*
X144741739Y-77364500D01*
X144673608Y-77374426D01*
X144568514Y-77425803D01*
X144485803Y-77508514D01*
X144434426Y-77613608D01*
X144424500Y-77681739D01*
X144424500Y-78048260D01*
X144434426Y-78116391D01*
X144485803Y-78221485D01*
X144568514Y-78304196D01*
X144568515Y-78304196D01*
X144568517Y-78304198D01*
X144673607Y-78355573D01*
X144707673Y-78360536D01*
X144741739Y-78365500D01*
X144741740Y-78365500D01*
X145182665Y-78365500D01*
X145244666Y-78382114D01*
X145262852Y-78392614D01*
X145311067Y-78443181D01*
X145324289Y-78511789D01*
X145298321Y-78576653D01*
X145262852Y-78607386D01*
X145244666Y-78617886D01*
X145182665Y-78634500D01*
X144741739Y-78634500D01*
X144673608Y-78644426D01*
X144568514Y-78695803D01*
X144485803Y-78778514D01*
X144434426Y-78883608D01*
X144424500Y-78951739D01*
X144424500Y-79318260D01*
X144434426Y-79386391D01*
X144485803Y-79491485D01*
X144568514Y-79574196D01*
X144568515Y-79574196D01*
X144568517Y-79574198D01*
X144673607Y-79625573D01*
X144707673Y-79630536D01*
X144741739Y-79635500D01*
X144741740Y-79635500D01*
X145182665Y-79635500D01*
X145244666Y-79652114D01*
X145281038Y-79673114D01*
X145329253Y-79723681D01*
X145342475Y-79792289D01*
X145316507Y-79857153D01*
X145259592Y-79897681D01*
X145219037Y-79904500D01*
X144741739Y-79904500D01*
X144673608Y-79914426D01*
X144568514Y-79965803D01*
X144485803Y-80048514D01*
X144434426Y-80153608D01*
X144424500Y-80221739D01*
X144424500Y-80588260D01*
X144434426Y-80656391D01*
X144485803Y-80761485D01*
X144568514Y-80844196D01*
X144568515Y-80844196D01*
X144568517Y-80844198D01*
X144673607Y-80895573D01*
X144707217Y-80900470D01*
X144741739Y-80905500D01*
X144741740Y-80905500D01*
X146258261Y-80905500D01*
X146292783Y-80900470D01*
X146326393Y-80895573D01*
X146421041Y-80849302D01*
X146489912Y-80837543D01*
X146554209Y-80864886D01*
X146593517Y-80922650D01*
X146599500Y-80960703D01*
X146599500Y-81550012D01*
X146589989Y-81589640D01*
X146592369Y-81590414D01*
X146589353Y-81599694D01*
X146582093Y-81645535D01*
X146552163Y-81708669D01*
X146547301Y-81713817D01*
X145304693Y-82956427D01*
X145243370Y-82989912D01*
X145217012Y-82992746D01*
X143472351Y-82992746D01*
X143405312Y-82973061D01*
X143359557Y-82920257D01*
X143349613Y-82851099D01*
X143378638Y-82787543D01*
X143384670Y-82781065D01*
X143394756Y-82770978D01*
X143394759Y-82770974D01*
X143483726Y-82626738D01*
X143483731Y-82626727D01*
X143537039Y-82465852D01*
X143547183Y-82366568D01*
X143547184Y-82366555D01*
X143547184Y-82318246D01*
X142471184Y-82318246D01*
X142404145Y-82298561D01*
X142358390Y-82245757D01*
X142347184Y-82194246D01*
X142347184Y-81093246D01*
X142847184Y-81093246D01*
X142847184Y-81818246D01*
X143547183Y-81818246D01*
X143547183Y-81769938D01*
X143547182Y-81769923D01*
X143537039Y-81670638D01*
X143483731Y-81509764D01*
X143483726Y-81509753D01*
X143394759Y-81365517D01*
X143394756Y-81365513D01*
X143274916Y-81245673D01*
X143274912Y-81245670D01*
X143130676Y-81156703D01*
X143130665Y-81156698D01*
X142969790Y-81103390D01*
X142870506Y-81093246D01*
X142847184Y-81093246D01*
X142347184Y-81093246D01*
X142347184Y-81093245D01*
X142323877Y-81093246D01*
X142323858Y-81093247D01*
X142224576Y-81103390D01*
X142063702Y-81156698D01*
X142063691Y-81156703D01*
X141919455Y-81245670D01*
X141919451Y-81245673D01*
X141834365Y-81330760D01*
X141773042Y-81364245D01*
X141703350Y-81359261D01*
X141647417Y-81317389D01*
X141623000Y-81251925D01*
X141622684Y-81243079D01*
X141622684Y-79721420D01*
X141622684Y-79721418D01*
X141583465Y-79575049D01*
X141507699Y-79443819D01*
X141400549Y-79336669D01*
X141103365Y-79039485D01*
X141016789Y-78989500D01*
X140972136Y-78963719D01*
X140883983Y-78940099D01*
X140825766Y-78924500D01*
X140674234Y-78924500D01*
X140527863Y-78963719D01*
X140396635Y-79039485D01*
X140396632Y-79039487D01*
X140289487Y-79146632D01*
X140289485Y-79146635D01*
X140213719Y-79277863D01*
X140174500Y-79424234D01*
X140174500Y-79575766D01*
X140194109Y-79648950D01*
X140213719Y-79722136D01*
X140237510Y-79763342D01*
X140289485Y-79853365D01*
X140289487Y-79853367D01*
X140435365Y-79999245D01*
X140468850Y-80060568D01*
X140471684Y-80086926D01*
X140471684Y-80985292D01*
X140451999Y-81052331D01*
X140399195Y-81098086D01*
X140330037Y-81108030D01*
X140266481Y-81079005D01*
X140228707Y-81020227D01*
X140224980Y-81003170D01*
X140215573Y-80938608D01*
X140207772Y-80922650D01*
X140164198Y-80833517D01*
X140164196Y-80833515D01*
X140164196Y-80833514D01*
X140081485Y-80750803D01*
X139976391Y-80699426D01*
X139908261Y-80689500D01*
X139908260Y-80689500D01*
X138399500Y-80689500D01*
X138332461Y-80669815D01*
X138286706Y-80617011D01*
X138275500Y-80565500D01*
X138275500Y-80142254D01*
X138295185Y-80075215D01*
X138311819Y-80054573D01*
X138350186Y-80016206D01*
X138411509Y-79982721D01*
X138481201Y-79987705D01*
X138525548Y-80016206D01*
X138553454Y-80044112D01*
X138553457Y-80044114D01*
X138641661Y-80103050D01*
X138668192Y-80120777D01*
X138764446Y-80160646D01*
X138795672Y-80173580D01*
X138795676Y-80173580D01*
X138795677Y-80173581D01*
X138931003Y-80200500D01*
X138931006Y-80200500D01*
X139068996Y-80200500D01*
X139160040Y-80182389D01*
X139204328Y-80173580D01*
X139279956Y-80142254D01*
X139331807Y-80120777D01*
X139331808Y-80120776D01*
X139331811Y-80120775D01*
X139446543Y-80044114D01*
X139694114Y-79796543D01*
X139770775Y-79681811D01*
X139774378Y-79673114D01*
X139806521Y-79595512D01*
X139823580Y-79554328D01*
X139834350Y-79500185D01*
X139850500Y-79418996D01*
X139850500Y-77224500D01*
X139870185Y-77157461D01*
X139922989Y-77111706D01*
X139974500Y-77100500D01*
X141093995Y-77100500D01*
X141172505Y-77084882D01*
X141207696Y-77077882D01*
X141231887Y-77075500D01*
X141283493Y-77075500D01*
X141383121Y-77059720D01*
X141383121Y-77059719D01*
X141383126Y-77059719D01*
X141503220Y-76998528D01*
X141522173Y-76979574D01*
X141583494Y-76946090D01*
X141653185Y-76951073D01*
X141709120Y-76992944D01*
X141715392Y-77002159D01*
X141777424Y-77102728D01*
X141777427Y-77102732D01*
X141897267Y-77222572D01*
X141897271Y-77222575D01*
X142041507Y-77311542D01*
X142041518Y-77311547D01*
X142202393Y-77364855D01*
X142301683Y-77374999D01*
X142325000Y-77374998D01*
X142325000Y-76650000D01*
X142825000Y-76650000D01*
X142825000Y-77374999D01*
X142848308Y-77374999D01*
X142848322Y-77374998D01*
X142947607Y-77364855D01*
X143108481Y-77311547D01*
X143108492Y-77311542D01*
X143252728Y-77222575D01*
X143252732Y-77222572D01*
X143372572Y-77102732D01*
X143372575Y-77102728D01*
X143461542Y-76958492D01*
X143461547Y-76958481D01*
X143514855Y-76797606D01*
X143524999Y-76698322D01*
X143525000Y-76698309D01*
X143525000Y-76650000D01*
X142825000Y-76650000D01*
X142325000Y-76650000D01*
X142325000Y-76274000D01*
X142344685Y-76206961D01*
X142397489Y-76161206D01*
X142449000Y-76150000D01*
X143524999Y-76150000D01*
X143524999Y-76101692D01*
X143524998Y-76101677D01*
X143514855Y-76002392D01*
X143461547Y-75841518D01*
X143461542Y-75841507D01*
X143372575Y-75697271D01*
X143372572Y-75697267D01*
X143252732Y-75577427D01*
X143252728Y-75577424D01*
X143102337Y-75484661D01*
X143103284Y-75483124D01*
X143057857Y-75443116D01*
X143038713Y-75375920D01*
X143058937Y-75309042D01*
X143089873Y-75276565D01*
X143091587Y-75275321D01*
X143157405Y-75251874D01*
X143164423Y-75251675D01*
X146459908Y-75251675D01*
X146526947Y-75271360D01*
G37*
%TD.AperFunction*%
%TD*%
M02*
